# MagicaVoxel @ Ephtracy

# group
o 

# material
mtllib Levi Middle.mtl
usemtl palette

# normals
vn -1 0 0
vn 1 0 0
vn 0 0 1
vn 0 0 -1
vn 0 -1 0
vn 0 1 0

# texcoords
vt 0.916016 0.5
vt 0.970703 0.5
vt 0.974609 0.5
vt 0.978516 0.5

# verts
v -0.4 0.6 0.1
v -0.4 0.6 -0.3
v -0.4 0.7 0.1
v -0.4 0.7 0
v -0.4 0.7 -0.3
v -0.4 0.7 -0.4
v -0.4 0.8 0
v -0.4 0.8 -0.1
v -0.4 0.8 -0.4
v -0.4 0.8 -0.5
v -0.4 0.9 -0.1
v -0.4 0.9 -0.2
v -0.4 1 -0.5
v -0.4 1 -0.6
v -0.4 1.1 -0.4
v -0.4 1.1 -0.5
v -0.4 1.2 -0.3
v -0.4 1.2 -0.4
v -0.4 1.2 -0.6
v -0.4 1.3 -0.2
v -0.4 1.3 -0.3
v -0.4 1.3 -0.4
v -0.4 1.3 -0.5
v -0.4 1.3 -0.6
v -0.4 1.4 -0.2
v -0.4 1.4 -0.3
v -0.4 1.4 -0.4
v -0.4 1.4 -0.5
v -0.4 1.5 -0.2
v -0.4 1.5 -0.4
v -0.3 0.6 0.2
v -0.3 0.6 0.1
v -0.3 0.6 -0.3
v -0.3 0.6 -0.4
v -0.3 0.7 0.2
v -0.3 0.7 0.1
v -0.3 0.7 0
v -0.3 0.7 -0.3
v -0.3 0.7 -0.4
v -0.3 0.7 -0.5
v -0.3 0.8 0.1
v -0.3 0.8 0
v -0.3 0.8 -0.1
v -0.3 0.8 -0.4
v -0.3 0.8 -0.5
v -0.3 0.8 -0.6
v -0.3 0.9 0
v -0.3 0.9 -0.1
v -0.3 0.9 -0.2
v -0.3 1 -0.5
v -0.3 1 -0.6
v -0.3 1 -0.7
v -0.3 1.2 -0.1
v -0.3 1.2 -0.2
v -0.3 1.2 -0.6
v -0.3 1.2 -0.7
v -0.3 1.3 -0.5
v -0.3 1.3 -0.6
v -0.3 1.4 -0.4
v -0.3 1.4 -0.5
v -0.3 1.4 -0.6
v -0.3 1.5 -0.2
v -0.3 1.5 -0.4
v -0.3 1.5 -0.5
v -0.3 1.6 -0.2
v -0.3 1.6 -0.4
v -0.2 0.6 -0.4
v -0.2 0.6 -0.5
v -0.2 0.7 0.2
v -0.2 0.7 0.1
v -0.2 0.7 -0.4
v -0.2 0.7 -0.5
v -0.2 0.7 -0.6
v -0.2 0.8 0.2
v -0.2 0.8 0.1
v -0.2 0.8 0
v -0.2 0.8 -0.5
v -0.2 0.8 -0.6
v -0.2 0.9 0.1
v -0.2 0.9 0
v -0.2 0.9 -0.1
v -0.2 0.9 -0.6
v -0.2 0.9 -0.7
v -0.2 1 0
v -0.2 1 -0.1
v -0.2 1 -0.6
v -0.2 1 -0.7
v -0.2 1.2 -0.6
v -0.2 1.2 -0.7
v -0.2 1.3 -0.6
v -0.2 1.3 -0.7
v -0.2 1.6 -0.2
v -0.2 1.6 -0.3
v -0.2 1.7 -0.2
v -0.2 1.7 -0.3
v 0.2 0.6 -0.4
v 0.2 0.6 -0.5
v 0.2 0.7 0.2
v 0.2 0.7 0.1
v 0.2 0.7 -0.4
v 0.2 0.7 -0.5
v 0.2 0.7 -0.6
v 0.2 0.8 0.2
v 0.2 0.8 0.1
v 0.2 0.8 0
v 0.2 0.8 -0.5
v 0.2 0.8 -0.6
v 0.2 0.9 0.1
v 0.2 0.9 0
v 0.2 0.9 -0.1
v 0.2 0.9 -0.6
v 0.2 0.9 -0.7
v 0.2 1 0
v 0.2 1 -0.1
v 0.2 1 -0.6
v 0.2 1 -0.7
v 0.2 1.2 -0.6
v 0.2 1.2 -0.7
v 0.2 1.3 -0.6
v 0.2 1.3 -0.7
v 0.2 1.6 -0.2
v 0.2 1.6 -0.3
v 0.2 1.7 -0.2
v 0.2 1.7 -0.3
v 0.3 0.6 0.2
v 0.3 0.6 0.1
v 0.3 0.6 -0.3
v 0.3 0.6 -0.4
v 0.3 0.7 0.2
v 0.3 0.7 0.1
v 0.3 0.7 0
v 0.3 0.7 -0.3
v 0.3 0.7 -0.4
v 0.3 0.7 -0.5
v 0.3 0.8 0.1
v 0.3 0.8 0
v 0.3 0.8 -0.1
v 0.3 0.8 -0.4
v 0.3 0.8 -0.5
v 0.3 0.8 -0.6
v 0.3 0.9 0
v 0.3 0.9 -0.1
v 0.3 0.9 -0.2
v 0.3 1 -0.5
v 0.3 1 -0.6
v 0.3 1 -0.7
v 0.3 1.2 -0.1
v 0.3 1.2 -0.2
v 0.3 1.2 -0.6
v 0.3 1.2 -0.7
v 0.3 1.3 -0.5
v 0.3 1.3 -0.6
v 0.3 1.4 -0.4
v 0.3 1.4 -0.5
v 0.3 1.4 -0.6
v 0.3 1.5 -0.2
v 0.3 1.5 -0.4
v 0.3 1.5 -0.5
v 0.3 1.6 -0.2
v 0.3 1.6 -0.4
v 0.4 0.6 0.1
v 0.4 0.6 -0.3
v 0.4 0.7 0.1
v 0.4 0.7 0
v 0.4 0.7 -0.3
v 0.4 0.7 -0.4
v 0.4 0.8 0
v 0.4 0.8 -0.1
v 0.4 0.8 -0.4
v 0.4 0.8 -0.5
v 0.4 0.9 -0.1
v 0.4 0.9 -0.2
v 0.4 1 -0.5
v 0.4 1 -0.6
v 0.4 1.1 -0.4
v 0.4 1.1 -0.5
v 0.4 1.2 -0.3
v 0.4 1.2 -0.4
v 0.4 1.2 -0.6
v 0.4 1.3 -0.2
v 0.4 1.3 -0.3
v 0.4 1.3 -0.4
v 0.4 1.3 -0.5
v 0.4 1.3 -0.6
v 0.4 1.4 -0.2
v 0.4 1.4 -0.3
v 0.4 1.4 -0.4
v 0.4 1.4 -0.5
v 0.4 1.5 -0.2
v 0.4 1.5 -0.4
v -0.3 0.6 0.2
v -0.3 0.7 0.2
v -0.2 0.7 0.2
v -0.2 0.8 0.2
v 0.2 0.7 0.2
v 0.2 0.8 0.2
v 0.3 0.6 0.2
v 0.3 0.7 0.2
v -0.4 0.6 0.1
v -0.4 0.7 0.1
v -0.3 0.6 0.1
v -0.3 0.7 0.1
v -0.3 0.8 0.1
v -0.2 0.7 0.1
v -0.2 0.8 0.1
v -0.2 0.9 0.1
v 0.2 0.7 0.1
v 0.2 0.8 0.1
v 0.2 0.9 0.1
v 0.3 0.6 0.1
v 0.3 0.7 0.1
v 0.3 0.8 0.1
v 0.4 0.6 0.1
v 0.4 0.7 0.1
v -0.4 0.7 0
v -0.4 0.8 0
v -0.3 0.7 0
v -0.3 0.8 0
v -0.3 0.9 0
v -0.2 0.8 0
v -0.2 0.9 0
v -0.2 1 0
v 0.2 0.8 0
v 0.2 0.9 0
v 0.2 1 0
v 0.3 0.7 0
v 0.3 0.8 0
v 0.3 0.9 0
v 0.4 0.7 0
v 0.4 0.8 0
v -0.4 0.8 -0.1
v -0.4 0.9 -0.1
v -0.3 0.8 -0.1
v -0.3 0.9 -0.1
v -0.3 1.2 -0.1
v -0.2 0.9 -0.1
v -0.2 1 -0.1
v -0.2 1.1 -0.1
v -0.2 1.2 -0.1
v 0.2 0.9 -0.1
v 0.2 1 -0.1
v 0.2 1.1 -0.1
v 0.2 1.2 -0.1
v 0.3 0.8 -0.1
v 0.3 0.9 -0.1
v 0.3 1.2 -0.1
v 0.4 0.8 -0.1
v 0.4 0.9 -0.1
v -0.4 0.9 -0.2
v -0.4 1.3 -0.2
v -0.4 1.4 -0.2
v -0.4 1.5 -0.2
v -0.3 0.9 -0.2
v -0.3 1.2 -0.2
v -0.3 1.3 -0.2
v -0.3 1.4 -0.2
v -0.3 1.5 -0.2
v -0.3 1.6 -0.2
v -0.2 1.2 -0.2
v -0.2 1.5 -0.2
v -0.2 1.6 -0.2
v -0.2 1.7 -0.2
v 0.2 1.2 -0.2
v 0.2 1.5 -0.2
v 0.2 1.6 -0.2
v 0.2 1.7 -0.2
v 0.3 0.9 -0.2
v 0.3 1.2 -0.2
v 0.3 1.3 -0.2
v 0.3 1.4 -0.2
v 0.3 1.5 -0.2
v 0.3 1.6 -0.2
v 0.4 0.9 -0.2
v 0.4 1.3 -0.2
v 0.4 1.4 -0.2
v 0.4 1.5 -0.2
v -0.4 0.6 -0.3
v -0.4 0.7 -0.3
v -0.3 0.6 -0.3
v -0.3 0.7 -0.3
v -0.2 1.6 -0.3
v -0.2 1.7 -0.3
v 0.2 1.6 -0.3
v 0.2 1.7 -0.3
v 0.3 0.6 -0.3
v 0.3 0.7 -0.3
v 0.4 0.6 -0.3
v 0.4 0.7 -0.3
v -0.4 0.7 -0.4
v -0.4 0.8 -0.4
v -0.4 1.4 -0.4
v -0.4 1.5 -0.4
v -0.3 0.6 -0.4
v -0.3 0.7 -0.4
v -0.3 0.8 -0.4
v -0.3 1.4 -0.4
v -0.3 1.5 -0.4
v -0.3 1.6 -0.4
v -0.2 0.6 -0.4
v -0.2 0.7 -0.4
v 0.2 0.6 -0.4
v 0.2 0.7 -0.4
v 0.3 0.6 -0.4
v 0.3 0.7 -0.4
v 0.3 0.8 -0.4
v 0.3 1.4 -0.4
v 0.3 1.5 -0.4
v 0.3 1.6 -0.4
v 0.4 0.7 -0.4
v 0.4 0.8 -0.4
v 0.4 1.4 -0.4
v 0.4 1.5 -0.4
v -0.4 0.8 -0.5
v -0.4 1 -0.5
v -0.4 1.3 -0.5
v -0.4 1.4 -0.5
v -0.3 0.7 -0.5
v -0.3 0.8 -0.5
v -0.3 1 -0.5
v -0.3 1.3 -0.5
v -0.3 1.4 -0.5
v -0.3 1.5 -0.5
v -0.2 0.6 -0.5
v -0.2 0.7 -0.5
v -0.2 0.8 -0.5
v -0.1 0.6 -0.5
v -0.1 0.7 -0.5
v 0.1 0.6 -0.5
v 0.1 0.7 -0.5
v 0.2 0.6 -0.5
v 0.2 0.7 -0.5
v 0.2 0.8 -0.5
v 0.3 0.7 -0.5
v 0.3 0.8 -0.5
v 0.3 1 -0.5
v 0.3 1.3 -0.5
v 0.3 1.4 -0.5
v 0.3 1.5 -0.5
v 0.4 0.8 -0.5
v 0.4 1 -0.5
v 0.4 1.3 -0.5
v 0.4 1.4 -0.5
v -0.4 1 -0.6
v -0.4 1.2 -0.6
v -0.4 1.3 -0.6
v -0.3 0.8 -0.6
v -0.3 1 -0.6
v -0.3 1.2 -0.6
v -0.3 1.3 -0.6
v -0.3 1.4 -0.6
v -0.2 0.7 -0.6
v -0.2 0.8 -0.6
v -0.2 0.9 -0.6
v -0.2 1 -0.6
v -0.2 1.2 -0.6
v -0.2 1.3 -0.6
v 0.2 0.7 -0.6
v 0.2 0.8 -0.6
v 0.2 0.9 -0.6
v 0.2 1 -0.6
v 0.2 1.2 -0.6
v 0.2 1.3 -0.6
v 0.3 0.8 -0.6
v 0.3 1 -0.6
v 0.3 1.2 -0.6
v 0.3 1.3 -0.6
v 0.3 1.4 -0.6
v 0.4 1 -0.6
v 0.4 1.2 -0.6
v 0.4 1.3 -0.6
v -0.3 1 -0.7
v -0.3 1.2 -0.7
v -0.2 0.9 -0.7
v -0.2 1 -0.7
v -0.2 1.2 -0.7
v -0.2 1.3 -0.7
v 0.2 0.9 -0.7
v 0.2 1 -0.7
v 0.2 1.2 -0.7
v 0.2 1.3 -0.7
v 0.3 1 -0.7
v 0.3 1.2 -0.7
v -0.3 0.6 0.2
v 0.3 0.6 0.2
v -0.4 0.6 0.1
v -0.3 0.6 0.1
v 0.3 0.6 0.1
v 0.4 0.6 0.1
v -0.4 0.6 -0.3
v -0.3 0.6 -0.3
v 0.3 0.6 -0.3
v 0.4 0.6 -0.3
v -0.3 0.6 -0.4
v -0.2 0.6 -0.4
v -0.1 0.6 -0.4
v 0.1 0.6 -0.4
v 0.2 0.6 -0.4
v 0.3 0.6 -0.4
v -0.2 0.6 -0.5
v -0.1 0.6 -0.5
v 0.1 0.6 -0.5
v 0.2 0.6 -0.5
v -0.4 0.7 -0.3
v -0.3 0.7 -0.3
v 0.3 0.7 -0.3
v 0.4 0.7 -0.3
v -0.4 0.7 -0.4
v -0.3 0.7 -0.4
v -0.2 0.7 -0.4
v 0.2 0.7 -0.4
v 0.3 0.7 -0.4
v 0.4 0.7 -0.4
v -0.3 0.7 -0.5
v -0.2 0.7 -0.5
v -0.1 0.7 -0.5
v 0.1 0.7 -0.5
v 0.2 0.7 -0.5
v 0.3 0.7 -0.5
v -0.2 0.7 -0.6
v 0.2 0.7 -0.6
v -0.4 0.8 -0.4
v -0.3 0.8 -0.4
v 0.3 0.8 -0.4
v 0.4 0.8 -0.4
v -0.4 0.8 -0.5
v -0.3 0.8 -0.5
v -0.2 0.8 -0.5
v 0.2 0.8 -0.5
v 0.3 0.8 -0.5
v 0.4 0.8 -0.5
v -0.3 0.8 -0.6
v -0.2 0.8 -0.6
v 0.2 0.8 -0.6
v 0.3 0.8 -0.6
v -0.2 0.9 -0.6
v 0.2 0.9 -0.6
v -0.2 0.9 -0.7
v 0.2 0.9 -0.7
v -0.4 1 -0.5
v -0.3 1 -0.5
v 0.3 1 -0.5
v 0.4 1 -0.5
v -0.4 1 -0.6
v -0.3 1 -0.6
v -0.2 1 -0.6
v 0.2 1 -0.6
v 0.3 1 -0.6
v 0.4 1 -0.6
v -0.3 1 -0.7
v -0.2 1 -0.7
v 0.2 1 -0.7
v 0.3 1 -0.7
v -0.3 0.7 0.2
v -0.2 0.7 0.2
v 0.2 0.7 0.2
v 0.3 0.7 0.2
v -0.4 0.7 0.1
v -0.3 0.7 0.1
v -0.2 0.7 0.1
v 0.2 0.7 0.1
v 0.3 0.7 0.1
v 0.4 0.7 0.1
v -0.4 0.7 0
v -0.3 0.7 0
v 0.3 0.7 0
v 0.4 0.7 0
v -0.2 0.8 0.2
v 0.2 0.8 0.2
v -0.3 0.8 0.1
v -0.2 0.8 0.1
v 0.2 0.8 0.1
v 0.3 0.8 0.1
v -0.4 0.8 0
v -0.3 0.8 0
v -0.2 0.8 0
v 0.2 0.8 0
v 0.3 0.8 0
v 0.4 0.8 0
v -0.4 0.8 -0.1
v -0.3 0.8 -0.1
v 0.3 0.8 -0.1
v 0.4 0.8 -0.1
v -0.2 0.9 0.1
v 0.2 0.9 0.1
v -0.3 0.9 0
v -0.2 0.9 0
v 0.2 0.9 0
v 0.3 0.9 0
v -0.4 0.9 -0.1
v -0.3 0.9 -0.1
v -0.2 0.9 -0.1
v 0.2 0.9 -0.1
v 0.3 0.9 -0.1
v 0.4 0.9 -0.1
v -0.4 0.9 -0.2
v -0.3 0.9 -0.2
v 0.3 0.9 -0.2
v 0.4 0.9 -0.2
v -0.2 1 0
v 0.2 1 0
v -0.2 1 -0.1
v 0.2 1 -0.1
v -0.3 1.2 -0.1
v -0.2 1.2 -0.1
v 0.2 1.2 -0.1
v 0.3 1.2 -0.1
v -0.3 1.2 -0.2
v -0.2 1.2 -0.2
v 0.2 1.2 -0.2
v 0.3 1.2 -0.2
v -0.3 1.2 -0.6
v -0.2 1.2 -0.6
v 0.2 1.2 -0.6
v 0.3 1.2 -0.6
v -0.3 1.2 -0.7
v -0.2 1.2 -0.7
v 0.2 1.2 -0.7
v 0.3 1.2 -0.7
v -0.4 1.3 -0.5
v -0.3 1.3 -0.5
v 0.3 1.3 -0.5
v 0.4 1.3 -0.5
v -0.4 1.3 -0.6
v -0.3 1.3 -0.6
v -0.2 1.3 -0.6
v 0.2 1.3 -0.6
v 0.3 1.3 -0.6
v 0.4 1.3 -0.6
v -0.2 1.3 -0.7
v 0.2 1.3 -0.7
v -0.4 1.4 -0.4
v -0.3 1.4 -0.4
v 0.3 1.4 -0.4
v 0.4 1.4 -0.4
v -0.4 1.4 -0.5
v -0.3 1.4 -0.5
v 0.3 1.4 -0.5
v 0.4 1.4 -0.5
v -0.3 1.4 -0.6
v 0.3 1.4 -0.6
v -0.4 1.5 -0.2
v -0.3 1.5 -0.2
v 0.3 1.5 -0.2
v 0.4 1.5 -0.2
v -0.4 1.5 -0.4
v -0.3 1.5 -0.4
v 0.3 1.5 -0.4
v 0.4 1.5 -0.4
v -0.3 1.5 -0.5
v 0.3 1.5 -0.5
v -0.3 1.6 -0.2
v -0.2 1.6 -0.2
v 0.2 1.6 -0.2
v 0.3 1.6 -0.2
v -0.2 1.6 -0.3
v 0.2 1.6 -0.3
v -0.3 1.6 -0.4
v 0.3 1.6 -0.4
v -0.2 1.7 -0.2
v 0.2 1.7 -0.2
v -0.2 1.7 -0.3
v 0.2 1.7 -0.3

# faces
f 3/2/1 2/2/1 1/2/1
f 4/2/1 2/2/1 3/2/1
f 5/2/1 2/2/1 4/2/1
f 7/2/1 6/2/1 5/2/1
f 7/2/1 5/2/1 4/2/1
f 8/2/1 6/2/1 7/2/1
f 9/2/1 6/2/1 8/2/1
f 11/2/1 10/2/1 9/2/1
f 11/2/1 9/2/1 8/2/1
f 12/2/1 10/2/1 11/2/1
f 13/2/1 10/2/1 12/2/1
f 15/2/1 13/2/1 12/2/1
f 16/1/1 14/1/1 13/1/1
f 16/2/1 13/2/1 15/2/1
f 17/2/1 15/2/1 12/2/1
f 18/1/1 16/1/1 15/1/1
f 18/2/1 15/2/1 17/2/1
f 19/1/1 14/1/1 16/1/1
f 19/1/1 16/1/1 18/1/1
f 20/2/1 17/2/1 12/2/1
f 21/1/1 18/1/1 17/1/1
f 21/2/1 17/2/1 20/2/1
f 22/4/1 19/4/1 18/4/1
f 22/1/1 18/1/1 21/1/1
f 23/4/1 19/4/1 22/4/1
f 24/4/1 19/4/1 23/4/1
f 25/1/1 21/1/1 20/1/1
f 26/4/1 22/4/1 21/4/1
f 26/1/1 21/1/1 25/1/1
f 26/4/1 23/4/1 22/4/1
f 27/4/1 23/4/1 26/4/1
f 28/4/1 23/4/1 27/4/1
f 29/4/1 26/4/1 25/4/1
f 29/4/1 27/4/1 26/4/1
f 30/4/1 27/4/1 29/4/1
f 35/2/1 32/2/1 31/2/1
f 36/2/1 32/2/1 35/2/1
f 38/2/1 34/2/1 33/2/1
f 39/2/1 34/2/1 38/2/1
f 41/2/1 37/2/1 36/2/1
f 42/2/1 37/2/1 41/2/1
f 44/1/1 40/1/1 39/1/1
f 45/1/1 40/1/1 44/1/1
f 47/2/1 43/2/1 42/2/1
f 48/2/1 43/2/1 47/2/1
f 50/1/1 46/1/1 45/1/1
f 51/1/1 46/1/1 50/1/1
f 53/2/1 49/2/1 48/2/1
f 54/2/1 49/2/1 53/2/1
f 55/4/1 52/4/1 51/4/1
f 56/4/1 52/4/1 55/4/1
f 60/4/1 58/4/1 57/4/1
f 61/4/1 58/4/1 60/4/1
f 63/4/1 60/4/1 59/4/1
f 64/4/1 60/4/1 63/4/1
f 65/4/1 63/4/1 62/4/1
f 66/4/1 63/4/1 65/4/1
f 71/1/1 68/1/1 67/1/1
f 72/1/1 68/1/1 71/1/1
f 74/2/1 70/2/1 69/2/1
f 75/2/1 70/2/1 74/2/1
f 77/4/1 73/4/1 72/4/1
f 78/4/1 73/4/1 77/4/1
f 79/2/1 76/2/1 75/2/1
f 80/2/1 76/2/1 79/2/1
f 84/2/1 81/2/1 80/2/1
f 85/2/1 81/2/1 84/2/1
f 86/4/1 83/4/1 82/4/1
f 87/4/1 83/4/1 86/4/1
f 90/4/1 89/4/1 88/4/1
f 91/4/1 89/4/1 90/4/1
f 94/4/1 93/4/1 92/4/1
f 95/4/1 93/4/1 94/4/1
f 96/1/2 97/1/2 100/1/2
f 100/1/2 97/1/2 101/1/2
f 98/2/2 99/2/2 103/2/2
f 103/2/2 99/2/2 104/2/2
f 101/4/2 102/4/2 106/4/2
f 106/4/2 102/4/2 107/4/2
f 104/2/2 105/2/2 108/2/2
f 108/2/2 105/2/2 109/2/2
f 109/2/2 110/2/2 113/2/2
f 113/2/2 110/2/2 114/2/2
f 111/4/2 112/4/2 115/4/2
f 115/4/2 112/4/2 116/4/2
f 117/4/2 118/4/2 119/4/2
f 119/4/2 118/4/2 120/4/2
f 121/4/2 122/4/2 123/4/2
f 123/4/2 122/4/2 124/4/2
f 125/2/2 126/2/2 129/2/2
f 129/2/2 126/2/2 130/2/2
f 127/2/2 128/2/2 132/2/2
f 132/2/2 128/2/2 133/2/2
f 130/2/2 131/2/2 135/2/2
f 135/2/2 131/2/2 136/2/2
f 133/1/2 134/1/2 138/1/2
f 138/1/2 134/1/2 139/1/2
f 136/2/2 137/2/2 141/2/2
f 141/2/2 137/2/2 142/2/2
f 139/1/2 140/1/2 144/1/2
f 144/1/2 140/1/2 145/1/2
f 142/2/2 143/2/2 147/2/2
f 147/2/2 143/2/2 148/2/2
f 145/4/2 146/4/2 149/4/2
f 149/4/2 146/4/2 150/4/2
f 151/4/2 152/4/2 154/4/2
f 154/4/2 152/4/2 155/4/2
f 153/4/2 154/4/2 157/4/2
f 157/4/2 154/4/2 158/4/2
f 156/4/2 157/4/2 159/4/2
f 159/4/2 157/4/2 160/4/2
f 161/2/2 162/2/2 163/2/2
f 163/2/2 162/2/2 164/2/2
f 164/2/2 162/2/2 165/2/2
f 165/2/2 166/2/2 167/2/2
f 164/2/2 165/2/2 167/2/2
f 167/2/2 166/2/2 168/2/2
f 168/2/2 166/2/2 169/2/2
f 169/2/2 170/2/2 171/2/2
f 168/2/2 169/2/2 171/2/2
f 171/2/2 170/2/2 172/2/2
f 172/2/2 170/2/2 173/2/2
f 172/2/2 173/2/2 175/2/2
f 173/1/2 174/1/2 176/1/2
f 175/2/2 173/2/2 176/2/2
f 172/2/2 175/2/2 177/2/2
f 175/1/2 176/1/2 178/1/2
f 177/2/2 175/2/2 178/2/2
f 176/1/2 174/1/2 179/1/2
f 178/1/2 176/1/2 179/1/2
f 172/2/2 177/2/2 180/2/2
f 177/1/2 178/1/2 181/1/2
f 180/2/2 177/2/2 181/2/2
f 178/4/2 179/4/2 182/4/2
f 181/1/2 178/1/2 182/1/2
f 182/4/2 179/4/2 183/4/2
f 183/4/2 179/4/2 184/4/2
f 180/1/2 181/1/2 185/1/2
f 181/4/2 182/4/2 186/4/2
f 185/1/2 181/1/2 186/1/2
f 182/4/2 183/4/2 186/4/2
f 186/4/2 183/4/2 187/4/2
f 187/4/2 183/4/2 188/4/2
f 185/4/2 186/4/2 189/4/2
f 186/4/2 187/4/2 189/4/2
f 189/4/2 187/4/2 190/4/2
f 193/2/3 192/2/3 191/2/3
f 195/2/3 193/2/3 191/2/3
f 195/2/3 194/2/3 193/2/3
f 196/2/3 194/2/3 195/2/3
f 197/2/3 195/2/3 191/2/3
f 198/2/3 195/2/3 197/2/3
f 201/2/3 200/2/3 199/2/3
f 202/2/3 200/2/3 201/2/3
f 204/2/3 203/2/3 202/2/3
f 205/2/3 203/2/3 204/2/3
f 208/2/3 206/2/3 205/2/3
f 209/2/3 206/2/3 208/2/3
f 211/2/3 208/2/3 207/2/3
f 212/2/3 208/2/3 211/2/3
f 213/2/3 211/2/3 210/2/3
f 214/2/3 211/2/3 213/2/3
f 217/2/3 216/2/3 215/2/3
f 218/2/3 216/2/3 217/2/3
f 220/2/3 219/2/3 218/2/3
f 221/2/3 219/2/3 220/2/3
f 224/2/3 222/2/3 221/2/3
f 225/2/3 222/2/3 224/2/3
f 227/2/3 224/2/3 223/2/3
f 228/2/3 224/2/3 227/2/3
f 229/2/3 227/2/3 226/2/3
f 230/2/3 227/2/3 229/2/3
f 233/2/3 232/2/3 231/2/3
f 234/2/3 232/2/3 233/2/3
f 236/2/3 235/2/3 234/2/3
f 237/2/3 235/2/3 236/2/3
f 238/2/3 235/2/3 237/2/3
f 239/2/3 235/2/3 238/2/3
f 241/2/3 238/2/3 237/2/3
f 242/3/3 239/3/3 238/3/3
f 242/2/3 238/2/3 241/2/3
f 243/3/3 239/3/3 242/3/3
f 245/2/3 241/2/3 240/2/3
f 245/2/3 242/2/3 241/2/3
f 245/2/3 243/2/3 242/2/3
f 246/2/3 243/2/3 245/2/3
f 247/2/3 245/2/3 244/2/3
f 248/2/3 245/2/3 247/2/3
f 253/2/3 250/2/3 249/2/3
f 254/2/3 250/2/3 253/2/3
f 255/1/3 251/1/3 250/1/3
f 255/2/3 250/2/3 254/2/3
f 256/4/3 252/4/3 251/4/3
f 256/1/3 251/1/3 255/1/3
f 257/4/3 252/4/3 256/4/3
f 259/2/3 255/2/3 254/2/3
f 259/2/3 257/2/3 256/2/3
f 259/2/3 256/2/3 255/2/3
f 260/4/3 258/4/3 257/4/3
f 260/2/3 257/2/3 259/2/3
f 261/4/3 258/4/3 260/4/3
f 263/2/3 260/2/3 259/2/3
f 263/2/3 261/2/3 260/2/3
f 264/2/3 261/2/3 263/2/3
f 265/4/3 262/4/3 261/4/3
f 265/2/3 261/2/3 264/2/3
f 266/4/3 262/4/3 265/4/3
f 268/2/3 264/2/3 263/2/3
f 269/2/3 264/2/3 268/2/3
f 270/2/3 264/2/3 269/2/3
f 271/4/3 265/4/3 264/4/3
f 271/2/3 264/2/3 270/2/3
f 272/4/3 265/4/3 271/4/3
f 273/2/3 268/2/3 267/2/3
f 273/2/3 269/2/3 268/2/3
f 274/1/3 270/1/3 269/1/3
f 274/2/3 269/2/3 273/2/3
f 275/4/3 271/4/3 270/4/3
f 275/1/3 270/1/3 274/1/3
f 276/4/3 271/4/3 275/4/3
f 277/2/4 278/2/4 279/2/4
f 279/2/4 278/2/4 280/2/4
f 281/4/4 282/4/4 283/4/4
f 283/4/4 282/4/4 284/4/4
f 285/2/4 286/2/4 287/2/4
f 287/2/4 286/2/4 288/2/4
f 289/2/4 290/2/4 294/2/4
f 294/2/4 290/2/4 295/2/4
f 291/4/4 292/4/4 296/4/4
f 296/4/4 292/4/4 297/4/4
f 293/2/4 294/2/4 299/2/4
f 299/2/4 294/2/4 300/2/4
f 301/2/4 302/2/4 303/2/4
f 303/2/4 302/2/4 304/2/4
f 297/4/4 298/4/4 307/4/4
f 307/4/4 298/4/4 308/4/4
f 304/2/4 305/2/4 309/2/4
f 309/2/4 305/2/4 310/2/4
f 306/4/4 307/4/4 311/4/4
f 311/4/4 307/4/4 312/4/4
f 313/2/4 314/2/4 318/2/4
f 318/2/4 314/2/4 319/2/4
f 315/4/4 316/4/4 320/4/4
f 320/4/4 316/4/4 321/4/4
f 317/1/4 318/1/4 324/1/4
f 324/1/4 318/1/4 325/1/4
f 323/1/4 324/1/4 326/1/4
f 326/1/4 324/1/4 327/1/4
f 326/4/4 327/4/4 328/4/4
f 328/4/4 327/4/4 329/4/4
f 328/1/4 329/1/4 330/1/4
f 330/1/4 329/1/4 331/1/4
f 331/1/4 332/1/4 333/1/4
f 333/1/4 332/1/4 334/1/4
f 321/4/4 322/4/4 337/4/4
f 337/4/4 322/4/4 338/4/4
f 334/2/4 335/2/4 339/2/4
f 339/2/4 335/2/4 340/2/4
f 336/4/4 337/4/4 341/4/4
f 341/4/4 337/4/4 342/4/4
f 343/1/4 344/1/4 347/1/4
f 344/4/4 345/4/4 348/4/4
f 347/1/4 344/1/4 348/1/4
f 348/4/4 345/4/4 349/4/4
f 346/1/4 347/1/4 352/1/4
f 352/1/4 347/1/4 353/1/4
f 353/1/4 347/1/4 354/1/4
f 348/4/4 349/4/4 355/4/4
f 349/4/4 350/4/4 355/4/4
f 355/4/4 350/4/4 356/4/4
f 352/4/4 353/4/4 357/4/4
f 351/4/4 352/4/4 357/4/4
f 357/4/4 353/4/4 358/4/4
f 358/4/4 353/4/4 359/4/4
f 356/4/4 350/4/4 362/4/4
f 359/1/4 360/1/4 363/1/4
f 358/1/4 359/1/4 363/1/4
f 363/1/4 360/1/4 364/1/4
f 361/4/4 362/4/4 365/4/4
f 362/4/4 350/4/4 366/4/4
f 365/4/4 362/4/4 366/4/4
f 366/4/4 350/4/4 367/4/4
f 364/1/4 365/1/4 368/1/4
f 365/4/4 366/4/4 369/4/4
f 368/1/4 365/1/4 369/1/4
f 369/4/4 366/4/4 370/4/4
f 371/4/4 372/4/4 374/4/4
f 374/4/4 372/4/4 375/4/4
f 373/4/4 374/4/4 377/4/4
f 375/4/4 376/4/4 377/4/4
f 374/4/4 375/4/4 377/4/4
f 377/4/4 376/4/4 378/4/4
f 378/4/4 376/4/4 379/4/4
f 379/4/4 376/4/4 380/4/4
f 378/4/4 379/4/4 381/4/4
f 381/4/4 379/4/4 382/4/4
f 386/2/5 384/2/5 383/2/5
f 387/2/5 384/2/5 386/2/5
f 389/2/5 386/2/5 385/2/5
f 389/2/5 388/2/5 387/2/5
f 389/2/5 387/2/5 386/2/5
f 390/2/5 388/2/5 389/2/5
f 391/2/5 388/2/5 390/2/5
f 392/2/5 388/2/5 391/2/5
f 393/2/5 391/2/5 390/2/5
f 394/2/5 391/2/5 393/2/5
f 395/2/5 391/2/5 394/2/5
f 396/2/5 391/2/5 395/2/5
f 397/2/5 391/2/5 396/2/5
f 398/2/5 391/2/5 397/2/5
f 399/1/5 395/1/5 394/1/5
f 400/4/5 396/4/5 395/4/5
f 400/1/5 395/1/5 399/1/5
f 401/1/5 397/1/5 396/1/5
f 401/4/5 396/4/5 400/4/5
f 402/1/5 397/1/5 401/1/5
f 407/2/5 404/2/5 403/2/5
f 408/2/5 404/2/5 407/2/5
f 411/2/5 406/2/5 405/2/5
f 412/2/5 406/2/5 411/2/5
f 413/1/5 409/1/5 408/1/5
f 414/1/5 409/1/5 413/1/5
f 417/1/5 411/1/5 410/1/5
f 418/1/5 411/1/5 417/1/5
f 419/4/5 416/4/5 415/4/5
f 419/4/5 417/4/5 416/4/5
f 419/4/5 415/4/5 414/4/5
f 420/4/5 417/4/5 419/4/5
f 425/2/5 422/2/5 421/2/5
f 426/2/5 422/2/5 425/2/5
f 429/2/5 424/2/5 423/2/5
f 430/2/5 424/2/5 429/2/5
f 431/1/5 427/1/5 426/1/5
f 432/1/5 427/1/5 431/1/5
f 433/1/5 429/1/5 428/1/5
f 434/1/5 429/1/5 433/1/5
f 437/4/5 436/4/5 435/4/5
f 438/4/5 436/4/5 437/4/5
f 443/1/5 440/1/5 439/1/5
f 444/1/5 440/1/5 443/1/5
f 447/1/5 442/1/5 441/1/5
f 448/1/5 442/1/5 447/1/5
f 449/4/5 445/4/5 444/4/5
f 450/4/5 445/4/5 449/4/5
f 451/4/5 447/4/5 446/4/5
f 452/4/5 447/4/5 451/4/5
f 453/2/6 454/2/6 458/2/6
f 458/2/6 454/2/6 459/2/6
f 455/2/6 456/2/6 460/2/6
f 460/2/6 456/2/6 461/2/6
f 457/2/6 458/2/6 463/2/6
f 463/2/6 458/2/6 464/2/6
f 461/2/6 462/2/6 465/2/6
f 465/2/6 462/2/6 466/2/6
f 467/2/6 468/2/6 470/2/6
f 470/2/6 468/2/6 471/2/6
f 469/2/6 470/2/6 474/2/6
f 474/2/6 470/2/6 475/2/6
f 471/2/6 472/2/6 476/2/6
f 476/2/6 472/2/6 477/2/6
f 473/2/6 474/2/6 479/2/6
f 479/2/6 474/2/6 480/2/6
f 477/2/6 478/2/6 481/2/6
f 481/2/6 478/2/6 482/2/6
f 483/2/6 484/2/6 486/2/6
f 486/2/6 484/2/6 487/2/6
f 485/2/6 486/2/6 490/2/6
f 490/2/6 486/2/6 491/2/6
f 487/2/6 488/2/6 492/2/6
f 492/2/6 488/2/6 493/2/6
f 489/2/6 490/2/6 495/2/6
f 495/2/6 490/2/6 496/2/6
f 493/2/6 494/2/6 497/2/6
f 497/2/6 494/2/6 498/2/6
f 499/2/6 500/2/6 501/2/6
f 501/2/6 500/2/6 502/2/6
f 503/2/6 504/2/6 507/2/6
f 504/3/6 505/3/6 508/3/6
f 507/2/6 504/2/6 508/2/6
f 505/2/6 506/2/6 509/2/6
f 508/3/6 505/3/6 509/3/6
f 509/2/6 506/2/6 510/2/6
f 511/4/6 512/4/6 515/4/6
f 515/4/6 512/4/6 516/4/6
f 513/4/6 514/4/6 517/4/6
f 517/4/6 514/4/6 518/4/6
f 519/4/6 520/4/6 523/4/6
f 523/4/6 520/4/6 524/4/6
f 521/4/6 522/4/6 527/4/6
f 527/4/6 522/4/6 528/4/6
f 525/4/6 526/4/6 529/4/6
f 529/4/6 526/4/6 530/4/6
f 531/4/6 532/4/6 535/4/6
f 535/4/6 532/4/6 536/4/6
f 533/4/6 534/4/6 537/4/6
f 537/4/6 534/4/6 538/4/6
f 536/4/6 537/4/6 539/4/6
f 539/4/6 537/4/6 540/4/6
f 541/4/6 542/4/6 545/4/6
f 545/4/6 542/4/6 546/4/6
f 543/4/6 544/4/6 547/4/6
f 547/4/6 544/4/6 548/4/6
f 546/4/6 547/4/6 549/4/6
f 549/4/6 547/4/6 550/4/6
f 551/4/6 552/4/6 555/4/6
f 553/4/6 554/4/6 556/4/6
f 551/4/6 555/4/6 557/4/6
f 555/4/6 556/4/6 557/4/6
f 556/4/6 554/4/6 558/4/6
f 557/4/6 556/4/6 558/4/6
f 559/4/6 560/4/6 561/4/6
f 561/4/6 560/4/6 562/4/6
