# MagicaVoxel @ Ephtracy

# group
o 

# material
mtllib Levi Bottom.mtl
usemtl palette

# normals
vn -1 0 0
vn 1 0 0
vn 0 0 1
vn 0 0 -1
vn 0 -1 0
vn 0 1 0

# texcoords
vt 0.916016 0.5
vt 0.970703 0.5
vt 0.978516 0.5

# verts
v -0.4 0 0.2
v -0.4 0 -0.3
v -0.4 0.6 0.2
v -0.4 0.6 -0.3
v -0.3 0 0.3
v -0.3 0 0.2
v -0.3 0 -0.3
v -0.3 0 -0.4
v -0.3 0.6 0.3
v -0.3 0.6 0.2
v -0.3 0.6 -0.3
v -0.3 0.6 -0.4
v 0.3 0 0.3
v 0.3 0 0.2
v 0.3 0 -0.3
v 0.3 0 -0.4
v 0.3 0.6 0.3
v 0.3 0.6 0.2
v 0.3 0.6 -0.3
v 0.3 0.6 -0.4
v 0.4 0 0.2
v 0.4 0 -0.3
v 0.4 0.6 0.2
v 0.4 0.6 -0.3
v -0.3 0 0.3
v -0.3 0.6 0.3
v 0.3 0 0.3
v 0.3 0.6 0.3
v -0.4 0 0.2
v -0.4 0.6 0.2
v -0.3 0 0.2
v -0.3 0.6 0.2
v 0.3 0 0.2
v 0.3 0.6 0.2
v 0.4 0 0.2
v 0.4 0.6 0.2
v -0.4 0 -0.3
v -0.4 0.6 -0.3
v -0.3 0 -0.3
v -0.3 0.6 -0.3
v 0.3 0 -0.3
v 0.3 0.6 -0.3
v 0.4 0 -0.3
v 0.4 0.6 -0.3
v -0.3 0 -0.4
v -0.3 0.6 -0.4
v -0.2 0.2 -0.4
v -0.2 0.6 -0.4
v -0.1 0.1 -0.4
v -0.1 0.2 -0.4
v -0.1 0.6 -0.4
v 0.1 0.1 -0.4
v 0.1 0.2 -0.4
v 0.1 0.6 -0.4
v 0.2 0.2 -0.4
v 0.2 0.6 -0.4
v 0.3 0 -0.4
v 0.3 0.6 -0.4
v -0.3 0 0.3
v 0.3 0 0.3
v -0.4 0 0.2
v -0.3 0 0.2
v 0.3 0 0.2
v 0.4 0 0.2
v -0.4 0 -0.3
v -0.3 0 -0.3
v 0.3 0 -0.3
v 0.4 0 -0.3
v -0.3 0 -0.4
v 0.3 0 -0.4
v -0.3 0.6 0.3
v 0.3 0.6 0.3
v -0.4 0.6 0.2
v -0.3 0.6 0.2
v 0.3 0.6 0.2
v 0.4 0.6 0.2
v -0.4 0.6 -0.3
v -0.3 0.6 -0.3
v -0.2 0.6 -0.3
v -0.1 0.6 -0.3
v 0.1 0.6 -0.3
v 0.2 0.6 -0.3
v 0.3 0.6 -0.3
v 0.4 0.6 -0.3
v -0.3 0.6 -0.4
v -0.2 0.6 -0.4
v -0.1 0.6 -0.4
v 0.1 0.6 -0.4
v 0.2 0.6 -0.4
v 0.3 0.6 -0.4

# faces
f 3/2/1 2/2/1 1/2/1
f 4/2/1 2/2/1 3/2/1
f 9/2/1 6/2/1 5/2/1
f 10/2/1 6/2/1 9/2/1
f 11/2/1 8/2/1 7/2/1
f 12/2/1 8/2/1 11/2/1
f 13/2/2 14/2/2 17/2/2
f 17/2/2 14/2/2 18/2/2
f 15/2/2 16/2/2 19/2/2
f 19/2/2 16/2/2 20/2/2
f 21/2/2 22/2/2 23/2/2
f 23/2/2 22/2/2 24/2/2
f 27/2/3 26/2/3 25/2/3
f 28/2/3 26/2/3 27/2/3
f 31/2/3 30/2/3 29/2/3
f 32/2/3 30/2/3 31/2/3
f 35/2/3 34/2/3 33/2/3
f 36/2/3 34/2/3 35/2/3
f 37/2/4 38/2/4 39/2/4
f 39/2/4 38/2/4 40/2/4
f 41/2/4 42/2/4 43/2/4
f 43/2/4 42/2/4 44/2/4
f 45/2/4 46/2/4 47/2/4
f 47/2/4 46/2/4 48/2/4
f 45/2/4 47/2/4 49/2/4
f 47/1/4 48/1/4 50/1/4
f 49/2/4 47/2/4 50/2/4
f 50/1/4 48/1/4 51/1/4
f 45/2/4 49/2/4 52/2/4
f 49/1/4 50/1/4 52/1/4
f 50/3/4 51/3/4 53/3/4
f 52/1/4 50/1/4 53/1/4
f 53/3/4 51/3/4 54/3/4
f 52/2/4 53/2/4 55/2/4
f 53/1/4 54/1/4 55/1/4
f 55/1/4 54/1/4 56/1/4
f 45/2/4 52/2/4 57/2/4
f 52/2/4 55/2/4 57/2/4
f 55/2/4 56/2/4 57/2/4
f 57/2/4 56/2/4 58/2/4
f 62/2/5 60/2/5 59/2/5
f 63/2/5 60/2/5 62/2/5
f 65/2/5 62/2/5 61/2/5
f 65/2/5 64/2/5 63/2/5
f 65/2/5 63/2/5 62/2/5
f 66/2/5 64/2/5 65/2/5
f 67/2/5 64/2/5 66/2/5
f 68/2/5 64/2/5 67/2/5
f 69/2/5 67/2/5 66/2/5
f 70/2/5 67/2/5 69/2/5
f 71/2/6 72/2/6 74/2/6
f 74/2/6 72/2/6 75/2/6
f 73/2/6 74/2/6 77/2/6
f 75/2/6 76/2/6 77/2/6
f 74/2/6 75/2/6 77/2/6
f 77/2/6 76/2/6 78/2/6
f 78/2/6 76/2/6 79/2/6
f 79/2/6 76/2/6 80/2/6
f 80/2/6 76/2/6 81/2/6
f 81/2/6 76/2/6 82/2/6
f 82/2/6 76/2/6 83/2/6
f 83/2/6 76/2/6 84/2/6
f 78/2/6 79/2/6 85/2/6
f 79/1/6 80/1/6 86/1/6
f 85/2/6 79/2/6 86/2/6
f 80/3/6 81/3/6 87/3/6
f 86/1/6 80/1/6 87/1/6
f 81/1/6 82/1/6 88/1/6
f 87/3/6 81/3/6 88/3/6
f 82/2/6 83/2/6 89/2/6
f 88/1/6 82/1/6 89/1/6
f 89/2/6 83/2/6 90/2/6
