# MagicaVoxel @ Ephtracy

# group
o 

# material
mtllib Levi Head.mtl
usemtl palette

# normals
vn -1 0 0
vn 1 0 0
vn 0 0 1
vn 0 0 -1
vn 0 -1 0
vn 0 1 0

# texcoords
vt 0.916016 0.5
vt 0.939453 0.5
vt 0.947266 0.5
vt 0.970703 0.5
vt 0.974609 0.5
vt 0.978516 0.5
vt 0.986328 0.5

# verts
v -0.4 1.2 -0.1
v -0.4 1.2 -0.2
v -0.4 1.3 0.1
v -0.4 1.3 0
v -0.4 1.3 -0.1
v -0.4 1.4 0.4
v -0.4 1.4 0.3
v -0.4 1.4 0.2
v -0.4 1.4 0.1
v -0.4 1.4 0
v -0.4 1.4 -0.1
v -0.4 1.5 0.4
v -0.4 1.5 0.3
v -0.4 1.5 0.2
v -0.4 1.5 0.1
v -0.4 1.5 0
v -0.4 1.5 -0.1
v -0.4 1.5 -0.2
v -0.4 1.6 0.4
v -0.4 1.6 0.3
v -0.4 1.6 0.2
v -0.4 1.6 0.1
v -0.4 1.6 0
v -0.4 1.6 -0.2
v -0.4 1.7 0.4
v -0.4 1.7 0.3
v -0.4 1.7 0.2
v -0.4 1.7 0
v -0.3 1.2 0.1
v -0.3 1.2 0
v -0.3 1.2 -0.1
v -0.3 1.3 0.4
v -0.3 1.3 0.3
v -0.3 1.3 0.2
v -0.3 1.3 0.1
v -0.3 1.3 0
v -0.3 1.3 -0.1
v -0.3 1.4 0.7
v -0.3 1.4 0.4
v -0.3 1.4 0.3
v -0.3 1.4 0.2
v -0.3 1.4 0.1
v -0.3 1.5 0.7
v -0.3 1.5 0.6
v -0.3 1.5 0.4
v -0.3 1.6 0.7
v -0.3 1.6 0.6
v -0.3 1.6 0.4
v -0.3 1.6 0
v -0.3 1.6 -0.2
v -0.3 1.7 0.7
v -0.3 1.7 0.6
v -0.3 1.7 0.4
v -0.3 1.7 0.3
v -0.3 1.7 0.2
v -0.3 1.7 0.1
v -0.3 1.7 0
v -0.3 1.7 -0.2
v -0.3 1.8 0.4
v -0.3 1.8 0.1
v -0.3 1.9 0.7
v -0.3 1.9 0.6
v -0.2 1.2 0.4
v -0.2 1.2 0.1
v -0.2 1.3 0.9
v -0.2 1.3 0.4
v -0.2 1.3 0.3
v -0.2 1.3 0.2
v -0.2 1.3 0.1
v -0.2 1.4 0.9
v -0.2 1.4 0.7
v -0.2 1.4 0.4
v -0.2 1.6 0.8
v -0.2 1.6 0.7
v -0.2 1.6 0.6
v -0.2 1.7 0.8
v -0.2 1.7 0.7
v -0.2 1.7 0.6
v -0.2 1.7 0.4
v -0.2 1.7 0.1
v -0.2 1.7 -0.1
v -0.2 1.8 0.6
v -0.2 1.8 0.4
v -0.2 1.8 0.3
v -0.2 1.8 0.1
v -0.2 1.8 -0.1
v -0.2 1.9 0.3
v -0.2 1.9 0.1
v -0.1 1.3 1
v -0.1 1.3 0.9
v -0.1 1.4 0.9
v -0.1 1.5 1
v -0.1 1.5 0.9
v -0.1 1.7 0.8
v -0.1 1.7 0.7
v -0.1 1.7 0.6
v -0.1 1.7 -0.1
v -0.1 1.7 -0.2
v -0.1 1.8 0.8
v -0.1 1.8 0.7
v -0.1 1.8 0.6
v -0.1 1.8 0.4
v -0.1 1.8 0.3
v -0.1 1.8 0.1
v -0.1 1.8 0
v -0.1 1.8 -0.1
v -0.1 1.8 -0.2
v -0.1 1.9 0.4
v -0.1 1.9 0.3
v -0.1 1.9 0.1
v -0.1 1.9 0
v 0.1 1.4 0.6
v 0.1 1.4 0.4
v 0.1 1.4 0.3
v 0.1 1.6 0.8
v 0.1 1.6 0.6
v 0.1 1.6 0.3
v 0.1 1.7 0.8
v 0.1 1.7 0.7
v 0.1 1.7 0.6
v 0.2 1.4 0.7
v 0.2 1.4 0.6
v 0.2 1.5 0.7
v 0.2 1.5 0.6
v 0.2 1.6 0.7
v 0.2 1.6 0.6
v 0.2 1.7 0.7
v 0.2 1.7 0.6
v 0.2 1.8 0.6
v 0.2 1.9 0.7
v 0.2 1.9 0.6
v -0.2 1.4 0.7
v -0.2 1.4 0.6
v -0.2 1.5 0.7
v -0.2 1.5 0.6
v -0.2 1.6 0.7
v -0.2 1.6 0.6
v -0.2 1.7 0.7
v -0.2 1.7 0.6
v -0.2 1.8 0.6
v -0.2 1.9 0.7
v -0.2 1.9 0.6
v -0.1 1.4 0.6
v -0.1 1.4 0.4
v -0.1 1.4 0.3
v -0.1 1.6 0.8
v -0.1 1.6 0.6
v -0.1 1.6 0.3
v -0.1 1.7 0.8
v -0.1 1.7 0.7
v -0.1 1.7 0.6
v 0.1 1.3 1
v 0.1 1.3 0.9
v 0.1 1.4 0.9
v 0.1 1.5 1
v 0.1 1.5 0.9
v 0.1 1.7 0.8
v 0.1 1.7 0.7
v 0.1 1.7 0.6
v 0.1 1.7 -0.1
v 0.1 1.7 -0.2
v 0.1 1.8 0.8
v 0.1 1.8 0.7
v 0.1 1.8 0.6
v 0.1 1.8 0.4
v 0.1 1.8 0.3
v 0.1 1.8 0.1
v 0.1 1.8 0
v 0.1 1.8 -0.1
v 0.1 1.8 -0.2
v 0.1 1.9 0.4
v 0.1 1.9 0.3
v 0.1 1.9 0.1
v 0.1 1.9 0
v 0.2 1.2 0.4
v 0.2 1.2 0.1
v 0.2 1.3 0.9
v 0.2 1.3 0.4
v 0.2 1.3 0.3
v 0.2 1.3 0.2
v 0.2 1.3 0.1
v 0.2 1.4 0.9
v 0.2 1.4 0.7
v 0.2 1.4 0.4
v 0.2 1.6 0.8
v 0.2 1.6 0.7
v 0.2 1.6 0.6
v 0.2 1.7 0.8
v 0.2 1.7 0.7
v 0.2 1.7 0.6
v 0.2 1.7 0.4
v 0.2 1.7 0.1
v 0.2 1.7 -0.1
v 0.2 1.8 0.6
v 0.2 1.8 0.4
v 0.2 1.8 0.3
v 0.2 1.8 0.1
v 0.2 1.8 -0.1
v 0.2 1.9 0.3
v 0.2 1.9 0.1
v 0.3 1.2 0.1
v 0.3 1.2 0
v 0.3 1.2 -0.1
v 0.3 1.3 0.4
v 0.3 1.3 0.3
v 0.3 1.3 0.2
v 0.3 1.3 0.1
v 0.3 1.3 0
v 0.3 1.3 -0.1
v 0.3 1.4 0.7
v 0.3 1.4 0.4
v 0.3 1.4 0.3
v 0.3 1.4 0.2
v 0.3 1.4 0.1
v 0.3 1.5 0.7
v 0.3 1.5 0.6
v 0.3 1.5 0.4
v 0.3 1.6 0.7
v 0.3 1.6 0.6
v 0.3 1.6 0.4
v 0.3 1.6 0
v 0.3 1.6 -0.2
v 0.3 1.7 0.7
v 0.3 1.7 0.6
v 0.3 1.7 0.4
v 0.3 1.7 0.3
v 0.3 1.7 0.2
v 0.3 1.7 0.1
v 0.3 1.7 0
v 0.3 1.7 -0.2
v 0.3 1.8 0.4
v 0.3 1.8 0.1
v 0.3 1.9 0.7
v 0.3 1.9 0.6
v 0.4 1.2 -0.1
v 0.4 1.2 -0.2
v 0.4 1.3 0.1
v 0.4 1.3 0
v 0.4 1.3 -0.1
v 0.4 1.4 0.4
v 0.4 1.4 0.3
v 0.4 1.4 0.2
v 0.4 1.4 0.1
v 0.4 1.4 0
v 0.4 1.4 -0.1
v 0.4 1.5 0.4
v 0.4 1.5 0.3
v 0.4 1.5 0.2
v 0.4 1.5 0.1
v 0.4 1.5 0
v 0.4 1.5 -0.1
v 0.4 1.5 -0.2
v 0.4 1.6 0.4
v 0.4 1.6 0.3
v 0.4 1.6 0.2
v 0.4 1.6 0.1
v 0.4 1.6 0
v 0.4 1.6 -0.2
v 0.4 1.7 0.4
v 0.4 1.7 0.3
v 0.4 1.7 0.2
v 0.4 1.7 0
v -0.1 1.3 1
v -0.1 1.5 1
v 0.1 1.3 1
v 0.1 1.5 1
v -0.2 1.3 0.9
v -0.2 1.4 0.9
v -0.1 1.3 0.9
v -0.1 1.4 0.9
v 0.1 1.3 0.9
v 0.1 1.4 0.9
v 0.2 1.3 0.9
v 0.2 1.4 0.9
v -0.2 1.6 0.8
v -0.2 1.7 0.8
v -0.1 1.6 0.8
v -0.1 1.7 0.8
v -0.1 1.8 0.8
v 0.1 1.6 0.8
v 0.1 1.7 0.8
v 0.1 1.8 0.8
v 0.2 1.6 0.8
v 0.2 1.7 0.8
v -0.3 1.4 0.7
v -0.3 1.5 0.7
v -0.3 1.6 0.7
v -0.3 1.7 0.7
v -0.3 1.9 0.7
v -0.2 1.4 0.7
v -0.2 1.5 0.7
v -0.2 1.6 0.7
v -0.2 1.7 0.7
v -0.2 1.9 0.7
v 0.2 1.4 0.7
v 0.2 1.5 0.7
v 0.2 1.6 0.7
v 0.2 1.7 0.7
v 0.2 1.9 0.7
v 0.3 1.4 0.7
v 0.3 1.5 0.7
v 0.3 1.6 0.7
v 0.3 1.7 0.7
v 0.3 1.9 0.7
v -0.3 1.6 0.6
v -0.3 1.7 0.6
v -0.2 1.4 0.6
v -0.2 1.5 0.6
v -0.2 1.6 0.6
v -0.2 1.7 0.6
v -0.2 1.8 0.6
v -0.1 1.4 0.6
v -0.1 1.6 0.6
v -0.1 1.7 0.6
v -0.1 1.8 0.6
v 0.1 1.4 0.6
v 0.1 1.6 0.6
v 0.1 1.7 0.6
v 0.1 1.8 0.6
v 0.2 1.4 0.6
v 0.2 1.5 0.6
v 0.2 1.6 0.6
v 0.2 1.7 0.6
v 0.2 1.8 0.6
v 0.3 1.6 0.6
v 0.3 1.7 0.6
v -0.4 1.4 0.4
v -0.4 1.5 0.4
v -0.4 1.6 0.4
v -0.4 1.7 0.4
v -0.3 1.3 0.4
v -0.3 1.4 0.4
v -0.3 1.5 0.4
v -0.3 1.6 0.4
v -0.3 1.7 0.4
v -0.3 1.8 0.4
v -0.2 1.2 0.4
v -0.2 1.3 0.4
v -0.2 1.4 0.4
v -0.2 1.7 0.4
v -0.2 1.8 0.4
v -0.1 1.8 0.4
v -0.1 1.9 0.4
v 0.1 1.8 0.4
v 0.1 1.9 0.4
v 0.2 1.2 0.4
v 0.2 1.3 0.4
v 0.2 1.4 0.4
v 0.2 1.7 0.4
v 0.2 1.8 0.4
v 0.3 1.3 0.4
v 0.3 1.4 0.4
v 0.3 1.5 0.4
v 0.3 1.6 0.4
v 0.3 1.7 0.4
v 0.3 1.8 0.4
v 0.4 1.4 0.4
v 0.4 1.5 0.4
v 0.4 1.6 0.4
v 0.4 1.7 0.4
v -0.2 1.8 0.3
v -0.2 1.9 0.3
v -0.1 1.4 0.3
v -0.1 1.6 0.3
v -0.1 1.8 0.3
v -0.1 1.9 0.3
v 0.1 1.4 0.3
v 0.1 1.6 0.3
v 0.1 1.8 0.3
v 0.1 1.9 0.3
v 0.2 1.8 0.3
v 0.2 1.9 0.3
v -0.4 1.3 0.1
v -0.4 1.4 0.1
v -0.3 1.2 0.1
v -0.3 1.3 0.1
v -0.3 1.4 0.1
v -0.2 1.2 0.1
v -0.2 1.3 0.1
v 0.2 1.2 0.1
v 0.2 1.3 0.1
v 0.3 1.2 0.1
v 0.3 1.3 0.1
v 0.3 1.4 0.1
v 0.4 1.3 0.1
v 0.4 1.4 0.1
v -0.4 1.2 -0.1
v -0.4 1.3 -0.1
v -0.3 1.2 -0.1
v -0.3 1.3 -0.1
v 0.3 1.2 -0.1
v 0.3 1.3 -0.1
v 0.4 1.2 -0.1
v 0.4 1.3 -0.1
v -0.1 1.4 0.9
v -0.1 1.5 0.9
v 0.1 1.4 0.9
v 0.1 1.5 0.9
v -0.3 1.7 0.6
v -0.3 1.9 0.6
v -0.2 1.7 0.6
v -0.2 1.8 0.6
v -0.2 1.9 0.6
v 0.2 1.7 0.6
v 0.2 1.8 0.6
v 0.2 1.9 0.6
v 0.3 1.7 0.6
v 0.3 1.9 0.6
v -0.3 1.7 0.1
v -0.3 1.8 0.1
v -0.2 1.7 0.1
v -0.2 1.8 0.1
v -0.2 1.9 0.1
v -0.1 1.8 0.1
v -0.1 1.9 0.1
v 0.1 1.8 0.1
v 0.1 1.9 0.1
v 0.2 1.7 0.1
v 0.2 1.8 0.1
v 0.2 1.9 0.1
v 0.3 1.7 0.1
v 0.3 1.8 0.1
v -0.4 1.6 0
v -0.4 1.7 0
v -0.3 1.6 0
v -0.3 1.7 0
v -0.1 1.8 0
v -0.1 1.9 0
v 0.1 1.8 0
v 0.1 1.9 0
v 0.3 1.6 0
v 0.3 1.7 0
v 0.4 1.6 0
v 0.4 1.7 0
v -0.2 1.7 -0.1
v -0.2 1.8 -0.1
v -0.1 1.7 -0.1
v -0.1 1.8 -0.1
v 0.1 1.7 -0.1
v 0.1 1.8 -0.1
v 0.2 1.7 -0.1
v 0.2 1.8 -0.1
v -0.4 1.2 -0.2
v -0.4 1.5 -0.2
v -0.4 1.6 -0.2
v -0.3 1.2 -0.2
v -0.3 1.5 -0.2
v -0.3 1.6 -0.2
v -0.3 1.7 -0.2
v -0.1 1.7 -0.2
v -0.1 1.8 -0.2
v 0.1 1.7 -0.2
v 0.1 1.8 -0.2
v 0.3 1.2 -0.2
v 0.3 1.5 -0.2
v 0.3 1.6 -0.2
v 0.3 1.7 -0.2
v 0.4 1.2 -0.2
v 0.4 1.5 -0.2
v 0.4 1.6 -0.2
v -0.2 1.2 0.4
v 0.2 1.2 0.4
v -0.3 1.2 0.1
v -0.2 1.2 0.1
v 0.2 1.2 0.1
v 0.3 1.2 0.1
v -0.3 1.2 0
v -0.2 1.2 0
v 0.2 1.2 0
v 0.3 1.2 0
v -0.4 1.2 -0.1
v -0.3 1.2 -0.1
v 0.3 1.2 -0.1
v 0.4 1.2 -0.1
v -0.4 1.2 -0.2
v -0.3 1.2 -0.2
v 0.3 1.2 -0.2
v 0.4 1.2 -0.2
v -0.1 1.3 1
v 0.1 1.3 1
v -0.2 1.3 0.9
v -0.1 1.3 0.9
v 0.1 1.3 0.9
v 0.2 1.3 0.9
v -0.3 1.3 0.4
v -0.2 1.3 0.4
v 0.2 1.3 0.4
v 0.3 1.3 0.4
v -0.3 1.3 0.3
v -0.2 1.3 0.3
v 0.2 1.3 0.3
v 0.3 1.3 0.3
v -0.3 1.3 0.2
v -0.2 1.3 0.2
v 0.2 1.3 0.2
v 0.3 1.3 0.2
v -0.4 1.3 0.1
v -0.3 1.3 0.1
v -0.2 1.3 0.1
v 0.2 1.3 0.1
v 0.3 1.3 0.1
v 0.4 1.3 0.1
v -0.4 1.3 0
v -0.3 1.3 0
v 0.3 1.3 0
v 0.4 1.3 0
v -0.4 1.3 -0.1
v -0.3 1.3 -0.1
v 0.3 1.3 -0.1
v 0.4 1.3 -0.1
v -0.3 1.4 0.7
v -0.2 1.4 0.7
v 0.2 1.4 0.7
v 0.3 1.4 0.7
v -0.4 1.4 0.4
v -0.3 1.4 0.4
v -0.2 1.4 0.4
v 0.2 1.4 0.4
v 0.3 1.4 0.4
v 0.4 1.4 0.4
v -0.4 1.4 0.3
v -0.3 1.4 0.3
v 0.3 1.4 0.3
v 0.4 1.4 0.3
v -0.4 1.4 0.2
v -0.3 1.4 0.2
v 0.3 1.4 0.2
v 0.4 1.4 0.2
v -0.4 1.4 0.1
v -0.3 1.4 0.1
v 0.3 1.4 0.1
v 0.4 1.4 0.1
v -0.2 1.6 0.8
v -0.1 1.6 0.8
v 0.1 1.6 0.8
v 0.2 1.6 0.8
v -0.2 1.6 0.7
v 0.2 1.6 0.7
v -0.2 1.6 0.6
v -0.1 1.6 0.6
v 0.1 1.6 0.6
v 0.2 1.6 0.6
v -0.1 1.6 0.3
v 0.1 1.6 0.3
v -0.1 1.7 0.8
v 0.1 1.7 0.8
v -0.3 1.7 0.7
v -0.2 1.7 0.7
v -0.1 1.7 0.7
v 0.1 1.7 0.7
v 0.2 1.7 0.7
v 0.3 1.7 0.7
v -0.3 1.7 0.6
v -0.2 1.7 0.6
v -0.1 1.7 0.6
v 0.1 1.7 0.6
v 0.2 1.7 0.6
v 0.3 1.7 0.6
v -0.2 1.4 0.9
v -0.1 1.4 0.9
v 0.1 1.4 0.9
v 0.2 1.4 0.9
v -0.2 1.4 0.7
v 0.2 1.4 0.7
v -0.2 1.4 0.6
v -0.1 1.4 0.6
v 0.1 1.4 0.6
v 0.2 1.4 0.6
v -0.1 1.4 0.4
v 0.1 1.4 0.4
v -0.1 1.4 0.3
v 0.1 1.4 0.3
v -0.1 1.5 1
v 0.1 1.5 1
v -0.1 1.5 0.9
v 0.1 1.5 0.9
v -0.3 1.6 0.7
v -0.2 1.6 0.7
v 0.2 1.6 0.7
v 0.3 1.6 0.7
v -0.3 1.6 0.6
v -0.2 1.6 0.6
v 0.2 1.6 0.6
v 0.3 1.6 0.6
v -0.4 1.6 0
v -0.3 1.6 0
v 0.3 1.6 0
v 0.4 1.6 0
v -0.4 1.6 -0.2
v -0.3 1.6 -0.2
v 0.3 1.6 -0.2
v 0.4 1.6 -0.2
v -0.2 1.7 0.8
v -0.1 1.7 0.8
v 0.1 1.7 0.8
v 0.2 1.7 0.8
v -0.2 1.7 0.7
v -0.1 1.7 0.7
v 0.1 1.7 0.7
v 0.2 1.7 0.7
v -0.3 1.7 0.6
v -0.2 1.7 0.6
v -0.1 1.7 0.6
v 0.1 1.7 0.6
v 0.2 1.7 0.6
v 0.3 1.7 0.6
v -0.4 1.7 0.4
v -0.3 1.7 0.4
v -0.2 1.7 0.4
v 0.2 1.7 0.4
v 0.3 1.7 0.4
v 0.4 1.7 0.4
v -0.4 1.7 0.3
v -0.3 1.7 0.3
v 0.3 1.7 0.3
v 0.4 1.7 0.3
v -0.4 1.7 0.2
v -0.3 1.7 0.2
v 0.3 1.7 0.2
v 0.4 1.7 0.2
v -0.3 1.7 0.1
v -0.2 1.7 0.1
v 0.2 1.7 0.1
v 0.3 1.7 0.1
v -0.4 1.7 0
v -0.3 1.7 0
v 0.3 1.7 0
v 0.4 1.7 0
v -0.2 1.7 -0.1
v -0.1 1.7 -0.1
v 0.1 1.7 -0.1
v 0.2 1.7 -0.1
v -0.3 1.7 -0.2
v -0.1 1.7 -0.2
v 0.1 1.7 -0.2
v 0.3 1.7 -0.2
v -0.1 1.8 0.8
v 0.1 1.8 0.8
v -0.1 1.8 0.7
v 0.1 1.8 0.7
v -0.2 1.8 0.6
v -0.1 1.8 0.6
v 0.1 1.8 0.6
v 0.2 1.8 0.6
v -0.3 1.8 0.4
v -0.2 1.8 0.4
v -0.1 1.8 0.4
v 0.1 1.8 0.4
v 0.2 1.8 0.4
v 0.3 1.8 0.4
v -0.2 1.8 0.3
v -0.1 1.8 0.3
v 0.1 1.8 0.3
v 0.2 1.8 0.3
v -0.3 1.8 0.1
v -0.2 1.8 0.1
v -0.1 1.8 0.1
v 0.1 1.8 0.1
v 0.2 1.8 0.1
v 0.3 1.8 0.1
v -0.1 1.8 0
v 0.1 1.8 0
v -0.2 1.8 -0.1
v -0.1 1.8 -0.1
v 0.1 1.8 -0.1
v 0.2 1.8 -0.1
v -0.1 1.8 -0.2
v 0.1 1.8 -0.2
v -0.3 1.9 0.7
v -0.2 1.9 0.7
v 0.2 1.9 0.7
v 0.3 1.9 0.7
v -0.3 1.9 0.6
v -0.2 1.9 0.6
v 0.2 1.9 0.6
v 0.3 1.9 0.6
v -0.1 1.9 0.4
v 0.1 1.9 0.4
v -0.2 1.9 0.3
v -0.1 1.9 0.3
v 0.1 1.9 0.3
v 0.2 1.9 0.3
v -0.2 1.9 0.1
v -0.1 1.9 0.1
v 0.1 1.9 0.1
v 0.2 1.9 0.1
v -0.1 1.9 0
v 0.1 1.9 0

# faces
f 5/2/1 2/2/1 1/2/1
f 9/2/1 4/2/1 3/2/1
f 10/4/1 5/4/1 4/4/1
f 10/2/1 4/2/1 9/2/1
f 11/2/1 2/2/1 5/2/1
f 11/4/1 5/4/1 10/4/1
f 12/4/1 7/4/1 6/4/1
f 13/2/1 8/2/1 7/2/1
f 13/4/1 7/4/1 12/4/1
f 14/4/1 9/4/1 8/4/1
f 14/2/1 8/2/1 13/2/1
f 15/2/1 10/2/1 9/2/1
f 15/4/1 9/4/1 14/4/1
f 16/1/1 11/1/1 10/1/1
f 16/2/1 10/2/1 15/2/1
f 17/2/1 2/2/1 11/2/1
f 17/1/1 11/1/1 16/1/1
f 18/2/1 2/2/1 17/2/1
f 19/1/1 13/1/1 12/1/1
f 20/2/1 14/2/1 13/2/1
f 20/1/1 13/1/1 19/1/1
f 21/1/1 15/1/1 14/1/1
f 21/2/1 14/2/1 20/2/1
f 22/2/1 16/2/1 15/2/1
f 22/1/1 15/1/1 21/1/1
f 23/6/1 17/6/1 16/6/1
f 23/2/1 16/2/1 22/2/1
f 23/6/1 18/6/1 17/6/1
f 24/6/1 18/6/1 23/6/1
f 25/6/1 20/6/1 19/6/1
f 26/2/1 21/2/1 20/2/1
f 26/6/1 20/6/1 25/6/1
f 27/6/1 22/6/1 21/6/1
f 27/2/1 21/2/1 26/2/1
f 27/6/1 23/6/1 22/6/1
f 28/6/1 23/6/1 27/6/1
f 35/2/1 30/2/1 29/2/1
f 36/5/1 31/5/1 30/5/1
f 36/2/1 30/2/1 35/2/1
f 37/5/1 31/5/1 36/5/1
f 39/5/1 33/5/1 32/5/1
f 40/2/1 34/2/1 33/2/1
f 40/5/1 33/5/1 39/5/1
f 41/5/1 35/5/1 34/5/1
f 41/2/1 34/2/1 40/2/1
f 42/5/1 35/5/1 41/5/1
f 43/5/1 39/5/1 38/5/1
f 44/5/1 39/5/1 43/5/1
f 45/5/1 39/5/1 44/5/1
f 46/3/1 44/3/1 43/3/1
f 47/1/1 45/1/1 44/1/1
f 47/3/1 44/3/1 46/3/1
f 48/1/1 45/1/1 47/1/1
f 52/6/1 48/6/1 47/6/1
f 53/6/1 48/6/1 52/6/1
f 57/6/1 50/6/1 49/6/1
f 58/6/1 50/6/1 57/6/1
f 59/6/1 56/6/1 55/6/1
f 59/6/1 54/6/1 53/6/1
f 59/6/1 55/6/1 54/6/1
f 60/6/1 56/6/1 59/6/1
f 61/7/1 52/7/1 51/7/1
f 62/7/1 52/7/1 61/7/1
f 66/5/1 64/5/1 63/5/1
f 67/5/1 64/5/1 66/5/1
f 68/5/1 64/5/1 67/5/1
f 69/5/1 64/5/1 68/5/1
f 70/5/1 66/5/1 65/5/1
f 71/5/1 66/5/1 70/5/1
f 72/5/1 66/5/1 71/5/1
f 76/3/1 74/3/1 73/3/1
f 76/3/1 75/3/1 74/3/1
f 77/3/1 75/3/1 76/3/1
f 78/3/1 75/3/1 77/3/1
f 82/6/1 79/6/1 78/6/1
f 83/6/1 79/6/1 82/6/1
f 85/6/1 81/6/1 80/6/1
f 86/6/1 81/6/1 85/6/1
f 87/6/1 85/6/1 84/6/1
f 88/6/1 85/6/1 87/6/1
f 91/5/1 90/5/1 89/5/1
f 92/5/1 91/5/1 89/5/1
f 93/5/1 91/5/1 92/5/1
f 99/3/1 95/3/1 94/3/1
f 100/6/1 96/6/1 95/6/1
f 100/3/1 95/3/1 99/3/1
f 101/6/1 96/6/1 100/6/1
f 106/6/1 98/6/1 97/6/1
f 107/6/1 98/6/1 106/6/1
f 108/6/1 103/6/1 102/6/1
f 109/6/1 103/6/1 108/6/1
f 110/6/1 105/6/1 104/6/1
f 111/6/1 105/6/1 110/6/1
f 116/4/1 113/4/1 112/4/1
f 116/4/1 114/4/1 113/4/1
f 117/4/1 114/4/1 116/4/1
f 118/3/1 116/3/1 115/3/1
f 119/3/1 116/3/1 118/3/1
f 120/3/1 116/3/1 119/3/1
f 123/5/1 122/5/1 121/5/1
f 124/5/1 122/5/1 123/5/1
f 125/3/1 124/3/1 123/3/1
f 126/3/1 124/3/1 125/3/1
f 129/7/1 128/7/1 127/7/1
f 130/7/1 129/7/1 127/7/1
f 131/7/1 129/7/1 130/7/1
f 132/5/2 133/5/2 134/5/2
f 134/5/2 133/5/2 135/5/2
f 134/3/2 135/3/2 136/3/2
f 136/3/2 135/3/2 137/3/2
f 138/7/2 139/7/2 140/7/2
f 138/7/2 140/7/2 141/7/2
f 141/7/2 140/7/2 142/7/2
f 143/4/2 144/4/2 147/4/2
f 144/4/2 145/4/2 147/4/2
f 147/4/2 145/4/2 148/4/2
f 146/3/2 147/3/2 149/3/2
f 149/3/2 147/3/2 150/3/2
f 150/3/2 147/3/2 151/3/2
f 152/5/2 153/5/2 154/5/2
f 152/5/2 154/5/2 155/5/2
f 155/5/2 154/5/2 156/5/2
f 157/3/2 158/3/2 162/3/2
f 158/6/2 159/6/2 163/6/2
f 162/3/2 158/3/2 163/3/2
f 163/6/2 159/6/2 164/6/2
f 160/6/2 161/6/2 169/6/2
f 169/6/2 161/6/2 170/6/2
f 165/6/2 166/6/2 171/6/2
f 171/6/2 166/6/2 172/6/2
f 167/6/2 168/6/2 173/6/2
f 173/6/2 168/6/2 174/6/2
f 175/5/2 176/5/2 178/5/2
f 178/5/2 176/5/2 179/5/2
f 179/5/2 176/5/2 180/5/2
f 180/5/2 176/5/2 181/5/2
f 177/5/2 178/5/2 182/5/2
f 182/5/2 178/5/2 183/5/2
f 183/5/2 178/5/2 184/5/2
f 185/3/2 186/3/2 188/3/2
f 186/3/2 187/3/2 188/3/2
f 188/3/2 187/3/2 189/3/2
f 189/3/2 187/3/2 190/3/2
f 190/6/2 191/6/2 194/6/2
f 194/6/2 191/6/2 195/6/2
f 192/6/2 193/6/2 197/6/2
f 197/6/2 193/6/2 198/6/2
f 196/6/2 197/6/2 199/6/2
f 199/6/2 197/6/2 200/6/2
f 201/2/2 202/2/2 207/2/2
f 202/5/2 203/5/2 208/5/2
f 207/2/2 202/2/2 208/2/2
f 208/5/2 203/5/2 209/5/2
f 204/5/2 205/5/2 211/5/2
f 205/2/2 206/2/2 212/2/2
f 211/5/2 205/5/2 212/5/2
f 206/5/2 207/5/2 213/5/2
f 212/2/2 206/2/2 213/2/2
f 213/5/2 207/5/2 214/5/2
f 210/5/2 211/5/2 215/5/2
f 215/5/2 211/5/2 216/5/2
f 216/5/2 211/5/2 217/5/2
f 215/3/2 216/3/2 218/3/2
f 216/1/2 217/1/2 219/1/2
f 218/3/2 216/3/2 219/3/2
f 219/1/2 217/1/2 220/1/2
f 219/6/2 220/6/2 224/6/2
f 224/6/2 220/6/2 225/6/2
f 221/6/2 222/6/2 229/6/2
f 229/6/2 222/6/2 230/6/2
f 227/6/2 228/6/2 231/6/2
f 225/6/2 226/6/2 231/6/2
f 226/6/2 227/6/2 231/6/2
f 231/6/2 228/6/2 232/6/2
f 223/7/2 224/7/2 233/7/2
f 233/7/2 224/7/2 234/7/2
f 235/2/2 236/2/2 239/2/2
f 237/2/2 238/2/2 243/2/2
f 238/4/2 239/4/2 244/4/2
f 243/2/2 238/2/2 244/2/2
f 239/2/2 236/2/2 245/2/2
f 244/4/2 239/4/2 245/4/2
f 240/4/2 241/4/2 246/4/2
f 241/2/2 242/2/2 247/2/2
f 246/4/2 241/4/2 247/4/2
f 242/4/2 243/4/2 248/4/2
f 247/2/2 242/2/2 248/2/2
f 243/2/2 244/2/2 249/2/2
f 248/4/2 243/4/2 249/4/2
f 244/1/2 245/1/2 250/1/2
f 249/2/2 244/2/2 250/2/2
f 245/2/2 236/2/2 251/2/2
f 250/1/2 245/1/2 251/1/2
f 251/2/2 236/2/2 252/2/2
f 246/1/2 247/1/2 253/1/2
f 247/2/2 248/2/2 254/2/2
f 253/1/2 247/1/2 254/1/2
f 248/1/2 249/1/2 255/1/2
f 254/2/2 248/2/2 255/2/2
f 249/2/2 250/2/2 256/2/2
f 255/1/2 249/1/2 256/1/2
f 250/6/2 251/6/2 257/6/2
f 256/2/2 250/2/2 257/2/2
f 251/6/2 252/6/2 257/6/2
f 257/6/2 252/6/2 258/6/2
f 253/6/2 254/6/2 259/6/2
f 254/2/2 255/2/2 260/2/2
f 259/6/2 254/6/2 260/6/2
f 255/6/2 256/6/2 261/6/2
f 260/2/2 255/2/2 261/2/2
f 256/6/2 257/6/2 261/6/2
f 261/6/2 257/6/2 262/6/2
f 265/5/3 264/5/3 263/5/3
f 266/5/3 264/5/3 265/5/3
f 269/5/3 268/5/3 267/5/3
f 270/5/3 268/5/3 269/5/3
f 273/5/3 272/5/3 271/5/3
f 274/5/3 272/5/3 273/5/3
f 277/3/3 276/3/3 275/3/3
f 278/3/3 276/3/3 277/3/3
f 281/3/3 279/3/3 278/3/3
f 282/3/3 279/3/3 281/3/3
f 283/3/3 281/3/3 280/3/3
f 284/3/3 281/3/3 283/3/3
f 290/5/3 286/5/3 285/5/3
f 291/3/3 287/3/3 286/3/3
f 291/5/3 286/5/3 290/5/3
f 292/3/3 287/3/3 291/3/3
f 293/7/3 289/7/3 288/7/3
f 294/7/3 289/7/3 293/7/3
f 300/5/3 296/5/3 295/5/3
f 301/3/3 297/3/3 296/3/3
f 301/5/3 296/5/3 300/5/3
f 302/3/3 297/3/3 301/3/3
f 303/7/3 299/7/3 298/7/3
f 304/7/3 299/7/3 303/7/3
f 309/6/3 306/6/3 305/6/3
f 310/6/3 306/6/3 309/6/3
f 312/4/3 308/4/3 307/4/3
f 312/4/3 309/4/3 308/4/3
f 313/4/3 309/4/3 312/4/3
f 314/6/3 311/6/3 310/6/3
f 315/6/3 311/6/3 314/6/3
f 317/4/3 314/4/3 313/4/3
f 318/4/3 314/4/3 317/4/3
f 320/4/3 317/4/3 316/4/3
f 321/4/3 317/4/3 320/4/3
f 322/4/3 317/4/3 321/4/3
f 323/6/3 319/6/3 318/6/3
f 324/6/3 319/6/3 323/6/3
f 325/6/3 323/6/3 322/6/3
f 326/6/3 323/6/3 325/6/3
f 332/4/3 328/4/3 327/4/3
f 333/1/3 329/1/3 328/1/3
f 333/4/3 328/4/3 332/4/3
f 334/6/3 330/6/3 329/6/3
f 334/1/3 329/1/3 333/1/3
f 335/6/3 330/6/3 334/6/3
f 338/5/3 332/5/3 331/5/3
f 339/5/3 332/5/3 338/5/3
f 340/6/3 336/6/3 335/6/3
f 341/6/3 336/6/3 340/6/3
f 344/6/3 343/6/3 342/6/3
f 345/6/3 343/6/3 344/6/3
f 346/5/3 338/5/3 337/5/3
f 347/5/3 338/5/3 346/5/3
f 351/5/3 348/5/3 347/5/3
f 352/5/3 348/5/3 351/5/3
f 355/6/3 350/6/3 349/6/3
f 356/6/3 350/6/3 355/6/3
f 357/4/3 353/4/3 352/4/3
f 358/1/3 354/1/3 353/1/3
f 358/4/3 353/4/3 357/4/3
f 359/6/3 355/6/3 354/6/3
f 359/1/3 354/1/3 358/1/3
f 360/6/3 355/6/3 359/6/3
f 365/6/3 362/6/3 361/6/3
f 366/6/3 362/6/3 365/6/3
f 367/1/3 364/1/3 363/1/3
f 368/1/3 364/1/3 367/1/3
f 371/6/3 370/6/3 369/6/3
f 372/6/3 370/6/3 371/6/3
f 376/2/3 374/2/3 373/2/3
f 377/2/3 374/2/3 376/2/3
f 378/2/3 376/2/3 375/2/3
f 379/2/3 376/2/3 378/2/3
f 382/2/3 381/2/3 380/2/3
f 383/2/3 381/2/3 382/2/3
f 385/2/3 384/2/3 383/2/3
f 386/2/3 384/2/3 385/2/3
f 389/2/3 388/2/3 387/2/3
f 390/2/3 388/2/3 389/2/3
f 393/2/3 392/2/3 391/2/3
f 394/2/3 392/2/3 393/2/3
f 395/5/4 396/5/4 397/5/4
f 397/5/4 396/5/4 398/5/4
f 399/7/4 400/7/4 401/7/4
f 401/7/4 400/7/4 402/7/4
f 402/7/4 400/7/4 403/7/4
f 404/7/4 405/7/4 407/7/4
f 405/7/4 406/7/4 407/7/4
f 407/7/4 406/7/4 408/7/4
f 409/6/4 410/6/4 411/6/4
f 411/6/4 410/6/4 412/6/4
f 412/6/4 413/6/4 414/6/4
f 414/6/4 413/6/4 415/6/4
f 416/6/4 417/6/4 419/6/4
f 419/6/4 417/6/4 420/6/4
f 418/6/4 419/6/4 421/6/4
f 421/6/4 419/6/4 422/6/4
f 423/6/4 424/6/4 425/6/4
f 425/6/4 424/6/4 426/6/4
f 427/6/4 428/6/4 429/6/4
f 429/6/4 428/6/4 430/6/4
f 431/6/4 432/6/4 433/6/4
f 433/6/4 432/6/4 434/6/4
f 435/6/4 436/6/4 437/6/4
f 437/6/4 436/6/4 438/6/4
f 439/6/4 440/6/4 441/6/4
f 441/6/4 440/6/4 442/6/4
f 443/2/4 444/2/4 446/2/4
f 444/6/4 445/6/4 447/6/4
f 446/2/4 444/2/4 447/2/4
f 447/6/4 445/6/4 448/6/4
f 448/6/4 449/6/4 450/6/4
f 448/6/4 450/6/4 452/6/4
f 450/6/4 451/6/4 452/6/4
f 452/6/4 451/6/4 453/6/4
f 446/4/4 447/4/4 454/4/4
f 447/4/4 448/4/4 454/4/4
f 454/4/4 448/4/4 455/4/4
f 448/6/4 452/6/4 456/6/4
f 455/4/4 448/4/4 456/4/4
f 456/6/4 452/6/4 457/6/4
f 454/2/4 455/2/4 458/2/4
f 455/6/4 456/6/4 459/6/4
f 458/2/4 455/2/4 459/2/4
f 459/6/4 456/6/4 460/6/4
f 464/5/5 462/5/5 461/5/5
f 465/5/5 462/5/5 464/5/5
f 467/2/5 464/2/5 463/2/5
f 468/5/5 465/5/5 464/5/5
f 468/2/5 464/2/5 467/2/5
f 469/2/5 466/2/5 465/2/5
f 469/5/5 465/5/5 468/5/5
f 470/2/5 466/2/5 469/2/5
f 472/5/5 468/5/5 467/5/5
f 472/5/5 469/5/5 468/5/5
f 472/5/5 470/5/5 469/5/5
f 473/5/5 470/5/5 472/5/5
f 475/2/5 472/2/5 471/2/5
f 476/4/5 473/4/5 472/4/5
f 476/2/5 472/2/5 475/2/5
f 477/2/5 474/2/5 473/2/5
f 477/4/5 473/4/5 476/4/5
f 478/2/5 474/2/5 477/2/5
f 482/5/5 480/5/5 479/5/5
f 483/5/5 480/5/5 482/5/5
f 486/5/5 482/5/5 481/5/5
f 486/5/5 484/5/5 483/5/5
f 486/5/5 483/5/5 482/5/5
f 487/5/5 484/5/5 486/5/5
f 489/5/5 486/5/5 485/5/5
f 490/5/5 486/5/5 489/5/5
f 491/5/5 488/5/5 487/5/5
f 492/5/5 488/5/5 491/5/5
f 493/2/5 490/2/5 489/2/5
f 494/2/5 490/2/5 493/2/5
f 495/2/5 492/2/5 491/2/5
f 496/2/5 492/2/5 495/2/5
f 498/5/5 494/5/5 493/5/5
f 499/5/5 494/5/5 498/5/5
f 500/5/5 496/5/5 495/5/5
f 501/5/5 496/5/5 500/5/5
f 503/2/5 498/2/5 497/2/5
f 504/2/5 498/2/5 503/2/5
f 505/2/5 502/2/5 501/2/5
f 506/2/5 502/2/5 505/2/5
f 507/4/5 504/4/5 503/4/5
f 508/4/5 504/4/5 507/4/5
f 509/4/5 506/4/5 505/4/5
f 510/4/5 506/4/5 509/4/5
f 516/5/5 512/5/5 511/5/5
f 517/5/5 512/5/5 516/5/5
f 518/5/5 514/5/5 513/5/5
f 519/5/5 514/5/5 518/5/5
f 521/4/5 516/4/5 515/4/5
f 522/4/5 516/4/5 521/4/5
f 523/4/5 520/4/5 519/4/5
f 524/4/5 520/4/5 523/4/5
f 525/2/5 522/2/5 521/2/5
f 526/2/5 522/2/5 525/2/5
f 527/2/5 524/2/5 523/2/5
f 528/2/5 524/2/5 527/2/5
f 529/4/5 526/4/5 525/4/5
f 530/4/5 526/4/5 529/4/5
f 531/4/5 528/4/5 527/4/5
f 532/4/5 528/4/5 531/4/5
f 537/3/5 534/3/5 533/3/5
f 538/3/5 536/3/5 535/3/5
f 539/3/5 534/3/5 537/3/5
f 540/3/5 534/3/5 539/3/5
f 541/3/5 538/3/5 535/3/5
f 542/3/5 538/3/5 541/3/5
f 543/4/5 541/4/5 540/4/5
f 544/4/5 541/4/5 543/4/5
f 549/3/5 546/3/5 545/3/5
f 550/3/5 546/3/5 549/3/5
f 553/7/5 548/7/5 547/7/5
f 554/7/5 548/7/5 553/7/5
f 555/6/5 550/6/5 549/6/5
f 556/6/5 550/6/5 555/6/5
f 557/7/5 552/7/5 551/7/5
f 558/7/5 552/7/5 557/7/5
f 559/5/6 560/5/6 563/5/6
f 561/5/6 562/5/6 563/5/6
f 560/5/6 561/5/6 563/5/6
f 563/5/6 562/5/6 564/5/6
f 563/5/6 564/5/6 565/5/6
f 565/5/6 564/5/6 566/5/6
f 566/5/6 564/5/6 567/5/6
f 567/5/6 564/5/6 568/5/6
f 566/5/6 567/5/6 569/5/6
f 569/5/6 567/5/6 570/5/6
f 569/4/6 570/4/6 571/4/6
f 571/4/6 570/4/6 572/4/6
f 573/5/6 574/5/6 575/5/6
f 575/5/6 574/5/6 576/5/6
f 577/3/6 578/3/6 581/3/6
f 581/3/6 578/3/6 582/3/6
f 579/3/6 580/3/6 583/3/6
f 583/3/6 580/3/6 584/3/6
f 585/6/6 586/6/6 589/6/6
f 589/6/6 586/6/6 590/6/6
f 587/6/6 588/6/6 591/6/6
f 591/6/6 588/6/6 592/6/6
f 593/3/6 594/3/6 597/3/6
f 597/3/6 594/3/6 598/3/6
f 595/3/6 596/3/6 599/3/6
f 599/3/6 596/3/6 600/3/6
f 597/3/6 598/3/6 602/3/6
f 602/3/6 598/3/6 603/3/6
f 599/3/6 600/3/6 604/3/6
f 604/3/6 600/3/6 605/3/6
f 601/6/6 602/6/6 608/6/6
f 608/6/6 602/6/6 609/6/6
f 605/6/6 606/6/6 610/6/6
f 610/6/6 606/6/6 611/6/6
f 607/6/6 608/6/6 613/6/6
f 613/6/6 608/6/6 614/6/6
f 611/6/6 612/6/6 615/6/6
f 615/6/6 612/6/6 616/6/6
f 613/2/6 614/2/6 617/2/6
f 617/2/6 614/2/6 618/2/6
f 615/2/6 616/2/6 619/2/6
f 619/2/6 616/2/6 620/2/6
f 617/6/6 618/6/6 621/6/6
f 619/6/6 620/6/6 624/6/6
f 621/6/6 622/6/6 625/6/6
f 617/6/6 621/6/6 625/6/6
f 625/6/6 622/6/6 626/6/6
f 623/6/6 624/6/6 627/6/6
f 624/6/6 620/6/6 627/6/6
f 627/6/6 620/6/6 628/6/6
f 626/6/6 622/6/6 629/6/6
f 623/6/6 627/6/6 632/6/6
f 629/6/6 630/6/6 633/6/6
f 626/6/6 629/6/6 633/6/6
f 633/6/6 630/6/6 634/6/6
f 631/6/6 632/6/6 635/6/6
f 632/6/6 627/6/6 636/6/6
f 635/6/6 632/6/6 636/6/6
f 637/3/6 638/3/6 639/3/6
f 639/3/6 638/3/6 640/3/6
f 639/6/6 640/6/6 642/6/6
f 642/6/6 640/6/6 643/6/6
f 642/6/6 643/6/6 646/6/6
f 643/6/6 644/6/6 646/6/6
f 641/6/6 642/6/6 646/6/6
f 646/6/6 644/6/6 647/6/6
f 647/6/6 644/6/6 648/6/6
f 648/6/6 644/6/6 649/6/6
f 645/6/6 646/6/6 651/6/6
f 646/6/6 647/6/6 651/6/6
f 651/6/6 647/6/6 652/6/6
f 649/6/6 650/6/6 653/6/6
f 648/6/6 649/6/6 653/6/6
f 653/6/6 650/6/6 654/6/6
f 645/6/6 651/6/6 655/6/6
f 655/6/6 651/6/6 656/6/6
f 654/6/6 650/6/6 659/6/6
f 659/6/6 650/6/6 660/6/6
f 656/6/6 657/6/6 661/6/6
f 658/6/6 659/6/6 662/6/6
f 656/6/6 661/6/6 663/6/6
f 661/6/6 662/6/6 663/6/6
f 663/6/6 662/6/6 664/6/6
f 662/6/6 659/6/6 665/6/6
f 664/6/6 662/6/6 665/6/6
f 665/6/6 659/6/6 666/6/6
f 664/6/6 665/6/6 667/6/6
f 667/6/6 665/6/6 668/6/6
f 669/7/6 670/7/6 673/7/6
f 673/7/6 670/7/6 674/7/6
f 671/7/6 672/7/6 675/7/6
f 675/7/6 672/7/6 676/7/6
f 677/6/6 678/6/6 680/6/6
f 680/6/6 678/6/6 681/6/6
f 679/6/6 680/6/6 683/6/6
f 681/6/6 682/6/6 683/6/6
f 680/6/6 681/6/6 683/6/6
f 683/6/6 682/6/6 684/6/6
f 684/6/6 682/6/6 685/6/6
f 685/6/6 682/6/6 686/6/6
f 684/6/6 685/6/6 687/6/6
f 687/6/6 685/6/6 688/6/6
