# MagicaVoxel @ Ephtracy

# group
o 

# material
mtllib ArmRight.mtl
usemtl palette

# normals
vn -1 0 0
vn 1 0 0
vn 0 0 1
vn 0 0 -1
vn 0 -1 0
vn 0 1 0

# texcoords
vt 0.939453 0.5
vt 0.970703 0.5

# verts
v -0.9 1.4 0.2
v -0.9 1.4 -0.1
v -0.9 1.5 0.2
v -0.9 1.5 -0.1
v -0.8 1.4 0.3
v -0.8 1.4 0.2
v -0.8 1.4 -0.1
v -0.8 1.4 -0.2
v -0.8 1.5 0.3
v -0.8 1.5 0.2
v -0.8 1.5 -0.1
v -0.8 1.5 -0.2
v -0.8 1.6 0.2
v -0.8 1.6 -0.1
v -0.7 1.5 0.3
v -0.7 1.5 0.2
v -0.7 1.5 -0.1
v -0.7 1.5 -0.2
v -0.7 1.6 0.3
v -0.7 1.6 0.2
v -0.7 1.6 -0.1
v -0.7 1.6 -0.2
v -0.6 0.7 0.1
v -0.6 0.7 0
v -0.6 1.4 0.1
v -0.6 1.4 0
v -0.6 1.6 0.2
v -0.6 1.6 -0.1
v -0.6 1.7 0.2
v -0.6 1.7 -0.1
v -0.5 1.6 0.3
v -0.5 1.6 0.2
v -0.5 1.6 -0.1
v -0.5 1.6 -0.2
v -0.5 1.7 0.3
v -0.5 1.7 0.2
v -0.5 1.7 -0.1
v -0.5 1.7 -0.2
v -0.7 1.4 0.2
v -0.7 1.4 -0.1
v -0.7 1.5 0.2
v -0.7 1.5 -0.1
v -0.5 0.7 0.1
v -0.5 0.7 0
v -0.5 1.4 0.1
v -0.5 1.4 0
v -0.5 1.5 0.2
v -0.5 1.5 -0.1
v -0.5 1.6 0.2
v -0.5 1.6 -0.1
v -0.3 1.4 0.3
v -0.3 1.4 0.2
v -0.3 1.4 -0.1
v -0.3 1.4 -0.2
v -0.3 1.6 0.2
v -0.3 1.6 -0.1
v -0.3 1.7 0.3
v -0.3 1.7 -0.2
v -0.8 1.4 0.3
v -0.8 1.5 0.3
v -0.7 1.5 0.3
v -0.7 1.6 0.3
v -0.5 1.6 0.3
v -0.5 1.7 0.3
v -0.3 1.4 0.3
v -0.3 1.7 0.3
v -0.9 1.4 0.2
v -0.9 1.5 0.2
v -0.8 1.4 0.2
v -0.8 1.5 0.2
v -0.8 1.6 0.2
v -0.7 1.5 0.2
v -0.7 1.6 0.2
v -0.6 1.6 0.2
v -0.6 1.7 0.2
v -0.5 1.6 0.2
v -0.5 1.7 0.2
v -0.6 0.7 0.1
v -0.6 1.4 0.1
v -0.5 0.7 0.1
v -0.5 1.4 0.1
v -0.7 1.4 -0.1
v -0.7 1.5 -0.1
v -0.5 1.5 -0.1
v -0.5 1.6 -0.1
v -0.3 1.4 -0.1
v -0.3 1.6 -0.1
v -0.7 1.4 0.2
v -0.7 1.5 0.2
v -0.5 1.5 0.2
v -0.5 1.6 0.2
v -0.3 1.4 0.2
v -0.3 1.6 0.2
v -0.6 0.7 0
v -0.6 1.4 0
v -0.5 0.7 0
v -0.5 1.4 0
v -0.9 1.4 -0.1
v -0.9 1.5 -0.1
v -0.8 1.4 -0.1
v -0.8 1.5 -0.1
v -0.8 1.6 -0.1
v -0.7 1.5 -0.1
v -0.7 1.6 -0.1
v -0.6 1.6 -0.1
v -0.6 1.7 -0.1
v -0.5 1.6 -0.1
v -0.5 1.7 -0.1
v -0.8 1.4 -0.2
v -0.8 1.5 -0.2
v -0.7 1.5 -0.2
v -0.7 1.6 -0.2
v -0.5 1.6 -0.2
v -0.5 1.7 -0.2
v -0.3 1.4 -0.2
v -0.3 1.7 -0.2
v -0.6 0.7 0.1
v -0.5 0.7 0.1
v -0.6 0.7 0
v -0.5 0.7 0
v -0.8 1.4 0.3
v -0.3 1.4 0.3
v -0.9 1.4 0.2
v -0.8 1.4 0.2
v -0.7 1.4 0.2
v -0.3 1.4 0.2
v -0.9 1.4 -0.1
v -0.8 1.4 -0.1
v -0.7 1.4 -0.1
v -0.3 1.4 -0.1
v -0.8 1.4 -0.2
v -0.3 1.4 -0.2
v -0.7 1.5 0.2
v -0.5 1.5 0.2
v -0.7 1.5 -0.1
v -0.5 1.5 -0.1
v -0.5 1.6 0.2
v -0.3 1.6 0.2
v -0.5 1.6 -0.1
v -0.3 1.6 -0.1
v -0.6 1.4 0.1
v -0.5 1.4 0.1
v -0.6 1.4 0
v -0.5 1.4 0
v -0.8 1.5 0.3
v -0.7 1.5 0.3
v -0.9 1.5 0.2
v -0.8 1.5 0.2
v -0.7 1.5 0.2
v -0.9 1.5 -0.1
v -0.8 1.5 -0.1
v -0.7 1.5 -0.1
v -0.8 1.5 -0.2
v -0.7 1.5 -0.2
v -0.7 1.6 0.3
v -0.5 1.6 0.3
v -0.8 1.6 0.2
v -0.7 1.6 0.2
v -0.6 1.6 0.2
v -0.5 1.6 0.2
v -0.8 1.6 -0.1
v -0.7 1.6 -0.1
v -0.6 1.6 -0.1
v -0.5 1.6 -0.1
v -0.7 1.6 -0.2
v -0.5 1.6 -0.2
v -0.5 1.7 0.3
v -0.3 1.7 0.3
v -0.6 1.7 0.2
v -0.5 1.7 0.2
v -0.6 1.7 -0.1
v -0.5 1.7 -0.1
v -0.5 1.7 -0.2
v -0.3 1.7 -0.2

# faces
f 3/1/1 2/1/1 1/1/1
f 4/1/1 2/1/1 3/1/1
f 9/1/1 6/1/1 5/1/1
f 10/1/1 6/1/1 9/1/1
f 11/1/1 8/1/1 7/1/1
f 12/1/1 8/1/1 11/1/1
f 13/1/1 11/1/1 10/1/1
f 14/1/1 11/1/1 13/1/1
f 19/1/1 16/1/1 15/1/1
f 20/1/1 16/1/1 19/1/1
f 21/1/1 18/1/1 17/1/1
f 22/1/1 18/1/1 21/1/1
f 25/2/1 24/2/1 23/2/1
f 26/2/1 24/2/1 25/2/1
f 29/1/1 28/1/1 27/1/1
f 30/1/1 28/1/1 29/1/1
f 35/1/1 32/1/1 31/1/1
f 36/1/1 32/1/1 35/1/1
f 37/1/1 34/1/1 33/1/1
f 38/1/1 34/1/1 37/1/1
f 39/1/2 40/1/2 41/1/2
f 41/1/2 40/1/2 42/1/2
f 43/2/2 44/2/2 45/2/2
f 45/2/2 44/2/2 46/2/2
f 47/1/2 48/1/2 49/1/2
f 49/1/2 48/1/2 50/1/2
f 51/1/2 52/1/2 55/1/2
f 53/1/2 54/1/2 56/1/2
f 51/1/2 55/1/2 57/1/2
f 55/1/2 56/1/2 57/1/2
f 56/1/2 54/1/2 58/1/2
f 57/1/2 56/1/2 58/1/2
f 61/1/3 60/1/3 59/1/3
f 63/1/3 62/1/3 61/1/3
f 65/1/3 61/1/3 59/1/3
f 65/1/3 64/1/3 63/1/3
f 65/1/3 63/1/3 61/1/3
f 66/1/3 64/1/3 65/1/3
f 69/1/3 68/1/3 67/1/3
f 70/1/3 68/1/3 69/1/3
f 72/1/3 71/1/3 70/1/3
f 73/1/3 71/1/3 72/1/3
f 76/1/3 75/1/3 74/1/3
f 77/1/3 75/1/3 76/1/3
f 80/2/3 79/2/3 78/2/3
f 81/2/3 79/2/3 80/2/3
f 84/1/3 83/1/3 82/1/3
f 86/1/3 84/1/3 82/1/3
f 86/1/3 85/1/3 84/1/3
f 87/1/3 85/1/3 86/1/3
f 88/1/4 89/1/4 90/1/4
f 88/1/4 90/1/4 92/1/4
f 90/1/4 91/1/4 92/1/4
f 92/1/4 91/1/4 93/1/4
f 94/2/4 95/2/4 96/2/4
f 96/2/4 95/2/4 97/2/4
f 98/1/4 99/1/4 100/1/4
f 100/1/4 99/1/4 101/1/4
f 101/1/4 102/1/4 103/1/4
f 103/1/4 102/1/4 104/1/4
f 105/1/4 106/1/4 107/1/4
f 107/1/4 106/1/4 108/1/4
f 109/1/4 110/1/4 111/1/4
f 111/1/4 112/1/4 113/1/4
f 109/1/4 111/1/4 115/1/4
f 113/1/4 114/1/4 115/1/4
f 111/1/4 113/1/4 115/1/4
f 115/1/4 114/1/4 116/1/4
f 119/2/5 118/2/5 117/2/5
f 120/2/5 118/2/5 119/2/5
f 124/1/5 122/1/5 121/1/5
f 125/1/5 122/1/5 124/1/5
f 126/1/5 122/1/5 125/1/5
f 127/1/5 124/1/5 123/1/5
f 127/1/5 125/1/5 124/1/5
f 128/1/5 125/1/5 127/1/5
f 129/1/5 125/1/5 128/1/5
f 131/1/5 130/1/5 129/1/5
f 131/1/5 129/1/5 128/1/5
f 132/1/5 130/1/5 131/1/5
f 135/1/5 134/1/5 133/1/5
f 136/1/5 134/1/5 135/1/5
f 139/1/5 138/1/5 137/1/5
f 140/1/5 138/1/5 139/1/5
f 141/2/6 142/2/6 143/2/6
f 143/2/6 142/2/6 144/2/6
f 145/1/6 146/1/6 148/1/6
f 148/1/6 146/1/6 149/1/6
f 147/1/6 148/1/6 150/1/6
f 150/1/6 148/1/6 151/1/6
f 151/1/6 152/1/6 153/1/6
f 153/1/6 152/1/6 154/1/6
f 155/1/6 156/1/6 158/1/6
f 158/1/6 156/1/6 159/1/6
f 159/1/6 156/1/6 160/1/6
f 157/1/6 158/1/6 161/1/6
f 158/1/6 159/1/6 161/1/6
f 161/1/6 159/1/6 162/1/6
f 162/1/6 159/1/6 163/1/6
f 163/1/6 164/1/6 165/1/6
f 162/1/6 163/1/6 165/1/6
f 165/1/6 164/1/6 166/1/6
f 167/1/6 168/1/6 170/1/6
f 169/1/6 170/1/6 171/1/6
f 170/1/6 168/1/6 172/1/6
f 171/1/6 170/1/6 172/1/6
f 172/1/6 168/1/6 173/1/6
f 173/1/6 168/1/6 174/1/6
