# MagicaVoxel @ Ephtracy

# group
o 

# material
mtllib EarthElementalLeft.mtl
usemtl palette

# normals
vn -1 0 0
vn 1 0 0
vn 0 0 1
vn 0 0 -1
vn 0 -1 0
vn 0 1 0

# texcoords
vt 0.876953 0.5
vt 0.908203 0.5
vt 0.970703 0.5

# verts
v 0.6 0.7 0.1
v 0.6 0.7 -0.1
v 0.6 0.9 0.1
v 0.6 0.9 0
v 0.6 1 0
v 0.6 1 -0.1
v 0.6 1.1 0.1
v 0.6 1.1 -0.1
v 0.6 1.2 0.1
v 0.6 1.2 -0.1
v 0.8 0.7 0.1
v 0.8 0.7 -0.1
v 0.8 0.8 0.1
v 0.8 0.8 -0.1
v 0.8 0.9 0.1
v 0.8 0.9 0
v 0.8 0.9 -0.1
v 0.8 1 0.1
v 0.8 1 0
v 0.8 1 -0.1
v 0.8 1.2 0.1
v 0.8 1.2 0
v 0.8 1.2 -0.1
v 0.6 0.7 0.1
v 0.6 0.9 0.1
v 0.6 1.1 0.1
v 0.6 1.2 0.1
v 0.7 0.8 0.1
v 0.7 0.9 0.1
v 0.7 1 0.1
v 0.7 1.1 0.1
v 0.8 0.7 0.1
v 0.8 0.8 0.1
v 0.8 0.9 0.1
v 0.8 1 0.1
v 0.8 1.2 0.1
v 0.6 0.7 -0.1
v 0.6 1 -0.1
v 0.6 1.1 -0.1
v 0.6 1.2 -0.1
v 0.7 0.8 -0.1
v 0.7 0.9 -0.1
v 0.7 1.1 -0.1
v 0.7 1.2 -0.1
v 0.8 0.7 -0.1
v 0.8 0.8 -0.1
v 0.8 0.9 -0.1
v 0.8 1 -0.1
v 0.8 1.2 -0.1
v 0.6 0.7 0.1
v 0.8 0.7 0.1
v 0.6 0.7 -0.1
v 0.8 0.7 -0.1
v 0.6 1.2 0.1
v 0.8 1.2 0.1
v 0.7 1.2 0
v 0.8 1.2 0
v 0.6 1.2 -0.1
v 0.7 1.2 -0.1
v 0.8 1.2 -0.1

# faces
f 3/3/1 2/3/1 1/3/1
f 4/3/1 2/3/1 3/3/1
f 5/2/1 4/2/1 3/2/1
f 5/3/1 2/3/1 4/3/1
f 6/3/1 2/3/1 5/3/1
f 7/2/1 5/2/1 3/2/1
f 7/2/1 6/2/1 5/2/1
f 8/2/1 6/2/1 7/2/1
f 9/3/1 8/3/1 7/3/1
f 10/3/1 8/3/1 9/3/1
f 11/3/2 12/3/2 13/3/2
f 13/3/2 12/3/2 14/3/2
f 13/1/2 14/1/2 15/1/2
f 15/1/2 14/1/2 16/1/2
f 16/1/2 14/1/2 17/1/2
f 15/2/2 16/2/2 18/2/2
f 16/3/2 17/3/2 19/3/2
f 18/2/2 16/2/2 19/2/2
f 19/3/2 17/3/2 20/3/2
f 18/3/2 19/3/2 21/3/2
f 19/2/2 20/2/2 22/2/2
f 21/3/2 19/3/2 22/3/2
f 22/2/2 20/2/2 23/2/2
f 28/3/3 25/3/3 24/3/3
f 29/2/3 26/2/3 25/2/3
f 29/3/3 25/3/3 28/3/3
f 30/2/3 26/2/3 29/2/3
f 31/3/3 27/3/3 26/3/3
f 31/2/3 26/2/3 30/2/3
f 32/3/3 28/3/3 24/3/3
f 33/1/3 29/1/3 28/1/3
f 33/3/3 28/3/3 32/3/3
f 34/2/3 30/2/3 29/2/3
f 34/1/3 29/1/3 33/1/3
f 35/3/3 31/3/3 30/3/3
f 35/2/3 30/2/3 34/2/3
f 36/3/3 27/3/3 31/3/3
f 36/3/3 31/3/3 35/3/3
f 37/3/4 38/3/4 41/3/4
f 41/3/4 38/3/4 42/3/4
f 39/3/4 40/3/4 43/3/4
f 38/2/4 39/2/4 43/2/4
f 43/3/4 40/3/4 44/3/4
f 37/3/4 41/3/4 45/3/4
f 41/1/4 42/1/4 46/1/4
f 45/3/4 41/3/4 46/3/4
f 42/3/4 38/3/4 47/3/4
f 46/1/4 42/1/4 47/1/4
f 38/2/4 43/2/4 48/2/4
f 47/3/4 38/3/4 48/3/4
f 43/2/4 44/2/4 48/2/4
f 48/2/4 44/2/4 49/2/4
f 52/3/5 51/3/5 50/3/5
f 53/3/5 51/3/5 52/3/5
f 54/3/6 55/3/6 56/3/6
f 56/3/6 55/3/6 57/3/6
f 54/3/6 56/3/6 58/3/6
f 56/2/6 57/2/6 59/2/6
f 58/3/6 56/3/6 59/3/6
f 59/2/6 57/2/6 60/2/6
