# MagicaVoxel @ Ephtracy

# group
o 

# material
mtllib EarthElementalRight.mtl
usemtl palette

# normals
vn -1 0 0
vn 1 0 0
vn 0 0 1
vn 0 0 -1
vn 0 -1 0
vn 0 1 0

# texcoords
vt 0.876953 0.5
vt 0.908203 0.5
vt 0.970703 0.5

# verts
v -0.8 0.7 0.1
v -0.8 0.7 -0.1
v -0.8 0.8 0.1
v -0.8 0.8 0
v -0.8 0.9 0
v -0.8 0.9 -0.1
v -0.8 1 0.1
v -0.8 1 0
v -0.8 1 -0.1
v -0.8 1.1 0
v -0.8 1.1 -0.1
v -0.8 1.2 0.1
v -0.8 1.2 -0.1
v -0.6 0.7 0.1
v -0.6 0.7 -0.1
v -0.6 1.2 0.1
v -0.6 1.2 -0.1
v -0.8 0.7 0.1
v -0.8 0.8 0.1
v -0.8 1 0.1
v -0.8 1.2 0.1
v -0.7 0.8 0.1
v -0.7 1 0.1
v -0.6 0.7 0.1
v -0.6 1.2 0.1
v -0.8 0.7 -0.1
v -0.8 0.9 -0.1
v -0.8 1 -0.1
v -0.8 1.1 -0.1
v -0.8 1.2 -0.1
v -0.7 0.9 -0.1
v -0.7 1 -0.1
v -0.7 1.1 -0.1
v -0.6 0.7 -0.1
v -0.6 1.2 -0.1
v -0.8 0.7 0.1
v -0.6 0.7 0.1
v -0.8 0.7 -0.1
v -0.6 0.7 -0.1
v -0.8 1.2 0.1
v -0.6 1.2 0.1
v -0.8 1.2 -0.1
v -0.6 1.2 -0.1

# faces
f 3/3/1 2/3/1 1/3/1
f 4/3/1 2/3/1 3/3/1
f 5/2/1 4/2/1 3/2/1
f 5/3/1 2/3/1 4/3/1
f 6/3/1 2/3/1 5/3/1
f 7/2/1 5/2/1 3/2/1
f 7/2/1 6/2/1 5/2/1
f 8/2/1 6/2/1 7/2/1
f 9/2/1 6/2/1 8/2/1
f 10/3/1 8/3/1 7/3/1
f 10/1/1 9/1/1 8/1/1
f 11/1/1 9/1/1 10/1/1
f 12/3/1 10/3/1 7/3/1
f 12/3/1 11/3/1 10/3/1
f 13/3/1 11/3/1 12/3/1
f 14/3/2 15/3/2 16/3/2
f 16/3/2 15/3/2 17/3/2
f 22/3/3 19/3/3 18/3/3
f 22/2/3 20/2/3 19/2/3
f 23/3/3 21/3/3 20/3/3
f 23/2/3 20/2/3 22/2/3
f 24/3/3 22/3/3 18/3/3
f 24/3/3 23/3/3 22/3/3
f 25/3/3 21/3/3 23/3/3
f 25/3/3 23/3/3 24/3/3
f 26/3/4 27/3/4 31/3/4
f 27/2/4 28/2/4 31/2/4
f 28/1/4 29/1/4 32/1/4
f 31/2/4 28/2/4 32/2/4
f 29/3/4 30/3/4 33/3/4
f 32/1/4 29/1/4 33/1/4
f 31/3/4 32/3/4 34/3/4
f 26/3/4 31/3/4 34/3/4
f 32/3/4 33/3/4 34/3/4
f 33/3/4 30/3/4 35/3/4
f 34/3/4 33/3/4 35/3/4
f 38/3/5 37/3/5 36/3/5
f 39/3/5 37/3/5 38/3/5
f 40/3/6 41/3/6 42/3/6
f 42/3/6 41/3/6 43/3/6
