# MagicaVoxel @ Ephtracy

# group
o 

# material
mtllib Crankle.mtl
usemtl palette

# normals
vn -1 0 0
vn 1 0 0
vn 0 0 1
vn 0 0 -1
vn 0 -1 0
vn 0 1 0

# texcoords
vt 0.908203 0.5
vt 0.939453 0.5
vt 0.943359 0.5
vt 0.970703 0.5
vt 0.974609 0.5

# verts
v -0.5 0.9 0
v -0.5 0.9 -0.2
v -0.5 1 0
v -0.5 1 -0.1
v -0.5 1 -0.2
v -0.5 1 -0.3
v -0.5 1.1 -0.1
v -0.5 1.1 -0.3
v -0.4 0.3 0.2
v -0.4 0.3 -0.1
v -0.4 0.6 0.2
v -0.4 0.6 -0.1
v -0.4 0.8 0.1
v -0.4 0.8 -0.1
v -0.4 0.9 0.1
v -0.4 0.9 0
v -0.4 0.9 -0.1
v -0.3 0.2 0.3
v -0.3 0.2 -0.2
v -0.3 0.3 0.2
v -0.3 0.3 -0.1
v -0.3 0.5 0.3
v -0.3 0.5 0.2
v -0.3 0.6 0.3
v -0.3 0.6 0.2
v -0.3 0.6 -0.1
v -0.3 0.7 0.3
v -0.3 0.7 0.2
v -0.3 0.7 0
v -0.3 0.7 -0.2
v -0.3 0.8 0.1
v -0.3 0.8 0
v -0.3 0.9 0.2
v -0.3 0.9 0.1
v -0.3 0.9 0
v -0.3 1 0.1
v -0.3 1 0
v -0.2 0.1 0.2
v -0.2 0.1 -0.1
v -0.2 0.2 0.2
v -0.2 0.2 -0.1
v -0.2 0.3 0.4
v -0.2 0.3 0.3
v -0.2 0.3 -0.2
v -0.2 0.3 -0.3
v -0.2 0.4 0.4
v -0.2 0.4 0.3
v -0.2 0.5 0.4
v -0.2 0.5 0.3
v -0.2 0.6 0.4
v -0.2 0.6 0.3
v -0.2 0.6 -0.2
v -0.2 0.6 -0.3
v -0.2 0.7 0
v -0.2 0.7 -0.1
v -0.2 0.8 0
v -0.2 0.8 -0.1
v 0 0.8 0.2
v 0 0.8 0
v 0 0.9 0.2
v 0 0.9 0
v 0.1 0.8 0
v 0.1 0.8 -0.1
v 0.1 0.9 0.1
v 0.1 0.9 0
v 0.1 0.9 -0.1
v 0.1 1 0.1
v 0.1 1 0
v 0.2 0.9 0
v 0.2 0.9 -0.1
v 0.2 0.9 -0.2
v 0.2 1 0
v 0.2 1 -0.2
v 0.3 1 -0.1
v 0.3 1 -0.2
v 0.3 1 -0.3
v 0.3 1.1 -0.1
v 0.3 1.1 -0.3
v -0.4 1 -0.1
v -0.4 1 -0.2
v -0.4 1 -0.3
v -0.4 1.1 -0.1
v -0.4 1.1 -0.3
v -0.3 0.9 0
v -0.3 0.9 -0.1
v -0.3 0.9 -0.2
v -0.3 1 0
v -0.3 1 -0.2
v -0.2 0.8 0
v -0.2 0.8 -0.1
v -0.2 0.9 0.1
v -0.2 0.9 0
v -0.2 0.9 -0.1
v -0.2 1 0.1
v -0.2 1 0
v -0.1 0.8 0.2
v -0.1 0.8 0
v -0.1 0.9 0.2
v -0.1 0.9 0
v 0.1 0.1 0.2
v 0.1 0.1 -0.1
v 0.1 0.2 0.2
v 0.1 0.2 -0.1
v 0.1 0.3 0.4
v 0.1 0.3 0.3
v 0.1 0.3 -0.2
v 0.1 0.3 -0.3
v 0.1 0.4 0.4
v 0.1 0.4 0.3
v 0.1 0.5 0.4
v 0.1 0.5 0.3
v 0.1 0.6 0.4
v 0.1 0.6 0.3
v 0.1 0.6 -0.2
v 0.1 0.6 -0.3
v 0.1 0.7 0
v 0.1 0.7 -0.1
v 0.1 0.8 0
v 0.1 0.8 -0.1
v 0.2 0.2 0.3
v 0.2 0.2 -0.2
v 0.2 0.3 0.2
v 0.2 0.3 -0.1
v 0.2 0.5 0.3
v 0.2 0.5 0.2
v 0.2 0.6 0.3
v 0.2 0.6 0.2
v 0.2 0.6 -0.1
v 0.2 0.7 0.3
v 0.2 0.7 0.2
v 0.2 0.7 0
v 0.2 0.7 -0.2
v 0.2 0.8 0.1
v 0.2 0.8 0
v 0.2 0.9 0.2
v 0.2 0.9 0.1
v 0.2 0.9 0
v 0.2 1 0.1
v 0.2 1 0
v 0.3 0.3 0.2
v 0.3 0.3 -0.1
v 0.3 0.6 0.2
v 0.3 0.6 -0.1
v 0.3 0.8 0.1
v 0.3 0.8 -0.1
v 0.3 0.9 0.1
v 0.3 0.9 0
v 0.3 0.9 -0.1
v 0.4 0.9 0
v 0.4 0.9 -0.2
v 0.4 1 0
v 0.4 1 -0.1
v 0.4 1 -0.2
v 0.4 1 -0.3
v 0.4 1.1 -0.1
v 0.4 1.1 -0.3
v -0.2 0.3 0.4
v -0.2 0.4 0.4
v -0.2 0.5 0.4
v -0.2 0.6 0.4
v -0.1 0.4 0.4
v -0.1 0.5 0.4
v -0.1 0.6 0.4
v 0 0.4 0.4
v 0 0.5 0.4
v 0 0.6 0.4
v 0.1 0.3 0.4
v 0.1 0.4 0.4
v 0.1 0.5 0.4
v 0.1 0.6 0.4
v -0.3 0.2 0.3
v -0.3 0.5 0.3
v -0.3 0.6 0.3
v -0.3 0.7 0.3
v -0.2 0.3 0.3
v -0.2 0.4 0.3
v -0.2 0.5 0.3
v -0.2 0.6 0.3
v -0.2 0.7 0.3
v -0.1 0.6 0.3
v -0.1 0.7 0.3
v 0 0.6 0.3
v 0 0.7 0.3
v 0.1 0.3 0.3
v 0.1 0.4 0.3
v 0.1 0.5 0.3
v 0.1 0.6 0.3
v 0.1 0.7 0.3
v 0.2 0.2 0.3
v 0.2 0.5 0.3
v 0.2 0.6 0.3
v 0.2 0.7 0.3
v -0.4 0.3 0.2
v -0.4 0.6 0.2
v -0.3 0.3 0.2
v -0.3 0.5 0.2
v -0.3 0.6 0.2
v -0.3 0.7 0.2
v -0.3 0.9 0.2
v -0.2 0.1 0.2
v -0.2 0.2 0.2
v -0.2 0.7 0.2
v -0.2 0.8 0.2
v -0.1 0.7 0.2
v -0.1 0.8 0.2
v -0.1 0.9 0.2
v 0 0.7 0.2
v 0 0.8 0.2
v 0 0.9 0.2
v 0.1 0.1 0.2
v 0.1 0.2 0.2
v 0.1 0.7 0.2
v 0.1 0.8 0.2
v 0.2 0.3 0.2
v 0.2 0.5 0.2
v 0.2 0.6 0.2
v 0.2 0.7 0.2
v 0.2 0.9 0.2
v 0.3 0.3 0.2
v 0.3 0.6 0.2
v -0.4 0.8 0.1
v -0.4 0.9 0.1
v -0.3 0.8 0.1
v -0.3 0.9 0.1
v -0.3 1 0.1
v -0.2 0.9 0.1
v -0.2 1 0.1
v 0.1 0.9 0.1
v 0.1 1 0.1
v 0.2 0.8 0.1
v 0.2 0.9 0.1
v 0.2 1 0.1
v 0.3 0.8 0.1
v 0.3 0.9 0.1
v -0.5 0.9 0
v -0.5 1 0
v -0.4 0.9 0
v -0.3 0.9 0
v -0.3 1 0
v 0.2 0.9 0
v 0.2 1 0
v 0.3 0.9 0
v 0.4 0.9 0
v 0.4 1 0
v -0.5 1 -0.1
v -0.5 1.1 -0.1
v -0.4 1 -0.1
v -0.4 1.1 -0.1
v 0.3 1 -0.1
v 0.3 1.1 -0.1
v 0.4 1 -0.1
v 0.4 1.1 -0.1
v -0.3 0.7 0
v -0.3 0.8 0
v -0.3 0.9 0
v -0.3 1 0
v -0.2 0.7 0
v -0.2 0.8 0
v -0.2 0.9 0
v -0.2 1 0
v -0.1 0.8 0
v -0.1 0.9 0
v 0 0.8 0
v 0 0.9 0
v 0.1 0.7 0
v 0.1 0.8 0
v 0.1 0.9 0
v 0.1 1 0
v 0.2 0.7 0
v 0.2 0.8 0
v 0.2 0.9 0
v 0.2 1 0
v -0.4 0.3 -0.1
v -0.4 0.6 -0.1
v -0.4 0.8 -0.1
v -0.4 0.9 -0.1
v -0.3 0.3 -0.1
v -0.3 0.6 -0.1
v -0.3 0.9 -0.1
v -0.2 0.1 -0.1
v -0.2 0.2 -0.1
v -0.2 0.7 -0.1
v -0.2 0.8 -0.1
v -0.2 0.9 -0.1
v 0.1 0.1 -0.1
v 0.1 0.2 -0.1
v 0.1 0.7 -0.1
v 0.1 0.8 -0.1
v 0.1 0.9 -0.1
v 0.2 0.3 -0.1
v 0.2 0.6 -0.1
v 0.2 0.9 -0.1
v 0.3 0.3 -0.1
v 0.3 0.6 -0.1
v 0.3 0.8 -0.1
v 0.3 0.9 -0.1
v -0.5 0.9 -0.2
v -0.5 1 -0.2
v -0.4 1 -0.2
v -0.3 0.2 -0.2
v -0.3 0.7 -0.2
v -0.3 0.9 -0.2
v -0.3 1 -0.2
v -0.2 0.3 -0.2
v -0.2 0.6 -0.2
v 0.1 0.3 -0.2
v 0.1 0.6 -0.2
v 0.2 0.2 -0.2
v 0.2 0.7 -0.2
v 0.2 0.9 -0.2
v 0.2 1 -0.2
v 0.3 1 -0.2
v 0.4 0.9 -0.2
v 0.4 1 -0.2
v -0.5 1 -0.3
v -0.5 1.1 -0.3
v -0.4 1 -0.3
v -0.4 1.1 -0.3
v -0.2 0.3 -0.3
v -0.2 0.6 -0.3
v 0.1 0.3 -0.3
v 0.1 0.6 -0.3
v 0.3 1 -0.3
v 0.3 1.1 -0.3
v 0.4 1 -0.3
v 0.4 1.1 -0.3
v -0.2 0.1 0.2
v 0.1 0.1 0.2
v -0.2 0.1 -0.1
v 0.1 0.1 -0.1
v -0.3 0.2 0.3
v 0.2 0.2 0.3
v -0.2 0.2 0.2
v 0.1 0.2 0.2
v -0.2 0.2 -0.1
v 0.1 0.2 -0.1
v -0.3 0.2 -0.2
v 0.2 0.2 -0.2
v -0.2 0.3 0.4
v 0.1 0.3 0.4
v -0.2 0.3 0.3
v 0.1 0.3 0.3
v -0.4 0.3 0.2
v -0.3 0.3 0.2
v 0.2 0.3 0.2
v 0.3 0.3 0.2
v -0.4 0.3 -0.1
v -0.3 0.3 -0.1
v 0.2 0.3 -0.1
v 0.3 0.3 -0.1
v -0.2 0.3 -0.2
v 0.1 0.3 -0.2
v -0.2 0.3 -0.3
v 0.1 0.3 -0.3
v -0.4 0.8 0.1
v -0.3 0.8 0.1
v 0.2 0.8 0.1
v 0.3 0.8 0.1
v -0.3 0.8 0
v -0.2 0.8 0
v 0.1 0.8 0
v 0.2 0.8 0
v -0.4 0.8 -0.1
v -0.2 0.8 -0.1
v 0.1 0.8 -0.1
v 0.3 0.8 -0.1
v -0.5 0.9 0
v -0.4 0.9 0
v 0.3 0.9 0
v 0.4 0.9 0
v -0.4 0.9 -0.1
v -0.3 0.9 -0.1
v 0.2 0.9 -0.1
v 0.3 0.9 -0.1
v -0.5 0.9 -0.2
v -0.3 0.9 -0.2
v 0.2 0.9 -0.2
v 0.4 0.9 -0.2
v -0.5 1 -0.2
v -0.4 1 -0.2
v 0.3 1 -0.2
v 0.4 1 -0.2
v -0.5 1 -0.3
v -0.4 1 -0.3
v 0.3 1 -0.3
v 0.4 1 -0.3
v -0.2 0.6 0.4
v -0.1 0.6 0.4
v 0 0.6 0.4
v 0.1 0.6 0.4
v -0.2 0.6 0.3
v -0.1 0.6 0.3
v 0 0.6 0.3
v 0.1 0.6 0.3
v -0.4 0.6 0.2
v -0.3 0.6 0.2
v 0.2 0.6 0.2
v 0.3 0.6 0.2
v -0.4 0.6 -0.1
v -0.3 0.6 -0.1
v 0.2 0.6 -0.1
v 0.3 0.6 -0.1
v -0.2 0.6 -0.2
v 0.1 0.6 -0.2
v -0.2 0.6 -0.3
v 0.1 0.6 -0.3
v -0.3 0.7 0.3
v -0.2 0.7 0.3
v -0.1 0.7 0.3
v 0 0.7 0.3
v 0.1 0.7 0.3
v 0.2 0.7 0.3
v -0.3 0.7 0.2
v -0.2 0.7 0.2
v -0.1 0.7 0.2
v 0 0.7 0.2
v 0.1 0.7 0.2
v 0.2 0.7 0.2
v -0.3 0.7 0
v -0.2 0.7 0
v 0.1 0.7 0
v 0.2 0.7 0
v -0.2 0.7 -0.1
v 0.1 0.7 -0.1
v -0.3 0.7 -0.2
v 0.2 0.7 -0.2
v -0.1 0.8 0.2
v 0 0.8 0.2
v -0.2 0.8 0
v -0.1 0.8 0
v 0 0.8 0
v 0.1 0.8 0
v -0.2 0.8 -0.1
v 0.1 0.8 -0.1
v -0.3 0.9 0.2
v -0.1 0.9 0.2
v 0 0.9 0.2
v 0.2 0.9 0.2
v -0.4 0.9 0.1
v -0.3 0.9 0.1
v -0.2 0.9 0.1
v 0.1 0.9 0.1
v 0.2 0.9 0.1
v 0.3 0.9 0.1
v -0.4 0.9 0
v -0.3 0.9 0
v -0.2 0.9 0
v -0.1 0.9 0
v 0 0.9 0
v 0.1 0.9 0
v 0.2 0.9 0
v 0.3 0.9 0
v -0.3 0.9 -0.1
v -0.2 0.9 -0.1
v 0.1 0.9 -0.1
v 0.2 0.9 -0.1
v -0.3 1 0.1
v -0.2 1 0.1
v 0.1 1 0.1
v 0.2 1 0.1
v -0.5 1 0
v -0.3 1 0
v -0.2 1 0
v 0.1 1 0
v 0.2 1 0
v 0.4 1 0
v -0.5 1 -0.1
v -0.4 1 -0.1
v 0.3 1 -0.1
v 0.4 1 -0.1
v -0.4 1 -0.2
v -0.3 1 -0.2
v 0.2 1 -0.2
v 0.3 1 -0.2
v -0.5 1.1 -0.1
v -0.4 1.1 -0.1
v 0.3 1.1 -0.1
v 0.4 1.1 -0.1
v -0.5 1.1 -0.3
v -0.4 1.1 -0.3
v 0.3 1.1 -0.3
v 0.4 1.1 -0.3

# faces
f 3/2/1 2/2/1 1/2/1
f 4/2/1 2/2/1 3/2/1
f 5/2/1 2/2/1 4/2/1
f 7/2/1 6/2/1 5/2/1
f 7/2/1 5/2/1 4/2/1
f 8/2/1 6/2/1 7/2/1
f 11/4/1 10/4/1 9/4/1
f 12/4/1 10/4/1 11/4/1
f 15/2/1 14/2/1 13/2/1
f 16/2/1 14/2/1 15/2/1
f 17/2/1 14/2/1 16/2/1
f 20/4/1 19/4/1 18/4/1
f 21/4/1 19/4/1 20/4/1
f 22/4/1 20/4/1 18/4/1
f 23/4/1 20/4/1 22/4/1
f 24/1/1 23/1/1 22/1/1
f 25/1/1 23/1/1 24/1/1
f 26/4/1 19/4/1 21/4/1
f 27/4/1 25/4/1 24/4/1
f 27/4/1 26/4/1 25/4/1
f 28/4/1 26/4/1 27/4/1
f 29/4/1 26/4/1 28/4/1
f 30/4/1 19/4/1 26/4/1
f 30/4/1 26/4/1 29/4/1
f 31/2/1 29/2/1 28/2/1
f 32/2/1 29/2/1 31/2/1
f 33/2/1 31/2/1 28/2/1
f 34/2/1 31/2/1 33/2/1
f 36/2/1 35/2/1 34/2/1
f 37/2/1 35/2/1 36/2/1
f 40/4/1 39/4/1 38/4/1
f 41/4/1 39/4/1 40/4/1
f 46/4/1 43/4/1 42/4/1
f 47/4/1 43/4/1 46/4/1
f 48/5/1 47/5/1 46/5/1
f 49/5/1 47/5/1 48/5/1
f 50/3/1 49/3/1 48/3/1
f 51/3/1 49/3/1 50/3/1
f 52/4/1 45/4/1 44/4/1
f 53/4/1 45/4/1 52/4/1
f 56/4/1 55/4/1 54/4/1
f 57/4/1 55/4/1 56/4/1
f 60/2/1 59/2/1 58/2/1
f 61/2/1 59/2/1 60/2/1
f 65/2/1 63/2/1 62/2/1
f 66/2/1 63/2/1 65/2/1
f 67/2/1 65/2/1 64/2/1
f 68/2/1 65/2/1 67/2/1
f 72/2/1 70/2/1 69/2/1
f 72/2/1 71/2/1 70/2/1
f 73/2/1 71/2/1 72/2/1
f 77/2/1 75/2/1 74/2/1
f 77/2/1 76/2/1 75/2/1
f 78/2/1 76/2/1 77/2/1
f 79/2/2 80/2/2 82/2/2
f 80/2/2 81/2/2 82/2/2
f 82/2/2 81/2/2 83/2/2
f 84/2/2 85/2/2 87/2/2
f 85/2/2 86/2/2 87/2/2
f 87/2/2 86/2/2 88/2/2
f 89/2/2 90/2/2 92/2/2
f 92/2/2 90/2/2 93/2/2
f 91/2/2 92/2/2 94/2/2
f 94/2/2 92/2/2 95/2/2
f 96/2/2 97/2/2 98/2/2
f 98/2/2 97/2/2 99/2/2
f 100/4/2 101/4/2 102/4/2
f 102/4/2 101/4/2 103/4/2
f 104/4/2 105/4/2 108/4/2
f 108/4/2 105/4/2 109/4/2
f 108/5/2 109/5/2 110/5/2
f 110/5/2 109/5/2 111/5/2
f 110/3/2 111/3/2 112/3/2
f 112/3/2 111/3/2 113/3/2
f 106/4/2 107/4/2 114/4/2
f 114/4/2 107/4/2 115/4/2
f 116/4/2 117/4/2 118/4/2
f 118/4/2 117/4/2 119/4/2
f 120/4/2 121/4/2 122/4/2
f 122/4/2 121/4/2 123/4/2
f 120/4/2 122/4/2 124/4/2
f 124/4/2 122/4/2 125/4/2
f 124/1/2 125/1/2 126/1/2
f 126/1/2 125/1/2 127/1/2
f 123/4/2 121/4/2 128/4/2
f 126/4/2 127/4/2 129/4/2
f 127/4/2 128/4/2 129/4/2
f 129/4/2 128/4/2 130/4/2
f 130/4/2 128/4/2 131/4/2
f 128/4/2 121/4/2 132/4/2
f 131/4/2 128/4/2 132/4/2
f 130/2/2 131/2/2 133/2/2
f 133/2/2 131/2/2 134/2/2
f 130/2/2 133/2/2 135/2/2
f 135/2/2 133/2/2 136/2/2
f 136/2/2 137/2/2 138/2/2
f 138/2/2 137/2/2 139/2/2
f 140/4/2 141/4/2 142/4/2
f 142/4/2 141/4/2 143/4/2
f 144/2/2 145/2/2 146/2/2
f 146/2/2 145/2/2 147/2/2
f 147/2/2 145/2/2 148/2/2
f 149/2/2 150/2/2 151/2/2
f 151/2/2 150/2/2 152/2/2
f 152/2/2 150/2/2 153/2/2
f 153/2/2 154/2/2 155/2/2
f 152/2/2 153/2/2 155/2/2
f 155/2/2 154/2/2 156/2/2
f 161/4/3 158/4/3 157/4/3
f 161/5/3 159/5/3 158/5/3
f 162/3/3 160/3/3 159/3/3
f 162/5/3 159/5/3 161/5/3
f 163/3/3 160/3/3 162/3/3
f 164/4/3 161/4/3 157/4/3
f 164/4/3 162/4/3 161/4/3
f 164/4/3 163/4/3 162/4/3
f 165/4/3 163/4/3 164/4/3
f 166/4/3 163/4/3 165/4/3
f 167/4/3 164/4/3 157/4/3
f 168/5/3 165/5/3 164/5/3
f 168/4/3 164/4/3 167/4/3
f 169/3/3 166/3/3 165/3/3
f 169/5/3 165/5/3 168/5/3
f 170/3/3 166/3/3 169/3/3
f 175/4/3 172/4/3 171/4/3
f 176/4/3 172/4/3 175/4/3
f 177/1/3 173/1/3 172/1/3
f 177/4/3 172/4/3 176/4/3
f 178/4/3 174/4/3 173/4/3
f 178/1/3 173/1/3 177/1/3
f 179/4/3 174/4/3 178/4/3
f 180/1/3 179/1/3 178/1/3
f 181/1/3 179/1/3 180/1/3
f 182/4/3 181/4/3 180/4/3
f 183/4/3 181/4/3 182/4/3
f 184/4/3 175/4/3 171/4/3
f 187/1/3 183/1/3 182/1/3
f 188/1/3 183/1/3 187/1/3
f 189/4/3 186/4/3 185/4/3
f 189/4/3 184/4/3 171/4/3
f 189/4/3 185/4/3 184/4/3
f 190/1/3 187/1/3 186/1/3
f 190/4/3 186/4/3 189/4/3
f 191/4/3 188/4/3 187/4/3
f 191/1/3 187/1/3 190/1/3
f 192/4/3 188/4/3 191/4/3
f 195/4/3 194/4/3 193/4/3
f 196/4/3 194/4/3 195/4/3
f 197/4/3 194/4/3 196/4/3
f 202/2/3 199/2/3 198/2/3
f 203/2/3 199/2/3 202/2/3
f 204/4/3 203/4/3 202/4/3
f 205/2/3 199/2/3 203/2/3
f 205/4/3 203/4/3 204/4/3
f 206/2/3 199/2/3 205/2/3
f 207/4/3 205/4/3 204/4/3
f 208/4/3 205/4/3 207/4/3
f 210/4/3 201/4/3 200/4/3
f 211/4/3 201/4/3 210/4/3
f 212/4/3 208/4/3 207/4/3
f 213/2/3 209/2/3 208/2/3
f 213/4/3 208/4/3 212/4/3
f 217/2/3 213/2/3 212/2/3
f 218/2/3 209/2/3 213/2/3
f 218/2/3 213/2/3 217/2/3
f 219/4/3 216/4/3 215/4/3
f 219/4/3 215/4/3 214/4/3
f 220/4/3 216/4/3 219/4/3
f 223/2/3 222/2/3 221/2/3
f 224/2/3 222/2/3 223/2/3
f 226/2/3 225/2/3 224/2/3
f 227/2/3 225/2/3 226/2/3
f 231/2/3 229/2/3 228/2/3
f 232/2/3 229/2/3 231/2/3
f 233/2/3 231/2/3 230/2/3
f 234/2/3 231/2/3 233/2/3
f 237/2/3 236/2/3 235/2/3
f 238/2/3 236/2/3 237/2/3
f 239/2/3 236/2/3 238/2/3
f 242/2/3 241/2/3 240/2/3
f 243/2/3 241/2/3 242/2/3
f 244/2/3 241/2/3 243/2/3
f 247/2/3 246/2/3 245/2/3
f 248/2/3 246/2/3 247/2/3
f 251/2/3 250/2/3 249/2/3
f 252/2/3 250/2/3 251/2/3
f 253/2/4 254/2/4 257/2/4
f 257/2/4 254/2/4 258/2/4
f 255/2/4 256/2/4 259/2/4
f 259/2/4 256/2/4 260/2/4
f 258/2/4 259/2/4 261/2/4
f 261/2/4 259/2/4 262/2/4
f 263/2/4 264/2/4 266/2/4
f 266/2/4 264/2/4 267/2/4
f 265/2/4 266/2/4 269/2/4
f 269/2/4 266/2/4 270/2/4
f 267/2/4 268/2/4 271/2/4
f 271/2/4 268/2/4 272/2/4
f 273/4/4 274/4/4 277/4/4
f 277/4/4 274/4/4 278/4/4
f 275/2/4 276/2/4 279/2/4
f 275/2/4 279/2/4 283/2/4
f 283/2/4 279/2/4 284/2/4
f 280/4/4 281/4/4 285/4/4
f 285/4/4 281/4/4 286/4/4
f 282/4/4 283/4/4 287/4/4
f 287/4/4 283/4/4 288/4/4
f 288/2/4 289/2/4 292/2/4
f 290/4/4 291/4/4 293/4/4
f 293/4/4 291/4/4 294/4/4
f 288/2/4 292/2/4 295/2/4
f 295/2/4 292/2/4 296/2/4
f 297/2/4 298/2/4 299/2/4
f 297/2/4 299/2/4 302/2/4
f 302/2/4 299/2/4 303/2/4
f 300/4/4 301/4/4 304/4/4
f 304/4/4 301/4/4 305/4/4
f 300/4/4 304/4/4 306/4/4
f 305/4/4 301/4/4 307/4/4
f 300/4/4 306/4/4 308/4/4
f 306/4/4 307/4/4 308/4/4
f 307/4/4 301/4/4 309/4/4
f 308/4/4 307/4/4 309/4/4
f 310/2/4 311/2/4 312/2/4
f 310/2/4 312/2/4 313/2/4
f 313/2/4 312/2/4 314/2/4
f 315/2/4 316/2/4 317/2/4
f 317/2/4 316/2/4 318/2/4
f 319/4/4 320/4/4 321/4/4
f 321/4/4 320/4/4 322/4/4
f 323/2/4 324/2/4 325/2/4
f 325/2/4 324/2/4 326/2/4
f 329/4/5 328/4/5 327/4/5
f 330/4/5 328/4/5 329/4/5
f 333/4/5 332/4/5 331/4/5
f 334/4/5 332/4/5 333/4/5
f 335/4/5 333/4/5 331/4/5
f 336/4/5 332/4/5 334/4/5
f 337/4/5 335/4/5 331/4/5
f 337/4/5 336/4/5 335/4/5
f 338/4/5 332/4/5 336/4/5
f 338/4/5 336/4/5 337/4/5
f 341/4/5 340/4/5 339/4/5
f 342/4/5 340/4/5 341/4/5
f 347/4/5 344/4/5 343/4/5
f 348/4/5 344/4/5 347/4/5
f 349/4/5 346/4/5 345/4/5
f 350/4/5 346/4/5 349/4/5
f 353/4/5 352/4/5 351/4/5
f 354/4/5 352/4/5 353/4/5
f 359/2/5 356/2/5 355/2/5
f 362/2/5 358/2/5 357/2/5
f 363/2/5 360/2/5 359/2/5
f 363/2/5 359/2/5 355/2/5
f 364/2/5 360/2/5 363/2/5
f 365/2/5 362/2/5 361/2/5
f 366/2/5 358/2/5 362/2/5
f 366/2/5 362/2/5 365/2/5
f 371/2/5 368/2/5 367/2/5
f 374/2/5 370/2/5 369/2/5
f 375/2/5 372/2/5 371/2/5
f 375/2/5 371/2/5 367/2/5
f 376/2/5 372/2/5 375/2/5
f 377/2/5 374/2/5 373/2/5
f 378/2/5 370/2/5 374/2/5
f 378/2/5 374/2/5 377/2/5
f 383/2/5 380/2/5 379/2/5
f 384/2/5 380/2/5 383/2/5
f 385/2/5 382/2/5 381/2/5
f 386/2/5 382/2/5 385/2/5
f 387/3/6 388/3/6 391/3/6
f 388/4/6 389/4/6 392/4/6
f 391/3/6 388/3/6 392/3/6
f 389/3/6 390/3/6 393/3/6
f 392/4/6 389/4/6 393/4/6
f 393/3/6 390/3/6 394/3/6
f 395/4/6 396/4/6 399/4/6
f 399/4/6 396/4/6 400/4/6
f 397/4/6 398/4/6 401/4/6
f 401/4/6 398/4/6 402/4/6
f 403/4/6 404/4/6 405/4/6
f 405/4/6 404/4/6 406/4/6
f 407/4/6 408/4/6 413/4/6
f 408/1/6 409/1/6 414/1/6
f 413/4/6 408/4/6 414/4/6
f 409/4/6 410/4/6 415/4/6
f 414/1/6 409/1/6 415/1/6
f 410/1/6 411/1/6 416/1/6
f 415/4/6 410/4/6 416/4/6
f 411/4/6 412/4/6 417/4/6
f 416/1/6 411/1/6 417/1/6
f 417/4/6 412/4/6 418/4/6
f 419/4/6 420/4/6 423/4/6
f 421/4/6 422/4/6 424/4/6
f 419/4/6 423/4/6 425/4/6
f 423/4/6 424/4/6 425/4/6
f 424/4/6 422/4/6 426/4/6
f 425/4/6 424/4/6 426/4/6
f 427/4/6 428/4/6 430/4/6
f 430/4/6 428/4/6 431/4/6
f 429/4/6 430/4/6 433/4/6
f 431/4/6 432/4/6 433/4/6
f 430/4/6 431/4/6 433/4/6
f 433/4/6 432/4/6 434/4/6
f 435/2/6 436/2/6 440/2/6
f 440/2/6 436/2/6 441/2/6
f 437/2/6 438/2/6 442/2/6
f 442/2/6 438/2/6 443/2/6
f 439/2/6 440/2/6 445/2/6
f 445/2/6 440/2/6 446/2/6
f 441/2/6 436/2/6 447/2/6
f 447/2/6 436/2/6 448/2/6
f 437/2/6 442/2/6 449/2/6
f 449/2/6 442/2/6 450/2/6
f 443/2/6 444/2/6 451/2/6
f 451/2/6 444/2/6 452/2/6
f 446/2/6 447/2/6 453/2/6
f 453/2/6 447/2/6 454/2/6
f 450/2/6 451/2/6 455/2/6
f 455/2/6 451/2/6 456/2/6
f 457/2/6 458/2/6 462/2/6
f 462/2/6 458/2/6 463/2/6
f 459/2/6 460/2/6 464/2/6
f 464/2/6 460/2/6 465/2/6
f 461/2/6 462/2/6 467/2/6
f 467/2/6 462/2/6 468/2/6
f 465/2/6 466/2/6 469/2/6
f 469/2/6 466/2/6 470/2/6
f 468/2/6 462/2/6 471/2/6
f 471/2/6 462/2/6 472/2/6
f 465/2/6 469/2/6 473/2/6
f 473/2/6 469/2/6 474/2/6
f 475/2/6 476/2/6 479/2/6
f 479/2/6 476/2/6 480/2/6
f 477/2/6 478/2/6 481/2/6
f 481/2/6 478/2/6 482/2/6
