# MagicaVoxel @ Ephtracy

# group
o 

# material
mtllib Crunkle.mtl
usemtl palette

# normals
vn -1 0 0
vn 1 0 0
vn 0 0 1
vn 0 0 -1
vn 0 -1 0
vn 0 1 0

# texcoords
vt 0.939453 0.5
vt 0.947266 0.5
vt 0.970703 0.5
vt 0.974609 0.5
vt 0.978516 0.5

# verts
v -0.3 0.1 0.4
v -0.3 0.1 0.3
v -0.3 0.2 0.3
v -0.3 0.2 0.2
v -0.3 0.3 0.4
v -0.3 0.3 0.3
v -0.3 0.3 0.2
v -0.3 0.3 -0.1
v -0.3 0.4 0.3
v -0.3 0.4 0.2
v -0.3 0.6 0.2
v -0.3 0.6 -0.1
v -0.3 0.7 0.3
v -0.3 0.7 -0.2
v -0.3 0.8 0.3
v -0.3 0.8 -0.2
v -0.2 0.3 -0.1
v -0.2 0.3 -0.2
v -0.2 0.4 0.3
v -0.2 0.4 0.2
v -0.2 0.5 0.3
v -0.2 0.5 0.2
v -0.2 0.6 0.3
v -0.2 0.6 0.2
v -0.2 0.6 -0.1
v -0.2 0.6 -0.2
v -0.2 0.7 0.2
v -0.2 0.7 -0.1
v -0.2 0.8 0.2
v -0.2 0.8 -0.1
v -0.2 0.9 0.2
v -0.2 0.9 -0.1
v -0.2 1.1 0.2
v -0.2 1.1 -0.1
v -0.1 0.1 0.4
v -0.1 0.1 0.3
v -0.1 0.2 0.3
v -0.1 0.2 0.2
v -0.1 0.3 0.4
v -0.1 0.3 0.3
v -0.1 0.3 0.2
v 0.1 0.1 0.4
v 0.1 0.1 0.3
v 0.1 0.2 0.3
v 0.1 0.2 0.2
v 0.1 0.3 0.4
v 0.1 0.3 0.3
v 0.1 0.3 0.2
v -0.2 0.1 0.4
v -0.2 0.1 0.3
v -0.2 0.2 0.3
v -0.2 0.2 0.2
v -0.2 0.3 0.4
v -0.2 0.3 0.3
v -0.2 0.3 0.2
v -2.98023e-08 0.1 0.4
v -2.98023e-08 0.1 0.3
v -2.98023e-08 0.2 0.3
v -2.98023e-08 0.2 0.2
v -2.98023e-08 0.3 0.4
v -2.98023e-08 0.3 0.3
v -2.98023e-08 0.3 0.2
v 0.1 0.3 -0.1
v 0.1 0.3 -0.2
v 0.1 0.4 0.3
v 0.1 0.4 0.2
v 0.1 0.5 0.3
v 0.1 0.5 0.2
v 0.1 0.6 0.3
v 0.1 0.6 0.2
v 0.1 0.6 -0.1
v 0.1 0.6 -0.2
v 0.1 0.7 0.2
v 0.1 0.7 -0.1
v 0.1 0.8 0.2
v 0.1 0.8 -0.1
v 0.1 0.9 0.2
v 0.1 0.9 -0.1
v 0.1 1.1 0.2
v 0.1 1.1 -0.1
v 0.2 0.1 0.4
v 0.2 0.1 0.3
v 0.2 0.2 0.3
v 0.2 0.2 0.2
v 0.2 0.3 0.4
v 0.2 0.3 0.3
v 0.2 0.3 0.2
v 0.2 0.3 -0.1
v 0.2 0.4 0.3
v 0.2 0.4 0.2
v 0.2 0.6 0.2
v 0.2 0.6 -0.1
v 0.2 0.7 0.3
v 0.2 0.7 -0.2
v 0.2 0.8 0.3
v 0.2 0.8 -0.2
v -0.3 0.1 0.4
v -0.3 0.3 0.4
v -0.2 0.1 0.4
v -0.2 0.3 0.4
v -0.1 0.1 0.4
v -0.1 0.3 0.4
v -2.98023e-08 0.1 0.4
v -2.98023e-08 0.3 0.4
v 0.1 0.1 0.4
v 0.1 0.3 0.4
v 0.2 0.1 0.4
v 0.2 0.3 0.4
v -0.3 0.3 0.3
v -0.3 0.4 0.3
v -0.3 0.7 0.3
v -0.3 0.8 0.3
v -0.2 0.3 0.3
v -0.2 0.4 0.3
v -0.2 0.5 0.3
v -0.2 0.6 0.3
v -0.1 0.3 0.3
v -0.1 0.4 0.3
v -0.1 0.5 0.3
v -0.1 0.6 0.3
v -2.98023e-08 0.3 0.3
v -2.98023e-08 0.4 0.3
v -2.98023e-08 0.5 0.3
v -2.98023e-08 0.6 0.3
v 0.1 0.3 0.3
v 0.1 0.4 0.3
v 0.1 0.5 0.3
v 0.1 0.6 0.3
v 0.2 0.3 0.3
v 0.2 0.4 0.3
v 0.2 0.7 0.3
v 0.2 0.8 0.3
v -0.3 0.4 0.2
v -0.3 0.6 0.2
v -0.2 0.4 0.2
v -0.2 0.5 0.2
v -0.2 0.6 0.2
v -0.2 0.7 0.2
v -0.2 0.8 0.2
v -0.2 0.9 0.2
v -0.2 1.1 0.2
v -0.1 0.6 0.2
v -2.98023e-08 0.6 0.2
v 0.1 0.4 0.2
v 0.1 0.5 0.2
v 0.1 0.6 0.2
v 0.1 0.7 0.2
v 0.1 0.8 0.2
v 0.1 0.9 0.2
v 0.1 1.1 0.2
v 0.2 0.4 0.2
v 0.2 0.6 0.2
v -0.3 0.1 0.3
v -0.3 0.2 0.3
v -0.2 0.1 0.3
v -0.2 0.2 0.3
v -0.1 0.1 0.3
v -0.1 0.2 0.3
v -2.98023e-08 0.1 0.3
v -2.98023e-08 0.2 0.3
v 0.1 0.1 0.3
v 0.1 0.2 0.3
v 0.2 0.1 0.3
v 0.2 0.2 0.3
v -0.3 0.2 0.2
v -0.3 0.3 0.2
v -0.2 0.2 0.2
v -0.2 0.3 0.2
v -0.1 0.2 0.2
v -0.1 0.3 0.2
v -2.98023e-08 0.2 0.2
v -2.98023e-08 0.3 0.2
v 0.1 0.2 0.2
v 0.1 0.3 0.2
v 0.2 0.2 0.2
v 0.2 0.3 0.2
v -0.3 0.3 -0.1
v -0.3 0.6 -0.1
v -0.2 0.3 -0.1
v -0.2 0.6 -0.1
v -0.2 0.7 -0.1
v -0.2 0.8 -0.1
v -0.2 0.9 -0.1
v -0.2 1.1 -0.1
v 0.1 0.3 -0.1
v 0.1 0.6 -0.1
v 0.1 0.7 -0.1
v 0.1 0.8 -0.1
v 0.1 0.9 -0.1
v 0.1 1.1 -0.1
v 0.2 0.3 -0.1
v 0.2 0.6 -0.1
v -0.3 0.7 -0.2
v -0.3 0.8 -0.2
v -0.2 0.3 -0.2
v -0.2 0.6 -0.2
v 0.1 0.3 -0.2
v 0.1 0.6 -0.2
v 0.2 0.7 -0.2
v 0.2 0.8 -0.2
v -0.3 0.1 0.4
v -0.2 0.1 0.4
v -0.1 0.1 0.4
v -2.98023e-08 0.1 0.4
v 0.1 0.1 0.4
v 0.2 0.1 0.4
v -0.3 0.1 0.3
v -0.2 0.1 0.3
v -0.1 0.1 0.3
v -2.98023e-08 0.1 0.3
v 0.1 0.1 0.3
v 0.2 0.1 0.3
v -0.3 0.2 0.3
v -0.2 0.2 0.3
v -0.1 0.2 0.3
v -2.98023e-08 0.2 0.3
v 0.1 0.2 0.3
v 0.2 0.2 0.3
v -0.3 0.2 0.2
v -0.2 0.2 0.2
v -0.1 0.2 0.2
v -2.98023e-08 0.2 0.2
v 0.1 0.2 0.2
v 0.2 0.2 0.2
v -0.2 0.3 0.3
v -0.1 0.3 0.3
v -2.98023e-08 0.3 0.3
v 0.1 0.3 0.3
v -0.3 0.3 0.2
v -0.2 0.3 0.2
v -0.1 0.3 0.2
v -2.98023e-08 0.3 0.2
v 0.1 0.3 0.2
v 0.2 0.3 0.2
v -0.3 0.3 -0.1
v -0.2 0.3 -0.1
v 0.1 0.3 -0.1
v 0.2 0.3 -0.1
v -0.2 0.3 -0.2
v 0.1 0.3 -0.2
v -0.3 0.7 0.3
v 0.2 0.7 0.3
v -0.2 0.7 0.2
v 0.1 0.7 0.2
v -0.2 0.7 -0.1
v 0.1 0.7 -0.1
v -0.3 0.7 -0.2
v 0.2 0.7 -0.2
v -0.3 0.3 0.4
v -0.2 0.3 0.4
v -0.1 0.3 0.4
v -2.98023e-08 0.3 0.4
v 0.1 0.3 0.4
v 0.2 0.3 0.4
v -0.3 0.3 0.3
v -0.2 0.3 0.3
v -0.1 0.3 0.3
v -2.98023e-08 0.3 0.3
v 0.1 0.3 0.3
v 0.2 0.3 0.3
v -0.3 0.4 0.3
v -0.2 0.4 0.3
v 0.1 0.4 0.3
v 0.2 0.4 0.3
v -0.3 0.4 0.2
v -0.2 0.4 0.2
v 0.1 0.4 0.2
v 0.2 0.4 0.2
v -0.2 0.6 0.3
v -0.1 0.6 0.3
v -2.98023e-08 0.6 0.3
v 0.1 0.6 0.3
v -0.3 0.6 0.2
v -0.2 0.6 0.2
v -0.1 0.6 0.2
v -2.98023e-08 0.6 0.2
v 0.1 0.6 0.2
v 0.2 0.6 0.2
v -0.3 0.6 -0.1
v -0.2 0.6 -0.1
v 0.1 0.6 -0.1
v 0.2 0.6 -0.1
v -0.2 0.6 -0.2
v 0.1 0.6 -0.2
v -0.3 0.8 0.3
v 0.2 0.8 0.3
v -0.2 0.8 0.2
v 0.1 0.8 0.2
v -0.2 0.8 -0.1
v 0.1 0.8 -0.1
v -0.3 0.8 -0.2
v 0.2 0.8 -0.2
v -0.2 1.1 0.2
v 0.1 1.1 0.2
v -0.2 1.1 -0.1
v 0.1 1.1 -0.1

# faces
f 3/3/1 2/3/1 1/3/1
f 5/3/1 3/3/1 1/3/1
f 5/3/1 4/3/1 3/3/1
f 6/3/1 4/3/1 5/3/1
f 7/3/1 4/3/1 6/3/1
f 9/3/1 8/3/1 7/3/1
f 9/3/1 7/3/1 6/3/1
f 10/3/1 8/3/1 9/3/1
f 11/3/1 8/3/1 10/3/1
f 12/3/1 8/3/1 11/3/1
f 15/4/1 14/4/1 13/4/1
f 16/4/1 14/4/1 15/4/1
f 21/5/1 20/5/1 19/5/1
f 22/5/1 20/5/1 21/5/1
f 23/2/1 22/2/1 21/2/1
f 24/2/1 22/2/1 23/2/1
f 25/3/1 18/3/1 17/3/1
f 26/3/1 18/3/1 25/3/1
f 27/3/1 25/3/1 24/3/1
f 28/3/1 25/3/1 27/3/1
f 31/1/1 30/1/1 29/1/1
f 32/1/1 30/1/1 31/1/1
f 33/4/1 32/4/1 31/4/1
f 34/4/1 32/4/1 33/4/1
f 37/3/1 36/3/1 35/3/1
f 39/3/1 37/3/1 35/3/1
f 39/3/1 38/3/1 37/3/1
f 40/3/1 38/3/1 39/3/1
f 41/3/1 38/3/1 40/3/1
f 44/3/1 43/3/1 42/3/1
f 46/3/1 44/3/1 42/3/1
f 46/3/1 45/3/1 44/3/1
f 47/3/1 45/3/1 46/3/1
f 48/3/1 45/3/1 47/3/1
f 49/3/2 50/3/2 51/3/2
f 49/3/2 51/3/2 53/3/2
f 51/3/2 52/3/2 53/3/2
f 53/3/2 52/3/2 54/3/2
f 54/3/2 52/3/2 55/3/2
f 56/3/2 57/3/2 58/3/2
f 56/3/2 58/3/2 60/3/2
f 58/3/2 59/3/2 60/3/2
f 60/3/2 59/3/2 61/3/2
f 61/3/2 59/3/2 62/3/2
f 65/5/2 66/5/2 67/5/2
f 67/5/2 66/5/2 68/5/2
f 67/2/2 68/2/2 69/2/2
f 69/2/2 68/2/2 70/2/2
f 63/3/2 64/3/2 71/3/2
f 71/3/2 64/3/2 72/3/2
f 70/3/2 71/3/2 73/3/2
f 73/3/2 71/3/2 74/3/2
f 75/1/2 76/1/2 77/1/2
f 77/1/2 76/1/2 78/1/2
f 77/4/2 78/4/2 79/4/2
f 79/4/2 78/4/2 80/4/2
f 81/3/2 82/3/2 83/3/2
f 81/3/2 83/3/2 85/3/2
f 83/3/2 84/3/2 85/3/2
f 85/3/2 84/3/2 86/3/2
f 86/3/2 84/3/2 87/3/2
f 87/3/2 88/3/2 89/3/2
f 86/3/2 87/3/2 89/3/2
f 89/3/2 88/3/2 90/3/2
f 90/3/2 88/3/2 91/3/2
f 91/3/2 88/3/2 92/3/2
f 93/4/2 94/4/2 95/4/2
f 95/4/2 94/4/2 96/4/2
f 99/3/3 98/3/3 97/3/3
f 100/3/3 98/3/3 99/3/3
f 103/3/3 102/3/3 101/3/3
f 104/3/3 102/3/3 103/3/3
f 107/3/3 106/3/3 105/3/3
f 108/3/3 106/3/3 107/3/3
f 113/3/3 110/3/3 109/3/3
f 114/3/3 110/3/3 113/3/3
f 117/3/3 114/3/3 113/3/3
f 118/5/3 115/5/3 114/5/3
f 118/3/3 114/3/3 117/3/3
f 119/2/3 116/2/3 115/2/3
f 119/5/3 115/5/3 118/5/3
f 120/2/3 116/2/3 119/2/3
f 121/3/3 118/3/3 117/3/3
f 121/3/3 119/3/3 118/3/3
f 121/3/3 120/3/3 119/3/3
f 122/3/3 120/3/3 121/3/3
f 123/3/3 120/3/3 122/3/3
f 124/3/3 120/3/3 123/3/3
f 125/3/3 122/3/3 121/3/3
f 126/5/3 123/5/3 122/5/3
f 126/3/3 122/3/3 125/3/3
f 127/2/3 124/2/3 123/2/3
f 127/5/3 123/5/3 126/5/3
f 128/2/3 124/2/3 127/2/3
f 129/3/3 126/3/3 125/3/3
f 130/3/3 126/3/3 129/3/3
f 131/4/3 112/4/3 111/4/3
f 132/4/3 112/4/3 131/4/3
f 135/3/3 134/3/3 133/3/3
f 136/3/3 134/3/3 135/3/3
f 137/3/3 134/3/3 136/3/3
f 142/3/3 138/3/3 137/3/3
f 143/3/3 138/3/3 142/3/3
f 146/3/3 138/3/3 143/3/3
f 147/3/3 138/3/3 146/3/3
f 148/1/3 140/1/3 139/1/3
f 149/4/3 141/4/3 140/4/3
f 149/1/3 140/1/3 148/1/3
f 150/4/3 141/4/3 149/4/3
f 151/3/3 145/3/3 144/3/3
f 151/3/3 146/3/3 145/3/3
f 152/3/3 146/3/3 151/3/3
f 153/3/4 154/3/4 155/3/4
f 155/3/4 154/3/4 156/3/4
f 157/3/4 158/3/4 159/3/4
f 159/3/4 158/3/4 160/3/4
f 161/3/4 162/3/4 163/3/4
f 163/3/4 162/3/4 164/3/4
f 165/3/4 166/3/4 167/3/4
f 167/3/4 166/3/4 168/3/4
f 169/3/4 170/3/4 171/3/4
f 171/3/4 170/3/4 172/3/4
f 173/3/4 174/3/4 175/3/4
f 175/3/4 174/3/4 176/3/4
f 177/3/4 178/3/4 179/3/4
f 179/3/4 178/3/4 180/3/4
f 180/3/4 181/3/4 186/3/4
f 186/3/4 181/3/4 187/3/4
f 182/1/4 183/1/4 188/1/4
f 183/4/4 184/4/4 189/4/4
f 188/1/4 183/1/4 189/1/4
f 189/4/4 184/4/4 190/4/4
f 185/3/4 186/3/4 191/3/4
f 191/3/4 186/3/4 192/3/4
f 195/3/4 196/3/4 197/3/4
f 197/3/4 196/3/4 198/3/4
f 193/4/4 194/4/4 199/4/4
f 199/4/4 194/4/4 200/4/4
f 207/3/5 202/3/5 201/3/5
f 208/3/5 202/3/5 207/3/5
f 209/3/5 204/3/5 203/3/5
f 210/3/5 204/3/5 209/3/5
f 211/3/5 206/3/5 205/3/5
f 212/3/5 206/3/5 211/3/5
f 219/3/5 214/3/5 213/3/5
f 220/3/5 214/3/5 219/3/5
f 221/3/5 216/3/5 215/3/5
f 222/3/5 216/3/5 221/3/5
f 223/3/5 218/3/5 217/3/5
f 224/3/5 218/3/5 223/3/5
f 230/3/5 226/3/5 225/3/5
f 231/3/5 226/3/5 230/3/5
f 232/3/5 228/3/5 227/3/5
f 233/3/5 228/3/5 232/3/5
f 235/3/5 231/3/5 230/3/5
f 235/3/5 234/3/5 233/3/5
f 235/3/5 233/3/5 232/3/5
f 235/3/5 232/3/5 231/3/5
f 235/3/5 230/3/5 229/3/5
f 236/3/5 234/3/5 235/3/5
f 237/3/5 234/3/5 236/3/5
f 238/3/5 234/3/5 237/3/5
f 239/3/5 237/3/5 236/3/5
f 240/3/5 237/3/5 239/3/5
f 243/4/5 242/4/5 241/4/5
f 244/4/5 242/4/5 243/4/5
f 245/4/5 243/4/5 241/4/5
f 246/4/5 242/4/5 244/4/5
f 247/4/5 245/4/5 241/4/5
f 247/4/5 246/4/5 245/4/5
f 248/4/5 242/4/5 246/4/5
f 248/4/5 246/4/5 247/4/5
f 249/3/6 250/3/6 255/3/6
f 255/3/6 250/3/6 256/3/6
f 251/3/6 252/3/6 257/3/6
f 257/3/6 252/3/6 258/3/6
f 253/3/6 254/3/6 259/3/6
f 259/3/6 254/3/6 260/3/6
f 261/3/6 262/3/6 265/3/6
f 265/3/6 262/3/6 266/3/6
f 263/3/6 264/3/6 267/3/6
f 267/3/6 264/3/6 268/3/6
f 269/2/6 270/2/6 274/2/6
f 270/3/6 271/3/6 275/3/6
f 274/2/6 270/2/6 275/2/6
f 271/2/6 272/2/6 276/2/6
f 275/3/6 271/3/6 276/3/6
f 276/2/6 272/2/6 277/2/6
f 273/3/6 274/3/6 279/3/6
f 279/3/6 274/3/6 280/3/6
f 277/3/6 278/3/6 281/3/6
f 281/3/6 278/3/6 282/3/6
f 280/3/6 281/3/6 283/3/6
f 283/3/6 281/3/6 284/3/6
f 285/4/6 286/4/6 287/4/6
f 287/4/6 286/4/6 288/4/6
f 285/4/6 287/4/6 289/4/6
f 288/4/6 286/4/6 290/4/6
f 285/4/6 289/4/6 291/4/6
f 289/4/6 290/4/6 291/4/6
f 290/4/6 286/4/6 292/4/6
f 291/4/6 290/4/6 292/4/6
f 293/4/6 294/4/6 295/4/6
f 295/4/6 294/4/6 296/4/6
