# MagicaVoxel @ Ephtracy

# group
o 

# material
mtllib a.mtl
usemtl palette

# normals
vn -1 0 0
vn 1 0 0
vn 0 0 1
vn 0 0 -1
vn 0 -1 0
vn 0 1 0

# texcoords
vt 0.908203 0.5
vt 0.939453 0.5
vt 0.970703 0.5
vt 0.974609 0.5

# verts
v -0.6 0 0.6
v -0.6 0 0.2
v -0.6 0.3 0.6
v -0.6 0.3 0.2
v -0.5 0 0.2
v -0.5 0 5.96046e-08
v -0.5 0.3 0.2
v -0.5 0.3 5.96046e-08
v -0.4 0 5.96046e-08
v -0.4 0 -0.3
v -0.4 0.3 5.96046e-08
v -0.4 0.3 -0.3
v -0.3 0 -0.3
v -0.3 0 -0.4
v -0.3 0.3 -0.3
v -0.3 0.3 -0.4
v -0.2 0 -0.4
v -0.2 0 -0.5
v -0.2 0.3 -0.4
v -0.2 0.3 -0.5
v -0.1 0 -0.5
v -0.1 0 -0.6
v -0.1 0.3 -0.5
v -0.1 0.3 -0.6
v 0.1 0 -0.1
v 0.1 0 -0.3
v 0.1 0.3 -0.1
v 0.1 0.3 -0.3
v 0.2 0 0.4
v 0.2 0 0.3
v 0.2 0 5.96046e-08
v 0.2 0 -0.1
v 0.2 0.3 0.4
v 0.2 0.3 0.3
v 0.2 0.3 5.96046e-08
v 0.2 0.3 -0.1
v 0.3 0 0.6
v 0.3 0 0.4
v 0.3 0.3 0.6
v 0.3 0.3 0.4
v -0.2 0 0.6
v -0.2 0 0.4
v -0.2 0.3 0.6
v -0.2 0.3 0.4
v -0.1 0 0.4
v -0.1 0 0.3
v -0.1 0 5.96046e-08
v -0.1 0 -0.1
v -0.1 0.3 0.4
v -0.1 0.3 0.3
v -0.1 0.3 5.96046e-08
v -0.1 0.3 -0.1
v -5.96046e-08 0 -0.1
v -5.96046e-08 0 -0.3
v -5.96046e-08 0.3 -0.1
v -5.96046e-08 0.3 -0.3
v 0.2 0 -0.5
v 0.2 0 -0.6
v 0.2 0.3 -0.5
v 0.2 0.3 -0.6
v 0.3 0 -0.4
v 0.3 0 -0.5
v 0.3 0.3 -0.4
v 0.3 0.3 -0.5
v 0.4 0 -0.3
v 0.4 0 -0.4
v 0.4 0.3 -0.3
v 0.4 0.3 -0.4
v 0.5 0 5.96046e-08
v 0.5 0 -0.3
v 0.5 0.3 5.96046e-08
v 0.5 0.3 -0.3
v 0.6 0 0.2
v 0.6 0 5.96046e-08
v 0.6 0.3 0.2
v 0.6 0.3 5.96046e-08
v 0.7 0 0.6
v 0.7 0 0.2
v 0.7 0.3 0.6
v 0.7 0.3 0.2
v -0.6 0 0.6
v -0.6 0.3 0.6
v -0.2 0 0.6
v -0.2 0.3 0.6
v 0.3 0 0.6
v 0.3 0.3 0.6
v 0.7 0 0.6
v 0.7 0.3 0.6
v -0.2 0 0.4
v -0.2 0.3 0.4
v -0.1 0 0.4
v -0.1 0.3 0.4
v 0.2 0 0.4
v 0.2 0.3 0.4
v 0.3 0 0.4
v 0.3 0.3 0.4
v -0.1 0 0.3
v -0.1 0.3 0.3
v 0.2 0 0.3
v 0.2 0.3 0.3
v -0.1 0 -0.1
v -0.1 0.3 -0.1
v -5.96046e-08 0 -0.1
v -5.96046e-08 0.3 -0.1
v 0.1 0 -0.1
v 0.1 0.3 -0.1
v 0.2 0 -0.1
v 0.2 0.3 -0.1
v -5.96046e-08 0 -0.3
v -5.96046e-08 0.3 -0.3
v 0.1 0 -0.3
v 0.1 0.3 -0.3
v -0.6 0 0.2
v -0.6 0.3 0.2
v -0.5 0 0.2
v -0.5 0.3 0.2
v 0.6 0 0.2
v 0.6 0.3 0.2
v 0.7 0 0.2
v 0.7 0.3 0.2
v -0.5 0 5.96046e-08
v -0.5 0.3 5.96046e-08
v -0.4 0 5.96046e-08
v -0.4 0.3 5.96046e-08
v -0.1 0 5.96046e-08
v -0.1 0.3 5.96046e-08
v 0.2 0 5.96046e-08
v 0.2 0.3 5.96046e-08
v 0.5 0 5.96046e-08
v 0.5 0.3 5.96046e-08
v 0.6 0 5.96046e-08
v 0.6 0.3 5.96046e-08
v -0.4 0 -0.3
v -0.4 0.3 -0.3
v -0.3 0 -0.3
v -0.3 0.3 -0.3
v 0.4 0 -0.3
v 0.4 0.3 -0.3
v 0.5 0 -0.3
v 0.5 0.3 -0.3
v -0.3 0 -0.4
v -0.3 0.3 -0.4
v -0.2 0 -0.4
v -0.2 0.3 -0.4
v 0.3 0 -0.4
v 0.3 0.3 -0.4
v 0.4 0 -0.4
v 0.4 0.3 -0.4
v -0.2 0 -0.5
v -0.2 0.3 -0.5
v -0.1 0 -0.5
v -0.1 0.3 -0.5
v 0.2 0 -0.5
v 0.2 0.3 -0.5
v 0.3 0 -0.5
v 0.3 0.3 -0.5
v -0.1 0 -0.6
v -0.1 0.3 -0.6
v 0.2 0 -0.6
v 0.2 0.3 -0.6
v -0.6 0 0.6
v -0.2 0 0.6
v 0.3 0 0.6
v 0.7 0 0.6
v -0.5 0 0.5
v -0.3 0 0.5
v 0.4 0 0.5
v 0.6 0 0.5
v -0.3 0 0.4
v -0.2 0 0.4
v -0.1 0 0.4
v 0.2 0 0.4
v 0.3 0 0.4
v 0.4 0 0.4
v -0.2 0 0.3
v -0.1 0 0.3
v 0.2 0 0.3
v 0.3 0 0.3
v -0.6 0 0.2
v -0.5 0 0.2
v -0.4 0 0.2
v -0.1 0 0.2
v 0.2 0 0.2
v 0.5 0 0.2
v 0.6 0 0.2
v 0.7 0 0.2
v -0.2 0 0.1
v 0.3 0 0.1
v -0.5 0 5.96046e-08
v -0.4 0 5.96046e-08
v -0.3 0 5.96046e-08
v -0.1 0 5.96046e-08
v 0.2 0 5.96046e-08
v 0.4 0 5.96046e-08
v 0.5 0 5.96046e-08
v 0.6 0 5.96046e-08
v -0.2 0 -0.1
v -0.1 0 -0.1
v -5.96046e-08 0 -0.1
v 0.1 0 -0.1
v 0.2 0 -0.1
v 0.3 0 -0.1
v -0.4 0 -0.3
v -0.3 0 -0.3
v -0.2 0 -0.3
v -0.1 0 -0.3
v -5.96046e-08 0 -0.3
v 0.1 0 -0.3
v 0.2 0 -0.3
v 0.3 0 -0.3
v 0.4 0 -0.3
v 0.5 0 -0.3
v -0.3 0 -0.4
v -0.2 0 -0.4
v -0.1 0 -0.4
v -5.96046e-08 0 -0.4
v 0.1 0 -0.4
v 0.2 0 -0.4
v 0.3 0 -0.4
v 0.4 0 -0.4
v -0.2 0 -0.5
v -0.1 0 -0.5
v 0.2 0 -0.5
v 0.3 0 -0.5
v -0.1 0 -0.6
v 0.2 0 -0.6
v -0.6 0.3 0.6
v -0.2 0.3 0.6
v 0.3 0.3 0.6
v 0.7 0.3 0.6
v -0.5 0.3 0.5
v -0.4 0.3 0.5
v -0.3 0.3 0.5
v 0.4 0.3 0.5
v 0.5 0.3 0.5
v 0.6 0.3 0.5
v -0.4 0.3 0.4
v -0.3 0.3 0.4
v -0.2 0.3 0.4
v -0.1 0.3 0.4
v 0.2 0.3 0.4
v 0.3 0.3 0.4
v 0.4 0.3 0.4
v 0.5 0.3 0.4
v -0.5 0.3 0.3
v -0.4 0.3 0.3
v -0.3 0.3 0.3
v -0.2 0.3 0.3
v -0.1 0.3 0.3
v 0.2 0.3 0.3
v 0.3 0.3 0.3
v 0.4 0.3 0.3
v 0.5 0.3 0.3
v 0.6 0.3 0.3
v -0.6 0.3 0.2
v -0.5 0.3 0.2
v -0.4 0.3 0.2
v -0.2 0.3 0.2
v -0.1 0.3 0.2
v 0.2 0.3 0.2
v 0.3 0.3 0.2
v 0.5 0.3 0.2
v 0.6 0.3 0.2
v 0.7 0.3 0.2
v -0.4 0.3 0.1
v -0.3 0.3 0.1
v -0.2 0.3 0.1
v 0.3 0.3 0.1
v 0.4 0.3 0.1
v 0.5 0.3 0.1
v -0.5 0.3 5.96046e-08
v -0.4 0.3 5.96046e-08
v -0.3 0.3 5.96046e-08
v -0.1 0.3 5.96046e-08
v 0.2 0.3 5.96046e-08
v 0.4 0.3 5.96046e-08
v 0.5 0.3 5.96046e-08
v 0.6 0.3 5.96046e-08
v -0.3 0.3 -0.1
v -0.2 0.3 -0.1
v -0.1 0.3 -0.1
v -5.96046e-08 0.3 -0.1
v 0.1 0.3 -0.1
v 0.2 0.3 -0.1
v 0.3 0.3 -0.1
v 0.4 0.3 -0.1
v -0.4 0.3 -0.3
v -0.3 0.3 -0.3
v -0.2 0.3 -0.3
v -0.1 0.3 -0.3
v -5.96046e-08 0.3 -0.3
v 0.1 0.3 -0.3
v 0.2 0.3 -0.3
v 0.3 0.3 -0.3
v 0.4 0.3 -0.3
v 0.5 0.3 -0.3
v -0.3 0.3 -0.4
v -0.2 0.3 -0.4
v -0.1 0.3 -0.4
v -5.96046e-08 0.3 -0.4
v 0.1 0.3 -0.4
v 0.2 0.3 -0.4
v 0.3 0.3 -0.4
v 0.4 0.3 -0.4
v -0.2 0.3 -0.5
v -0.1 0.3 -0.5
v 0.2 0.3 -0.5
v 0.3 0.3 -0.5
v -0.1 0.3 -0.6
v 0.2 0.3 -0.6

# faces
f 3/4/1 2/4/1 1/4/1
f 4/4/1 2/4/1 3/4/1
f 7/4/1 6/4/1 5/4/1
f 8/4/1 6/4/1 7/4/1
f 11/4/1 10/4/1 9/4/1
f 12/4/1 10/4/1 11/4/1
f 15/4/1 14/4/1 13/4/1
f 16/4/1 14/4/1 15/4/1
f 19/4/1 18/4/1 17/4/1
f 20/4/1 18/4/1 19/4/1
f 23/4/1 22/4/1 21/4/1
f 24/4/1 22/4/1 23/4/1
f 27/4/1 26/4/1 25/4/1
f 28/4/1 26/4/1 27/4/1
f 33/4/1 30/4/1 29/4/1
f 34/4/1 30/4/1 33/4/1
f 35/4/1 32/4/1 31/4/1
f 36/4/1 32/4/1 35/4/1
f 39/4/1 38/4/1 37/4/1
f 40/4/1 38/4/1 39/4/1
f 41/4/2 42/4/2 43/4/2
f 43/4/2 42/4/2 44/4/2
f 45/4/2 46/4/2 49/4/2
f 49/4/2 46/4/2 50/4/2
f 47/4/2 48/4/2 51/4/2
f 51/4/2 48/4/2 52/4/2
f 53/4/2 54/4/2 55/4/2
f 55/4/2 54/4/2 56/4/2
f 57/4/2 58/4/2 59/4/2
f 59/4/2 58/4/2 60/4/2
f 61/4/2 62/4/2 63/4/2
f 63/4/2 62/4/2 64/4/2
f 65/4/2 66/4/2 67/4/2
f 67/4/2 66/4/2 68/4/2
f 69/4/2 70/4/2 71/4/2
f 71/4/2 70/4/2 72/4/2
f 73/4/2 74/4/2 75/4/2
f 75/4/2 74/4/2 76/4/2
f 77/4/2 78/4/2 79/4/2
f 79/4/2 78/4/2 80/4/2
f 83/4/3 82/4/3 81/4/3
f 84/4/3 82/4/3 83/4/3
f 87/4/3 86/4/3 85/4/3
f 88/4/3 86/4/3 87/4/3
f 91/4/3 90/4/3 89/4/3
f 92/4/3 90/4/3 91/4/3
f 95/4/3 94/4/3 93/4/3
f 96/4/3 94/4/3 95/4/3
f 99/4/3 98/4/3 97/4/3
f 100/4/3 98/4/3 99/4/3
f 103/4/3 102/4/3 101/4/3
f 104/4/3 102/4/3 103/4/3
f 107/4/3 106/4/3 105/4/3
f 108/4/3 106/4/3 107/4/3
f 111/4/3 110/4/3 109/4/3
f 112/4/3 110/4/3 111/4/3
f 113/4/4 114/4/4 115/4/4
f 115/4/4 114/4/4 116/4/4
f 117/4/4 118/4/4 119/4/4
f 119/4/4 118/4/4 120/4/4
f 121/4/4 122/4/4 123/4/4
f 123/4/4 122/4/4 124/4/4
f 125/4/4 126/4/4 127/4/4
f 127/4/4 126/4/4 128/4/4
f 129/4/4 130/4/4 131/4/4
f 131/4/4 130/4/4 132/4/4
f 133/4/4 134/4/4 135/4/4
f 135/4/4 134/4/4 136/4/4
f 137/4/4 138/4/4 139/4/4
f 139/4/4 138/4/4 140/4/4
f 141/4/4 142/4/4 143/4/4
f 143/4/4 142/4/4 144/4/4
f 145/4/4 146/4/4 147/4/4
f 147/4/4 146/4/4 148/4/4
f 149/4/4 150/4/4 151/4/4
f 151/4/4 150/4/4 152/4/4
f 153/4/4 154/4/4 155/4/4
f 155/4/4 154/4/4 156/4/4
f 157/4/4 158/4/4 159/4/4
f 159/4/4 158/4/4 160/4/4
f 165/4/5 162/4/5 161/4/5
f 166/4/5 162/4/5 165/4/5
f 167/4/5 164/4/5 163/4/5
f 168/4/5 164/4/5 167/4/5
f 169/4/5 162/4/5 166/4/5
f 169/3/5 166/3/5 165/3/5
f 170/4/5 162/4/5 169/4/5
f 173/4/5 167/4/5 163/4/5
f 174/3/5 168/3/5 167/3/5
f 174/4/5 167/4/5 173/4/5
f 175/4/5 171/4/5 170/4/5
f 175/3/5 170/3/5 169/3/5
f 176/4/5 171/4/5 175/4/5
f 177/4/5 173/4/5 172/4/5
f 178/3/5 174/3/5 173/3/5
f 178/4/5 173/4/5 177/4/5
f 179/4/5 165/4/5 161/4/5
f 180/3/5 176/3/5 175/3/5
f 180/4/5 165/4/5 179/4/5
f 180/3/5 169/3/5 165/3/5
f 180/3/5 175/3/5 169/3/5
f 181/3/5 176/3/5 180/3/5
f 182/4/5 177/4/5 176/4/5
f 182/3/5 176/3/5 181/3/5
f 183/3/5 178/3/5 177/3/5
f 183/4/5 177/4/5 182/4/5
f 184/3/5 174/3/5 178/3/5
f 184/3/5 178/3/5 183/3/5
f 184/3/5 168/3/5 174/3/5
f 185/4/5 164/4/5 168/4/5
f 185/3/5 168/3/5 184/3/5
f 186/4/5 164/4/5 185/4/5
f 187/3/5 184/3/5 183/3/5
f 187/3/5 183/3/5 182/3/5
f 187/3/5 182/3/5 181/3/5
f 188/3/5 184/3/5 187/3/5
f 189/4/5 181/4/5 180/4/5
f 190/3/5 187/3/5 181/3/5
f 190/4/5 181/4/5 189/4/5
f 191/3/5 187/3/5 190/3/5
f 192/4/5 188/4/5 187/4/5
f 193/4/5 188/4/5 192/4/5
f 194/3/5 184/3/5 188/3/5
f 195/4/5 185/4/5 184/4/5
f 195/3/5 184/3/5 194/3/5
f 196/4/5 185/4/5 195/4/5
f 197/3/5 187/3/5 191/3/5
f 197/4/5 192/4/5 187/4/5
f 198/4/5 192/4/5 197/4/5
f 201/4/5 188/4/5 193/4/5
f 202/3/5 194/3/5 188/3/5
f 202/4/5 188/4/5 201/4/5
f 203/4/5 191/4/5 190/4/5
f 204/3/5 197/3/5 191/3/5
f 204/4/5 191/4/5 203/4/5
f 204/3/5 198/3/5 197/3/5
f 205/3/5 198/3/5 204/3/5
f 206/4/5 199/4/5 198/4/5
f 206/3/5 198/3/5 205/3/5
f 207/4/5 199/4/5 206/4/5
f 208/4/5 201/4/5 200/4/5
f 209/3/5 202/3/5 201/3/5
f 209/4/5 201/4/5 208/4/5
f 210/3/5 194/3/5 202/3/5
f 210/3/5 202/3/5 209/3/5
f 211/4/5 195/4/5 194/4/5
f 211/3/5 194/3/5 210/3/5
f 212/4/5 195/4/5 211/4/5
f 213/4/5 205/4/5 204/4/5
f 214/3/5 207/3/5 206/3/5
f 214/4/5 205/4/5 213/4/5
f 214/3/5 206/3/5 205/3/5
f 215/3/5 207/3/5 214/3/5
f 216/4/5 208/4/5 207/4/5
f 216/3/5 207/3/5 215/3/5
f 217/3/5 210/3/5 209/3/5
f 217/4/5 208/4/5 216/4/5
f 217/3/5 209/3/5 208/3/5
f 218/3/5 210/3/5 217/3/5
f 219/4/5 211/4/5 210/4/5
f 219/3/5 210/3/5 218/3/5
f 220/4/5 211/4/5 219/4/5
f 221/4/5 215/4/5 214/4/5
f 222/3/5 216/3/5 215/3/5
f 222/4/5 215/4/5 221/4/5
f 222/3/5 218/3/5 217/3/5
f 222/3/5 217/3/5 216/3/5
f 223/4/5 219/4/5 218/4/5
f 223/3/5 218/3/5 222/3/5
f 224/4/5 219/4/5 223/4/5
f 225/4/5 223/4/5 222/4/5
f 226/4/5 223/4/5 225/4/5
f 227/4/6 228/4/6 231/4/6
f 231/4/6 228/4/6 232/4/6
f 232/4/6 228/4/6 233/4/6
f 229/4/6 230/4/6 234/4/6
f 234/4/6 230/4/6 235/4/6
f 235/4/6 230/4/6 236/4/6
f 231/3/6 232/3/6 237/3/6
f 232/1/6 233/1/6 237/1/6
f 233/4/6 228/4/6 238/4/6
f 237/1/6 233/1/6 238/1/6
f 238/4/6 228/4/6 239/4/6
f 229/4/6 234/4/6 242/4/6
f 234/1/6 235/1/6 243/1/6
f 242/4/6 234/4/6 243/4/6
f 235/3/6 236/3/6 244/3/6
f 243/1/6 235/1/6 244/1/6
f 231/3/6 237/3/6 245/3/6
f 227/4/6 231/4/6 245/4/6
f 237/3/6 238/3/6 245/3/6
f 245/3/6 238/3/6 246/3/6
f 238/1/6 239/1/6 247/1/6
f 246/3/6 238/3/6 247/3/6
f 239/4/6 240/4/6 248/4/6
f 247/1/6 239/1/6 248/1/6
f 248/4/6 240/4/6 249/4/6
f 241/4/6 242/4/6 250/4/6
f 242/1/6 243/1/6 251/1/6
f 250/4/6 242/4/6 251/4/6
f 243/3/6 244/3/6 252/3/6
f 251/1/6 243/1/6 252/1/6
f 244/3/6 236/3/6 253/3/6
f 252/3/6 244/3/6 253/3/6
f 236/4/6 230/4/6 254/4/6
f 253/3/6 236/3/6 254/3/6
f 227/4/6 245/4/6 255/4/6
f 245/2/6 246/2/6 256/2/6
f 255/4/6 245/4/6 256/4/6
f 246/3/6 247/3/6 257/3/6
f 256/2/6 246/2/6 257/2/6
f 247/3/6 248/3/6 257/3/6
f 248/1/6 249/1/6 258/1/6
f 257/3/6 248/3/6 258/3/6
f 249/4/6 250/4/6 259/4/6
f 258/1/6 249/1/6 259/1/6
f 250/1/6 251/1/6 260/1/6
f 259/4/6 250/4/6 260/4/6
f 251/3/6 252/3/6 261/3/6
f 260/1/6 251/1/6 261/1/6
f 252/3/6 253/3/6 261/3/6
f 253/2/6 254/2/6 262/2/6
f 261/3/6 253/3/6 262/3/6
f 254/4/6 230/4/6 263/4/6
f 262/2/6 254/2/6 263/2/6
f 263/4/6 230/4/6 264/4/6
f 259/3/6 260/3/6 265/3/6
f 258/3/6 259/3/6 265/3/6
f 257/3/6 258/3/6 265/3/6
f 260/3/6 261/3/6 265/3/6
f 261/3/6 262/3/6 265/3/6
f 256/4/6 257/4/6 265/4/6
f 265/3/6 262/3/6 266/3/6
f 266/3/6 262/3/6 267/3/6
f 267/3/6 262/3/6 268/3/6
f 268/3/6 262/3/6 269/3/6
f 262/4/6 263/4/6 270/4/6
f 269/3/6 262/3/6 270/3/6
f 256/4/6 265/4/6 271/4/6
f 265/2/6 266/2/6 272/2/6
f 271/4/6 265/4/6 272/4/6
f 266/3/6 267/3/6 273/3/6
f 272/2/6 266/2/6 273/2/6
f 267/4/6 268/4/6 274/4/6
f 274/4/6 268/4/6 275/4/6
f 268/3/6 269/3/6 276/3/6
f 269/2/6 270/2/6 276/2/6
f 270/4/6 263/4/6 277/4/6
f 276/2/6 270/2/6 277/2/6
f 277/4/6 263/4/6 278/4/6
f 273/3/6 267/3/6 279/3/6
f 272/4/6 273/4/6 279/4/6
f 267/4/6 274/4/6 280/4/6
f 279/3/6 267/3/6 280/3/6
f 280/4/6 274/4/6 281/4/6
f 275/4/6 268/4/6 284/4/6
f 268/3/6 276/3/6 285/3/6
f 284/4/6 268/4/6 285/4/6
f 276/4/6 277/4/6 286/4/6
f 285/3/6 276/3/6 286/3/6
f 272/4/6 279/4/6 287/4/6
f 279/2/6 280/2/6 288/2/6
f 287/4/6 279/4/6 288/4/6
f 280/3/6 281/3/6 289/3/6
f 288/2/6 280/2/6 289/2/6
f 281/4/6 282/4/6 290/4/6
f 289/3/6 281/3/6 290/3/6
f 290/4/6 282/4/6 291/4/6
f 283/4/6 284/4/6 292/4/6
f 284/3/6 285/3/6 293/3/6
f 292/4/6 284/4/6 293/4/6
f 285/2/6 286/2/6 294/2/6
f 293/3/6 285/3/6 294/3/6
f 286/4/6 277/4/6 295/4/6
f 294/2/6 286/2/6 295/2/6
f 295/4/6 277/4/6 296/4/6
f 288/4/6 289/4/6 297/4/6
f 289/2/6 290/2/6 298/2/6
f 297/4/6 289/4/6 298/4/6
f 290/3/6 291/3/6 299/3/6
f 298/2/6 290/2/6 299/2/6
f 291/4/6 292/4/6 300/4/6
f 299/3/6 291/3/6 300/3/6
f 292/3/6 293/3/6 301/3/6
f 300/4/6 292/4/6 301/4/6
f 293/2/6 294/2/6 302/2/6
f 301/3/6 293/3/6 302/3/6
f 294/4/6 295/4/6 303/4/6
f 302/2/6 294/2/6 303/2/6
f 303/4/6 295/4/6 304/4/6
f 298/4/6 299/4/6 305/4/6
f 300/2/6 301/2/6 306/2/6
f 305/4/6 299/4/6 306/4/6
f 301/2/6 302/2/6 306/2/6
f 299/2/6 300/2/6 306/2/6
f 302/4/6 303/4/6 307/4/6
f 306/2/6 302/2/6 307/2/6
f 307/4/6 303/4/6 308/4/6
f 306/4/6 307/4/6 309/4/6
f 309/4/6 307/4/6 310/4/6
