# MagicaVoxel @ Ephtracy

# group
o 

# material
mtllib i.mtl
usemtl palette

# normals
vn -1 0 0
vn 1 0 0
vn 0 0 1
vn 0 0 -1
vn 0 -1 0
vn 0 1 0

# texcoords
vt 0.908203 0.5
vt 0.939453 0.5
vt 0.970703 0.5
vt 0.974609 0.5

# verts
v -0.4 0 0.5
v -0.4 0 0.3
v -0.4 0 -0.3
v -0.4 0 -0.5
v -0.4 0.3 0.5
v -0.4 0.3 0.3
v -0.4 0.3 -0.3
v -0.4 0.3 -0.5
v -0.3 0 0.6
v -0.3 0 0.5
v -0.3 0 0.3
v -0.3 0 0.2
v -0.3 0 -0.2
v -0.3 0 -0.3
v -0.3 0 -0.5
v -0.3 0 -0.6
v -0.3 0.3 0.6
v -0.3 0.3 0.5
v -0.3 0.3 0.3
v -0.3 0.3 0.2
v -0.3 0.3 -0.2
v -0.3 0.3 -0.3
v -0.3 0.3 -0.5
v -0.3 0.3 -0.6
v -0.2 0 0.2
v -0.2 0 -0.2
v -0.2 0.3 0.2
v -0.2 0.3 -0.2
v 0.2 0 0.2
v 0.2 0 -0.2
v 0.2 0.3 0.2
v 0.2 0.3 -0.2
v 0.3 0 0.6
v 0.3 0 0.5
v 0.3 0 0.3
v 0.3 0 0.2
v 0.3 0 -0.2
v 0.3 0 -0.3
v 0.3 0 -0.5
v 0.3 0 -0.6
v 0.3 0.3 0.6
v 0.3 0.3 0.5
v 0.3 0.3 0.3
v 0.3 0.3 0.2
v 0.3 0.3 -0.2
v 0.3 0.3 -0.3
v 0.3 0.3 -0.5
v 0.3 0.3 -0.6
v 0.4 0 0.5
v 0.4 0 0.3
v 0.4 0 -0.3
v 0.4 0 -0.5
v 0.4 0.3 0.5
v 0.4 0.3 0.3
v 0.4 0.3 -0.3
v 0.4 0.3 -0.5
v -0.3 0 0.6
v -0.3 0.3 0.6
v 0.3 0 0.6
v 0.3 0.3 0.6
v -0.4 0 0.5
v -0.4 0.3 0.5
v -0.3 0 0.5
v -0.3 0.3 0.5
v 0.3 0 0.5
v 0.3 0.3 0.5
v 0.4 0 0.5
v 0.4 0.3 0.5
v -0.3 0 -0.2
v -0.3 0.3 -0.2
v -0.2 0 -0.2
v -0.2 0.3 -0.2
v 0.2 0 -0.2
v 0.2 0.3 -0.2
v 0.3 0 -0.2
v 0.3 0.3 -0.2
v -0.4 0 -0.3
v -0.4 0.3 -0.3
v -0.3 0 -0.3
v -0.3 0.3 -0.3
v 0.3 0 -0.3
v 0.3 0.3 -0.3
v 0.4 0 -0.3
v 0.4 0.3 -0.3
v -0.4 0 0.3
v -0.4 0.3 0.3
v -0.3 0 0.3
v -0.3 0.3 0.3
v 0.3 0 0.3
v 0.3 0.3 0.3
v 0.4 0 0.3
v 0.4 0.3 0.3
v -0.3 0 0.2
v -0.3 0.3 0.2
v -0.2 0 0.2
v -0.2 0.3 0.2
v 0.2 0 0.2
v 0.2 0.3 0.2
v 0.3 0 0.2
v 0.3 0.3 0.2
v -0.4 0 -0.5
v -0.4 0.3 -0.5
v -0.3 0 -0.5
v -0.3 0.3 -0.5
v 0.3 0 -0.5
v 0.3 0.3 -0.5
v 0.4 0 -0.5
v 0.4 0.3 -0.5
v -0.3 0 -0.6
v -0.3 0.3 -0.6
v 0.3 0 -0.6
v 0.3 0.3 -0.6
v -0.3 0 0.6
v 0.3 0 0.6
v -0.4 0 0.5
v -0.3 0 0.5
v 0.3 0 0.5
v 0.4 0 0.5
v -0.4 0 0.3
v -0.3 0 0.3
v -0.1 0 0.3
v 0.1 0 0.3
v 0.3 0 0.3
v 0.4 0 0.3
v -0.3 0 0.2
v -0.2 0 0.2
v 0.2 0 0.2
v 0.3 0 0.2
v -0.3 0 -0.2
v -0.2 0 -0.2
v 0.2 0 -0.2
v 0.3 0 -0.2
v -0.4 0 -0.3
v -0.3 0 -0.3
v -0.1 0 -0.3
v 0.1 0 -0.3
v 0.3 0 -0.3
v 0.4 0 -0.3
v -0.4 0 -0.5
v -0.3 0 -0.5
v 0.3 0 -0.5
v 0.4 0 -0.5
v -0.3 0 -0.6
v 0.3 0 -0.6
v -0.3 0.3 0.6
v 0.3 0.3 0.6
v -0.4 0.3 0.5
v -0.3 0.3 0.5
v 0.3 0.3 0.5
v 0.4 0.3 0.5
v -0.3 0.3 0.4
v 0.3 0.3 0.4
v -0.4 0.3 0.3
v -0.3 0.3 0.3
v -0.1 0.3 0.3
v 0.1 0.3 0.3
v 0.3 0.3 0.3
v 0.4 0.3 0.3
v -0.3 0.3 0.2
v -0.2 0.3 0.2
v 0.2 0.3 0.2
v 0.3 0.3 0.2
v -0.3 0.3 -0.2
v -0.2 0.3 -0.2
v 0.2 0.3 -0.2
v 0.3 0.3 -0.2
v -0.4 0.3 -0.3
v -0.3 0.3 -0.3
v -0.1 0.3 -0.3
v 0.1 0.3 -0.3
v 0.3 0.3 -0.3
v 0.4 0.3 -0.3
v -0.3 0.3 -0.4
v 0.3 0.3 -0.4
v -0.4 0.3 -0.5
v -0.3 0.3 -0.5
v 0.3 0.3 -0.5
v 0.4 0.3 -0.5
v -0.3 0.3 -0.6
v 0.3 0.3 -0.6

# faces
f 5/4/1 2/4/1 1/4/1
f 6/4/1 2/4/1 5/4/1
f 7/4/1 4/4/1 3/4/1
f 8/4/1 4/4/1 7/4/1
f 17/4/1 10/4/1 9/4/1
f 18/4/1 10/4/1 17/4/1
f 19/4/1 12/4/1 11/4/1
f 20/4/1 12/4/1 19/4/1
f 21/4/1 14/4/1 13/4/1
f 22/4/1 14/4/1 21/4/1
f 23/4/1 16/4/1 15/4/1
f 24/4/1 16/4/1 23/4/1
f 27/4/1 26/4/1 25/4/1
f 28/4/1 26/4/1 27/4/1
f 29/4/2 30/4/2 31/4/2
f 31/4/2 30/4/2 32/4/2
f 33/4/2 34/4/2 41/4/2
f 41/4/2 34/4/2 42/4/2
f 35/4/2 36/4/2 43/4/2
f 43/4/2 36/4/2 44/4/2
f 37/4/2 38/4/2 45/4/2
f 45/4/2 38/4/2 46/4/2
f 39/4/2 40/4/2 47/4/2
f 47/4/2 40/4/2 48/4/2
f 49/4/2 50/4/2 53/4/2
f 53/4/2 50/4/2 54/4/2
f 51/4/2 52/4/2 55/4/2
f 55/4/2 52/4/2 56/4/2
f 59/4/3 58/4/3 57/4/3
f 60/4/3 58/4/3 59/4/3
f 63/4/3 62/4/3 61/4/3
f 64/4/3 62/4/3 63/4/3
f 67/4/3 66/4/3 65/4/3
f 68/4/3 66/4/3 67/4/3
f 71/4/3 70/4/3 69/4/3
f 72/4/3 70/4/3 71/4/3
f 75/4/3 74/4/3 73/4/3
f 76/4/3 74/4/3 75/4/3
f 79/4/3 78/4/3 77/4/3
f 80/4/3 78/4/3 79/4/3
f 83/4/3 82/4/3 81/4/3
f 84/4/3 82/4/3 83/4/3
f 85/4/4 86/4/4 87/4/4
f 87/4/4 86/4/4 88/4/4
f 89/4/4 90/4/4 91/4/4
f 91/4/4 90/4/4 92/4/4
f 93/4/4 94/4/4 95/4/4
f 95/4/4 94/4/4 96/4/4
f 97/4/4 98/4/4 99/4/4
f 99/4/4 98/4/4 100/4/4
f 101/4/4 102/4/4 103/4/4
f 103/4/4 102/4/4 104/4/4
f 105/4/4 106/4/4 107/4/4
f 107/4/4 106/4/4 108/4/4
f 109/4/4 110/4/4 111/4/4
f 111/4/4 110/4/4 112/4/4
f 116/4/5 114/4/5 113/4/5
f 117/4/5 114/4/5 116/4/5
f 119/4/5 116/4/5 115/4/5
f 120/3/5 117/3/5 116/3/5
f 120/4/5 116/4/5 119/4/5
f 121/3/5 117/3/5 120/3/5
f 122/3/5 117/3/5 121/3/5
f 123/4/5 118/4/5 117/4/5
f 123/3/5 117/3/5 122/3/5
f 124/4/5 118/4/5 123/4/5
f 125/4/5 121/4/5 120/4/5
f 126/4/5 121/4/5 125/4/5
f 127/4/5 123/4/5 122/4/5
f 128/4/5 123/4/5 127/4/5
f 130/4/5 121/4/5 126/4/5
f 131/4/5 127/4/5 122/4/5
f 134/4/5 130/4/5 129/4/5
f 135/3/5 122/3/5 121/3/5
f 135/4/5 121/4/5 130/4/5
f 135/4/5 130/4/5 134/4/5
f 136/4/5 132/4/5 131/4/5
f 136/3/5 122/3/5 135/3/5
f 136/4/5 131/4/5 122/4/5
f 137/4/5 132/4/5 136/4/5
f 139/4/5 134/4/5 133/4/5
f 140/3/5 135/3/5 134/3/5
f 140/4/5 134/4/5 139/4/5
f 140/3/5 137/3/5 136/3/5
f 140/3/5 136/3/5 135/3/5
f 141/4/5 138/4/5 137/4/5
f 141/3/5 137/3/5 140/3/5
f 142/4/5 138/4/5 141/4/5
f 143/4/5 141/4/5 140/4/5
f 144/4/5 141/4/5 143/4/5
f 145/4/6 146/4/6 148/4/6
f 148/4/6 146/4/6 149/4/6
f 147/4/6 148/4/6 151/4/6
f 148/1/6 149/1/6 151/1/6
f 149/4/6 150/4/6 152/4/6
f 151/1/6 149/1/6 152/1/6
f 147/4/6 151/4/6 153/4/6
f 151/3/6 152/3/6 154/3/6
f 153/4/6 151/4/6 154/4/6
f 154/3/6 152/3/6 155/3/6
f 155/3/6 152/3/6 156/3/6
f 152/4/6 150/4/6 157/4/6
f 156/3/6 152/3/6 157/3/6
f 157/4/6 150/4/6 158/4/6
f 154/4/6 155/4/6 159/4/6
f 159/4/6 155/4/6 160/4/6
f 156/4/6 157/4/6 161/4/6
f 161/4/6 157/4/6 162/4/6
f 160/4/6 155/4/6 164/4/6
f 156/4/6 161/4/6 165/4/6
f 163/4/6 164/4/6 168/4/6
f 155/3/6 156/3/6 169/3/6
f 164/4/6 155/4/6 169/4/6
f 168/4/6 164/4/6 169/4/6
f 165/4/6 166/4/6 170/4/6
f 169/3/6 156/3/6 170/3/6
f 156/4/6 165/4/6 170/4/6
f 170/4/6 166/4/6 171/4/6
f 167/4/6 168/4/6 173/4/6
f 168/3/6 169/3/6 173/3/6
f 169/3/6 170/3/6 173/3/6
f 170/3/6 171/3/6 173/3/6
f 171/4/6 172/4/6 174/4/6
f 173/3/6 171/3/6 174/3/6
f 167/4/6 173/4/6 175/4/6
f 173/2/6 174/2/6 176/2/6
f 175/4/6 173/4/6 176/4/6
f 174/4/6 172/4/6 177/4/6
f 176/2/6 174/2/6 177/2/6
f 177/4/6 172/4/6 178/4/6
f 176/4/6 177/4/6 179/4/6
f 179/4/6 177/4/6 180/4/6
