# MagicaVoxel @ Ephtracy

# group
o 

# material
mtllib s.mtl
usemtl palette

# normals
vn -1 0 0
vn 1 0 0
vn 0 0 1
vn 0 0 -1
vn 0 -1 0
vn 0 1 0

# texcoords
vt 0.908203 0.5
vt 0.939453 0.5
vt 0.970703 0.5
vt 0.974609 0.5

# verts
v -0.4 0 0.4
v -0.4 0 0.2
v -0.4 0 -0.1
v -0.4 0 -0.4
v -0.4 0.3 0.4
v -0.4 0.3 0.2
v -0.4 0.3 -0.1
v -0.4 0.3 -0.4
v -0.3 0 0.5
v -0.3 0 0.4
v -0.3 0 0.2
v -0.3 0 0.1
v -0.3 0 5.96046e-08
v -0.3 0 -0.1
v -0.3 0 -0.4
v -0.3 0 -0.5
v -0.3 0.3 0.5
v -0.3 0.3 0.4
v -0.3 0.3 0.2
v -0.3 0.3 0.1
v -0.3 0.3 5.96046e-08
v -0.3 0.3 -0.1
v -0.3 0.3 -0.4
v -0.3 0.3 -0.5
v -0.2 0 0.6
v -0.2 0 0.5
v -0.2 0 0.1
v -0.2 0 5.96046e-08
v -0.2 0 -0.5
v -0.2 0 -0.6
v -0.2 0.3 0.6
v -0.2 0.3 0.5
v -0.2 0.3 0.1
v -0.2 0.3 5.96046e-08
v -0.2 0.3 -0.5
v -0.2 0.3 -0.6
v 0.3 0 0.6
v 0.3 0 0.5
v 0.3 0 5.96046e-08
v 0.3 0 -0.1
v 0.3 0 -0.5
v 0.3 0 -0.6
v 0.3 0.3 0.6
v 0.3 0.3 0.5
v 0.3 0.3 5.96046e-08
v 0.3 0.3 -0.1
v 0.3 0.3 -0.5
v 0.3 0.3 -0.6
v 0.4 0 0.5
v 0.4 0 0.4
v 0.4 0 0.1
v 0.4 0 5.96046e-08
v 0.4 0 -0.1
v 0.4 0 -0.2
v 0.4 0 -0.4
v 0.4 0 -0.5
v 0.4 0.3 0.5
v 0.4 0.3 0.4
v 0.4 0.3 0.1
v 0.4 0.3 5.96046e-08
v 0.4 0.3 -0.1
v 0.4 0.3 -0.2
v 0.4 0.3 -0.4
v 0.4 0.3 -0.5
v 0.5 0 0.4
v 0.5 0 0.1
v 0.5 0 -0.2
v 0.5 0 -0.4
v 0.5 0.3 0.4
v 0.5 0.3 0.1
v 0.5 0.3 -0.2
v 0.5 0.3 -0.4
v -0.2 0 0.6
v -0.2 0.3 0.6
v 0.3 0 0.6
v 0.3 0.3 0.6
v -0.3 0 0.5
v -0.3 0.3 0.5
v -0.2 0 0.5
v -0.2 0.3 0.5
v 0.3 0 0.5
v 0.3 0.3 0.5
v 0.4 0 0.5
v 0.4 0.3 0.5
v -0.4 0 0.4
v -0.4 0.3 0.4
v -0.3 0 0.4
v -0.3 0.3 0.4
v 0.4 0 0.4
v 0.4 0.3 0.4
v 0.5 0 0.4
v 0.5 0.3 0.4
v -0.3 0 5.96046e-08
v -0.3 0.3 5.96046e-08
v -0.2 0 5.96046e-08
v -0.2 0.3 5.96046e-08
v -0.4 0 -0.1
v -0.4 0.3 -0.1
v -0.3 0 -0.1
v -0.3 0.3 -0.1
v 0.3 0 -0.1
v 0.3 0.3 -0.1
v 0.4 0 -0.1
v 0.4 0.3 -0.1
v 0.4 0 -0.2
v 0.4 0.3 -0.2
v 0.5 0 -0.2
v 0.5 0.3 -0.2
v -0.4 0 0.2
v -0.4 0.3 0.2
v -0.3 0 0.2
v -0.3 0.3 0.2
v -0.3 0 0.1
v -0.3 0.3 0.1
v -0.2 0 0.1
v -0.2 0.3 0.1
v 0.4 0 0.1
v 0.4 0.3 0.1
v 0.5 0 0.1
v 0.5 0.3 0.1
v 0.3 0 5.96046e-08
v 0.3 0.3 5.96046e-08
v 0.4 0 5.96046e-08
v 0.4 0.3 5.96046e-08
v -0.4 0 -0.4
v -0.4 0.3 -0.4
v -0.3 0 -0.4
v -0.3 0.3 -0.4
v 0.4 0 -0.4
v 0.4 0.3 -0.4
v 0.5 0 -0.4
v 0.5 0.3 -0.4
v -0.3 0 -0.5
v -0.3 0.3 -0.5
v -0.2 0 -0.5
v -0.2 0.3 -0.5
v 0.3 0 -0.5
v 0.3 0.3 -0.5
v 0.4 0 -0.5
v 0.4 0.3 -0.5
v -0.2 0 -0.6
v -0.2 0.3 -0.6
v 0.3 0 -0.6
v 0.3 0.3 -0.6
v -0.2 0 0.6
v 0.3 0 0.6
v -0.3 0 0.5
v -0.2 0 0.5
v 0.3 0 0.5
v 0.4 0 0.5
v -0.4 0 0.4
v -0.3 0 0.4
v -0.2 0 0.4
v 0.3 0 0.4
v 0.4 0 0.4
v 0.5 0 0.4
v -0.1 0 0.3
v 0.2 0 0.3
v -0.4 0 0.2
v -0.3 0 0.2
v -0.1 0 0.2
v 0.1 0 0.2
v 0.2 0 0.2
v -0.3 0 0.1
v -0.2 0 0.1
v 0 0 0.1
v 0.1 0 0.1
v 0.3 0 0.1
v 0.4 0 0.1
v 0.5 0 0.1
v -0.3 0 5.96046e-08
v -0.2 0 5.96046e-08
v 0 0 5.96046e-08
v 0.2 0 5.96046e-08
v 0.3 0 5.96046e-08
v 0.4 0 5.96046e-08
v -0.4 0 -0.1
v -0.3 0 -0.1
v -0.2 0 -0.1
v 0 0 -0.1
v 0.2 0 -0.1
v 0.3 0 -0.1
v 0.4 0 -0.1
v -0.1 0 -0.2
v 0 0 -0.2
v 0.2 0 -0.2
v 0.4 0 -0.2
v 0.5 0 -0.2
v -0.1 0 -0.3
v 0.2 0 -0.3
v -0.4 0 -0.4
v -0.3 0 -0.4
v -0.2 0 -0.4
v 0.3 0 -0.4
v 0.4 0 -0.4
v 0.5 0 -0.4
v -0.3 0 -0.5
v -0.2 0 -0.5
v 0.3 0 -0.5
v 0.4 0 -0.5
v -0.2 0 -0.6
v 0.3 0 -0.6
v -0.2 0.3 0.6
v 0.3 0.3 0.6
v -0.3 0.3 0.5
v -0.2 0.3 0.5
v 0.3 0.3 0.5
v 0.4 0.3 0.5
v -0.4 0.3 0.4
v -0.3 0.3 0.4
v -0.2 0.3 0.4
v 0.3 0.3 0.4
v 0.4 0.3 0.4
v 0.5 0.3 0.4
v -0.3 0.3 0.3
v -0.2 0.3 0.3
v -0.1 0.3 0.3
v 0.2 0.3 0.3
v 0.3 0.3 0.3
v 0.4 0.3 0.3
v -0.4 0.3 0.2
v -0.3 0.3 0.2
v -0.1 0.3 0.2
v 0.1 0.3 0.2
v 0.2 0.3 0.2
v 0.3 0.3 0.2
v 0.4 0.3 0.2
v -0.3 0.3 0.1
v -0.2 0.3 0.1
v 0 0.3 0.1
v 0.1 0.3 0.1
v 0.2 0.3 0.1
v 0.3 0.3 0.1
v 0.4 0.3 0.1
v 0.5 0.3 0.1
v -0.3 0.3 5.96046e-08
v -0.2 0.3 5.96046e-08
v -0.1 0.3 5.96046e-08
v 0 0.3 5.96046e-08
v 0.1 0.3 5.96046e-08
v 0.2 0.3 5.96046e-08
v 0.3 0.3 5.96046e-08
v 0.4 0.3 5.96046e-08
v -0.4 0.3 -0.1
v -0.3 0.3 -0.1
v -0.2 0.3 -0.1
v -0.1 0.3 -0.1
v 0 0.3 -0.1
v 0.1 0.3 -0.1
v 0.2 0.3 -0.1
v 0.3 0.3 -0.1
v 0.4 0.3 -0.1
v -0.3 0.3 -0.2
v -0.2 0.3 -0.2
v -0.1 0.3 -0.2
v 0 0.3 -0.2
v 0.2 0.3 -0.2
v 0.4 0.3 -0.2
v 0.5 0.3 -0.2
v -0.3 0.3 -0.3
v -0.2 0.3 -0.3
v -0.1 0.3 -0.3
v 0.2 0.3 -0.3
v 0.3 0.3 -0.3
v 0.4 0.3 -0.3
v -0.4 0.3 -0.4
v -0.3 0.3 -0.4
v -0.2 0.3 -0.4
v 0.3 0.3 -0.4
v 0.4 0.3 -0.4
v 0.5 0.3 -0.4
v -0.3 0.3 -0.5
v -0.2 0.3 -0.5
v 0.3 0.3 -0.5
v 0.4 0.3 -0.5
v -0.2 0.3 -0.6
v 0.3 0.3 -0.6

# faces
f 5/4/1 2/4/1 1/4/1
f 6/4/1 2/4/1 5/4/1
f 7/4/1 4/4/1 3/4/1
f 8/4/1 4/4/1 7/4/1
f 17/4/1 10/4/1 9/4/1
f 18/4/1 10/4/1 17/4/1
f 19/4/1 12/4/1 11/4/1
f 20/4/1 12/4/1 19/4/1
f 21/4/1 14/4/1 13/4/1
f 22/4/1 14/4/1 21/4/1
f 23/4/1 16/4/1 15/4/1
f 24/4/1 16/4/1 23/4/1
f 31/4/1 26/4/1 25/4/1
f 32/4/1 26/4/1 31/4/1
f 33/4/1 28/4/1 27/4/1
f 34/4/1 28/4/1 33/4/1
f 35/4/1 30/4/1 29/4/1
f 36/4/1 30/4/1 35/4/1
f 37/4/2 38/4/2 43/4/2
f 43/4/2 38/4/2 44/4/2
f 39/4/2 40/4/2 45/4/2
f 45/4/2 40/4/2 46/4/2
f 41/4/2 42/4/2 47/4/2
f 47/4/2 42/4/2 48/4/2
f 49/4/2 50/4/2 57/4/2
f 57/4/2 50/4/2 58/4/2
f 51/4/2 52/4/2 59/4/2
f 59/4/2 52/4/2 60/4/2
f 53/4/2 54/4/2 61/4/2
f 61/4/2 54/4/2 62/4/2
f 55/4/2 56/4/2 63/4/2
f 63/4/2 56/4/2 64/4/2
f 65/4/2 66/4/2 69/4/2
f 69/4/2 66/4/2 70/4/2
f 67/4/2 68/4/2 71/4/2
f 71/4/2 68/4/2 72/4/2
f 75/4/3 74/4/3 73/4/3
f 76/4/3 74/4/3 75/4/3
f 79/4/3 78/4/3 77/4/3
f 80/4/3 78/4/3 79/4/3
f 83/4/3 82/4/3 81/4/3
f 84/4/3 82/4/3 83/4/3
f 87/4/3 86/4/3 85/4/3
f 88/4/3 86/4/3 87/4/3
f 91/4/3 90/4/3 89/4/3
f 92/4/3 90/4/3 91/4/3
f 95/4/3 94/4/3 93/4/3
f 96/4/3 94/4/3 95/4/3
f 99/4/3 98/4/3 97/4/3
f 100/4/3 98/4/3 99/4/3
f 103/4/3 102/4/3 101/4/3
f 104/4/3 102/4/3 103/4/3
f 107/4/3 106/4/3 105/4/3
f 108/4/3 106/4/3 107/4/3
f 109/4/4 110/4/4 111/4/4
f 111/4/4 110/4/4 112/4/4
f 113/4/4 114/4/4 115/4/4
f 115/4/4 114/4/4 116/4/4
f 117/4/4 118/4/4 119/4/4
f 119/4/4 118/4/4 120/4/4
f 121/4/4 122/4/4 123/4/4
f 123/4/4 122/4/4 124/4/4
f 125/4/4 126/4/4 127/4/4
f 127/4/4 126/4/4 128/4/4
f 129/4/4 130/4/4 131/4/4
f 131/4/4 130/4/4 132/4/4
f 133/4/4 134/4/4 135/4/4
f 135/4/4 134/4/4 136/4/4
f 137/4/4 138/4/4 139/4/4
f 139/4/4 138/4/4 140/4/4
f 141/4/4 142/4/4 143/4/4
f 143/4/4 142/4/4 144/4/4
f 148/4/5 146/4/5 145/4/5
f 149/4/5 146/4/5 148/4/5
f 152/4/5 148/4/5 147/4/5
f 153/3/5 149/3/5 148/3/5
f 153/4/5 148/4/5 152/4/5
f 154/4/5 150/4/5 149/4/5
f 154/3/5 149/3/5 153/3/5
f 155/4/5 150/4/5 154/4/5
f 157/3/5 153/3/5 152/3/5
f 157/3/5 154/3/5 153/3/5
f 157/3/5 155/3/5 154/3/5
f 158/3/5 155/3/5 157/3/5
f 159/4/5 152/4/5 151/4/5
f 160/3/5 157/3/5 152/3/5
f 160/4/5 152/4/5 159/4/5
f 161/4/5 158/4/5 157/4/5
f 161/3/5 157/3/5 160/3/5
f 162/4/5 158/4/5 161/4/5
f 163/3/5 155/3/5 158/3/5
f 163/4/5 158/4/5 162/4/5
f 164/4/5 162/4/5 161/4/5
f 164/4/5 161/4/5 160/4/5
f 165/4/5 162/4/5 164/4/5
f 166/4/5 162/4/5 165/4/5
f 167/3/5 163/3/5 162/3/5
f 167/4/5 162/4/5 166/4/5
f 168/3/5 155/3/5 163/3/5
f 168/3/5 163/3/5 167/3/5
f 169/4/5 156/4/5 155/4/5
f 169/3/5 155/3/5 168/3/5
f 170/4/5 156/4/5 169/4/5
f 172/4/5 166/4/5 165/4/5
f 173/3/5 168/3/5 167/3/5
f 173/3/5 167/3/5 166/3/5
f 173/4/5 166/4/5 172/4/5
f 174/3/5 168/3/5 173/3/5
f 175/4/5 169/4/5 168/4/5
f 175/3/5 168/3/5 174/3/5
f 176/4/5 169/4/5 175/4/5
f 178/4/5 172/4/5 171/4/5
f 179/3/5 174/3/5 173/3/5
f 179/3/5 173/3/5 172/3/5
f 179/4/5 172/4/5 178/4/5
f 180/3/5 174/3/5 179/3/5
f 181/4/5 175/4/5 174/4/5
f 181/3/5 174/3/5 180/3/5
f 182/4/5 175/4/5 181/4/5
f 184/3/5 180/3/5 179/3/5
f 184/3/5 179/3/5 178/3/5
f 185/4/5 183/4/5 182/4/5
f 185/3/5 180/3/5 184/3/5
f 185/4/5 182/4/5 181/4/5
f 185/4/5 181/4/5 180/4/5
f 186/4/5 183/4/5 185/4/5
f 187/4/5 183/4/5 186/4/5
f 189/3/5 184/3/5 178/3/5
f 189/4/5 185/4/5 184/4/5
f 189/4/5 186/4/5 185/4/5
f 190/3/5 187/3/5 186/3/5
f 190/4/5 186/4/5 189/4/5
f 191/4/5 178/4/5 177/4/5
f 192/3/5 189/3/5 178/3/5
f 192/4/5 178/4/5 191/4/5
f 192/3/5 190/3/5 189/3/5
f 193/3/5 190/3/5 192/3/5
f 194/3/5 187/3/5 190/3/5
f 194/3/5 190/3/5 193/3/5
f 195/4/5 188/4/5 187/4/5
f 195/3/5 187/3/5 194/3/5
f 196/4/5 188/4/5 195/4/5
f 197/4/5 193/4/5 192/4/5
f 198/3/5 194/3/5 193/3/5
f 198/4/5 193/4/5 197/4/5
f 199/4/5 195/4/5 194/4/5
f 199/3/5 194/3/5 198/3/5
f 200/4/5 195/4/5 199/4/5
f 201/4/5 199/4/5 198/4/5
f 202/4/5 199/4/5 201/4/5
f 203/4/6 204/4/6 206/4/6
f 206/4/6 204/4/6 207/4/6
f 205/4/6 206/4/6 210/4/6
f 206/1/6 207/1/6 211/1/6
f 210/4/6 206/4/6 211/4/6
f 207/4/6 208/4/6 212/4/6
f 211/1/6 207/1/6 212/1/6
f 212/4/6 208/4/6 213/4/6
f 210/1/6 211/1/6 215/1/6
f 209/4/6 210/4/6 215/4/6
f 211/3/6 212/3/6 216/3/6
f 215/1/6 211/1/6 216/1/6
f 216/3/6 212/3/6 217/3/6
f 217/3/6 212/3/6 218/3/6
f 212/1/6 213/1/6 219/1/6
f 218/3/6 212/3/6 219/3/6
f 213/4/6 214/4/6 220/4/6
f 219/1/6 213/1/6 220/1/6
f 209/4/6 215/4/6 221/4/6
f 215/2/6 216/2/6 222/2/6
f 221/4/6 215/4/6 222/4/6
f 216/2/6 217/2/6 222/2/6
f 217/4/6 218/4/6 223/4/6
f 222/2/6 217/2/6 223/2/6
f 223/4/6 218/4/6 224/4/6
f 218/3/6 219/3/6 225/3/6
f 224/4/6 218/4/6 225/4/6
f 219/3/6 220/3/6 225/3/6
f 225/3/6 220/3/6 226/3/6
f 220/4/6 214/4/6 227/4/6
f 226/3/6 220/3/6 227/3/6
f 223/4/6 224/4/6 228/4/6
f 222/4/6 223/4/6 228/4/6
f 228/4/6 224/4/6 229/4/6
f 229/4/6 224/4/6 230/4/6
f 224/1/6 225/1/6 231/1/6
f 230/4/6 224/4/6 231/4/6
f 225/3/6 226/3/6 232/3/6
f 231/1/6 225/1/6 232/1/6
f 226/2/6 227/2/6 233/2/6
f 232/3/6 226/3/6 233/3/6
f 227/4/6 214/4/6 234/4/6
f 233/2/6 227/2/6 234/2/6
f 234/4/6 214/4/6 235/4/6
f 229/4/6 230/4/6 237/4/6
f 237/4/6 230/4/6 238/4/6
f 230/1/6 231/1/6 239/1/6
f 238/4/6 230/4/6 239/4/6
f 231/3/6 232/3/6 240/3/6
f 239/1/6 231/1/6 240/1/6
f 232/2/6 233/2/6 241/2/6
f 240/3/6 232/3/6 241/3/6
f 233/4/6 234/4/6 242/4/6
f 241/2/6 233/2/6 242/2/6
f 242/4/6 234/4/6 243/4/6
f 236/4/6 237/4/6 245/4/6
f 237/1/6 238/1/6 246/1/6
f 245/4/6 237/4/6 246/4/6
f 239/3/6 240/3/6 247/3/6
f 246/1/6 238/1/6 247/1/6
f 238/3/6 239/3/6 247/3/6
f 247/3/6 240/3/6 248/3/6
f 240/2/6 241/2/6 249/2/6
f 248/3/6 240/3/6 249/3/6
f 241/4/6 242/4/6 250/4/6
f 249/2/6 241/2/6 250/2/6
f 250/4/6 242/4/6 251/4/6
f 245/1/6 246/1/6 253/1/6
f 244/4/6 245/4/6 253/4/6
f 246/3/6 247/3/6 254/3/6
f 253/1/6 246/1/6 254/1/6
f 247/2/6 248/2/6 255/2/6
f 254/3/6 247/3/6 255/3/6
f 251/4/6 252/4/6 256/4/6
f 255/2/6 248/2/6 256/2/6
f 250/4/6 251/4/6 256/4/6
f 249/4/6 250/4/6 256/4/6
f 248/4/6 249/4/6 256/4/6
f 256/4/6 252/4/6 257/4/6
f 257/4/6 252/4/6 258/4/6
f 254/3/6 255/3/6 260/3/6
f 244/4/6 253/4/6 260/4/6
f 253/3/6 254/3/6 260/3/6
f 260/3/6 255/3/6 261/3/6
f 256/4/6 257/4/6 262/4/6
f 261/3/6 255/3/6 262/3/6
f 255/4/6 256/4/6 262/4/6
f 257/1/6 258/1/6 263/1/6
f 262/4/6 257/4/6 263/4/6
f 263/1/6 258/1/6 264/1/6
f 258/4/6 259/4/6 265/4/6
f 264/1/6 258/1/6 265/1/6
f 244/4/6 260/4/6 266/4/6
f 260/2/6 261/2/6 267/2/6
f 266/4/6 260/4/6 267/4/6
f 263/3/6 264/3/6 268/3/6
f 267/2/6 261/2/6 268/2/6
f 261/3/6 262/3/6 268/3/6
f 262/3/6 263/3/6 268/3/6
f 264/2/6 265/2/6 269/2/6
f 268/3/6 264/3/6 269/3/6
f 265/4/6 259/4/6 270/4/6
f 269/2/6 265/2/6 270/2/6
f 270/4/6 259/4/6 271/4/6
f 267/4/6 268/4/6 272/4/6
f 268/2/6 269/2/6 273/2/6
f 272/4/6 268/4/6 273/4/6
f 269/4/6 270/4/6 274/4/6
f 273/2/6 269/2/6 274/2/6
f 274/4/6 270/4/6 275/4/6
f 273/4/6 274/4/6 276/4/6
f 276/4/6 274/4/6 277/4/6
