# MagicaVoxel @ Ephtracy

# group
o 

# material
mtllib fireball.mtl
usemtl palette

# normals
vn -1 0 0
vn 1 0 0
vn 0 0 1
vn 0 0 -1
vn 0 -1 0
vn 0 1 0

# texcoords
vt 0.939453 0.5
vt 0.943359 0.5
vt 0.947266 0.5
vt 0.951172 0.5
vt 0.970703 0.5

# verts
v -0.4 0.2 0.1
v -0.4 0.2 0
v -0.4 0.3 0.1
v -0.4 0.3 0
v -0.2 0.2 0.2
v -0.2 0.2 0.1
v -0.2 0.2 0
v -0.2 0.2 -0.1
v -0.2 0.3 0.2
v -0.2 0.3 0.1
v -0.2 0.3 0
v -0.2 0.3 -0.1
v -0.1 0.1 0.1
v -0.1 0.1 0
v -0.1 0.2 0.1
v -0.1 0.2 0
v -0.1 0.3 0.1
v -0.1 0.3 0
v -0.1 0.4 0.1
v -0.1 0.4 0
v 0.1 0.1 0.2
v 0.1 0.1 0.1
v 0.1 0.1 0
v 0.1 0.1 -0.1
v 0.1 0.2 0.2
v 0.1 0.2 0.1
v 0.1 0.2 0
v 0.1 0.2 -0.1
v 0.1 0.3 0.2
v 0.1 0.3 0.1
v 0.1 0.3 0
v 0.1 0.3 -0.1
v 0.1 0.4 0.2
v 0.1 0.4 0.1
v 0.1 0.4 0
v 0.1 0.4 -0.1
v 0.3 0.1 0.2
v 0.3 0.1 0.1
v 0.3 0.1 0
v 0.3 0.1 -0.1
v 0.3 0.2 0.2
v 0.3 0.2 0.1
v 0.3 0.2 0
v 0.3 0.2 -0.1
v 0.3 0.3 0.2
v 0.3 0.3 0.1
v 0.3 0.3 0
v 0.3 0.3 -0.1
v 0.3 0.4 0.2
v 0.3 0.4 0.1
v 0.3 0.4 0
v 0.3 0.4 -0.1
v 0.4 0.1 0.1
v 0.4 0.1 0
v 0.4 0.2 0.2
v 0.4 0.2 0.1
v 0.4 0.2 0
v 0.4 0.2 -0.1
v 0.4 0.3 0.2
v 0.4 0.3 0.1
v 0.4 0.3 0
v 0.4 0.3 -0.1
v 0.4 0.4 0.1
v 0.4 0.4 0
v -0.2 0.2 0.2
v -0.2 0.3 0.2
v -0.1 0.2 0.2
v -0.1 0.3 0.2
v 0.1 0.1 0.2
v 0.1 0.2 0.2
v 0.1 0.3 0.2
v 0.1 0.4 0.2
v 0.2 0.1 0.2
v 0.2 0.2 0.2
v 0.2 0.3 0.2
v 0.2 0.4 0.2
v 0.3 0.1 0.2
v 0.3 0.2 0.2
v 0.3 0.3 0.2
v 0.3 0.4 0.2
v 0.4 0.2 0.2
v 0.4 0.3 0.2
v -0.4 0.2 0.1
v -0.4 0.3 0.1
v -0.2 0.2 0.1
v -0.2 0.3 0.1
v -0.1 0.1 0.1
v -0.1 0.2 0.1
v -0.1 0.3 0.1
v -0.1 0.4 0.1
v 0 0.1 0.1
v 0 0.2 0.1
v 0 0.3 0.1
v 0 0.4 0.1
v 0.1 0.1 0.1
v 0.1 0.2 0.1
v 0.1 0.3 0.1
v 0.1 0.4 0.1
v 0.3 0.1 0.1
v 0.3 0.2 0.1
v 0.3 0.3 0.1
v 0.3 0.4 0.1
v 0.4 0.1 0.1
v 0.4 0.2 0.1
v 0.4 0.3 0.1
v 0.4 0.4 0.1
v -0.4 0.2 0
v -0.4 0.3 0
v -0.2 0.2 0
v -0.2 0.3 0
v -0.1 0.1 0
v -0.1 0.2 0
v -0.1 0.3 0
v -0.1 0.4 0
v 0 0.1 0
v 0 0.2 0
v 0 0.3 0
v 0 0.4 0
v 0.1 0.1 0
v 0.1 0.2 0
v 0.1 0.3 0
v 0.1 0.4 0
v 0.3 0.1 0
v 0.3 0.2 0
v 0.3 0.3 0
v 0.3 0.4 0
v 0.4 0.1 0
v 0.4 0.2 0
v 0.4 0.3 0
v 0.4 0.4 0
v -0.2 0.2 -0.1
v -0.2 0.3 -0.1
v -0.1 0.2 -0.1
v -0.1 0.3 -0.1
v 0.1 0.1 -0.1
v 0.1 0.2 -0.1
v 0.1 0.3 -0.1
v 0.1 0.4 -0.1
v 0.2 0.1 -0.1
v 0.2 0.2 -0.1
v 0.2 0.3 -0.1
v 0.2 0.4 -0.1
v 0.3 0.1 -0.1
v 0.3 0.2 -0.1
v 0.3 0.3 -0.1
v 0.3 0.4 -0.1
v 0.4 0.2 -0.1
v 0.4 0.3 -0.1
v 0.1 0.1 0.2
v 0.2 0.1 0.2
v 0.3 0.1 0.2
v -0.1 0.1 0.1
v 0 0.1 0.1
v 0.1 0.1 0.1
v 0.2 0.1 0.1
v 0.3 0.1 0.1
v 0.4 0.1 0.1
v -0.1 0.1 0
v 0 0.1 0
v 0.1 0.1 0
v 0.2 0.1 0
v 0.3 0.1 0
v 0.4 0.1 0
v 0.1 0.1 -0.1
v 0.2 0.1 -0.1
v 0.3 0.1 -0.1
v -0.2 0.2 0.2
v -0.1 0.2 0.2
v 0.1 0.2 0.2
v 0.3 0.2 0.2
v 0.4 0.2 0.2
v -0.4 0.2 0.1
v -0.2 0.2 0.1
v -0.1 0.2 0.1
v 0 0.2 0.1
v 0.1 0.2 0.1
v 0.3 0.2 0.1
v 0.4 0.2 0.1
v -0.4 0.2 0
v -0.2 0.2 0
v -0.1 0.2 0
v 0 0.2 0
v 0.1 0.2 0
v 0.3 0.2 0
v 0.4 0.2 0
v -0.2 0.2 -0.1
v -0.1 0.2 -0.1
v 0.1 0.2 -0.1
v 0.3 0.2 -0.1
v 0.4 0.2 -0.1
v -0.2 0.3 0.2
v -0.1 0.3 0.2
v 0.1 0.3 0.2
v 0.3 0.3 0.2
v 0.4 0.3 0.2
v -0.4 0.3 0.1
v -0.2 0.3 0.1
v -0.1 0.3 0.1
v 0 0.3 0.1
v 0.1 0.3 0.1
v 0.3 0.3 0.1
v 0.4 0.3 0.1
v -0.4 0.3 0
v -0.2 0.3 0
v -0.1 0.3 0
v 0 0.3 0
v 0.1 0.3 0
v 0.3 0.3 0
v 0.4 0.3 0
v -0.2 0.3 -0.1
v -0.1 0.3 -0.1
v 0.1 0.3 -0.1
v 0.3 0.3 -0.1
v 0.4 0.3 -0.1
v 0.1 0.4 0.2
v 0.2 0.4 0.2
v 0.3 0.4 0.2
v -0.1 0.4 0.1
v 0 0.4 0.1
v 0.1 0.4 0.1
v 0.2 0.4 0.1
v 0.3 0.4 0.1
v 0.4 0.4 0.1
v -0.1 0.4 0
v 0 0.4 0
v 0.1 0.4 0
v 0.2 0.4 0
v 0.3 0.4 0
v 0.4 0.4 0
v 0.1 0.4 -0.1
v 0.2 0.4 -0.1
v 0.3 0.4 -0.1

# faces
f 3/1/1 2/1/1 1/1/1
f 4/1/1 2/1/1 3/1/1
f 9/1/1 6/1/1 5/1/1
f 10/1/1 6/1/1 9/1/1
f 11/1/1 8/1/1 7/1/1
f 12/1/1 8/1/1 11/1/1
f 15/1/1 14/1/1 13/1/1
f 16/1/1 14/1/1 15/1/1
f 19/1/1 18/1/1 17/1/1
f 20/1/1 18/1/1 19/1/1
f 25/2/1 22/2/1 21/2/1
f 26/2/1 22/2/1 25/2/1
f 27/2/1 24/2/1 23/2/1
f 28/2/1 24/2/1 27/2/1
f 33/2/1 30/2/1 29/2/1
f 34/2/1 30/2/1 33/2/1
f 35/2/1 32/2/1 31/2/1
f 36/2/1 32/2/1 35/2/1
f 37/3/2 38/3/2 41/3/2
f 41/3/2 38/3/2 42/3/2
f 39/3/2 40/3/2 43/3/2
f 43/3/2 40/3/2 44/3/2
f 45/3/2 46/3/2 49/3/2
f 49/3/2 46/3/2 50/3/2
f 47/3/2 48/3/2 51/3/2
f 51/3/2 48/3/2 52/3/2
f 53/4/2 54/4/2 56/4/2
f 56/4/2 54/4/2 57/4/2
f 55/4/2 56/4/2 59/4/2
f 57/4/2 58/4/2 59/4/2
f 56/4/2 57/4/2 59/4/2
f 59/4/2 58/4/2 60/4/2
f 60/4/2 58/4/2 61/4/2
f 61/4/2 58/4/2 62/4/2
f 60/4/2 61/4/2 63/4/2
f 63/4/2 61/4/2 64/4/2
f 67/1/3 66/1/3 65/1/3
f 68/1/3 66/1/3 67/1/3
f 70/2/3 68/2/3 67/2/3
f 71/2/3 68/2/3 70/2/3
f 73/2/3 70/2/3 69/2/3
f 74/3/3 71/3/3 70/3/3
f 74/2/3 70/2/3 73/2/3
f 75/2/3 72/2/3 71/2/3
f 75/3/3 71/3/3 74/3/3
f 76/2/3 72/2/3 75/2/3
f 77/3/3 74/3/3 73/3/3
f 77/3/3 75/3/3 74/3/3
f 77/3/3 76/3/3 75/3/3
f 78/3/3 76/3/3 77/3/3
f 79/3/3 76/3/3 78/3/3
f 80/3/3 76/3/3 79/3/3
f 81/4/3 79/4/3 78/4/3
f 82/4/3 79/4/3 81/4/3
f 85/1/3 84/1/3 83/1/3
f 86/1/3 84/1/3 85/1/3
f 91/1/3 88/1/3 87/1/3
f 92/1/3 88/1/3 91/1/3
f 93/1/3 90/1/3 89/1/3
f 94/1/3 90/1/3 93/1/3
f 95/2/3 92/2/3 91/2/3
f 96/2/3 92/2/3 95/2/3
f 97/2/3 94/2/3 93/2/3
f 98/2/3 94/2/3 97/2/3
f 103/4/3 100/4/3 99/4/3
f 104/4/3 100/4/3 103/4/3
f 105/4/3 102/4/3 101/4/3
f 106/4/3 102/4/3 105/4/3
f 107/1/4 108/1/4 109/1/4
f 109/1/4 108/1/4 110/1/4
f 111/1/4 112/1/4 115/1/4
f 115/1/4 112/1/4 116/1/4
f 113/1/4 114/1/4 117/1/4
f 117/1/4 114/1/4 118/1/4
f 115/2/4 116/2/4 119/2/4
f 119/2/4 116/2/4 120/2/4
f 117/2/4 118/2/4 121/2/4
f 121/2/4 118/2/4 122/2/4
f 123/4/4 124/4/4 127/4/4
f 127/4/4 124/4/4 128/4/4
f 125/4/4 126/4/4 129/4/4
f 129/4/4 126/4/4 130/4/4
f 131/1/4 132/1/4 133/1/4
f 133/1/4 132/1/4 134/1/4
f 133/2/4 134/2/4 136/2/4
f 136/2/4 134/2/4 137/2/4
f 135/2/4 136/2/4 139/2/4
f 136/3/4 137/3/4 140/3/4
f 139/2/4 136/2/4 140/2/4
f 137/2/4 138/2/4 141/2/4
f 140/3/4 137/3/4 141/3/4
f 141/2/4 138/2/4 142/2/4
f 139/3/4 140/3/4 143/3/4
f 140/3/4 141/3/4 143/3/4
f 141/3/4 142/3/4 143/3/4
f 143/3/4 142/3/4 144/3/4
f 144/3/4 142/3/4 145/3/4
f 145/3/4 142/3/4 146/3/4
f 144/4/4 145/4/4 147/4/4
f 147/4/4 145/4/4 148/4/4
f 154/2/5 150/2/5 149/2/5
f 155/3/5 151/3/5 150/3/5
f 155/2/5 150/2/5 154/2/5
f 156/3/5 151/3/5 155/3/5
f 158/1/5 153/1/5 152/1/5
f 159/2/5 154/2/5 153/2/5
f 159/1/5 153/1/5 158/1/5
f 160/3/5 155/3/5 154/3/5
f 160/2/5 154/2/5 159/2/5
f 160/3/5 156/3/5 155/3/5
f 161/3/5 156/3/5 160/3/5
f 162/4/5 157/4/5 156/4/5
f 162/3/5 156/3/5 161/3/5
f 163/4/5 157/4/5 162/4/5
f 164/2/5 161/2/5 160/2/5
f 165/3/5 162/3/5 161/3/5
f 165/2/5 161/2/5 164/2/5
f 166/3/5 162/3/5 165/3/5
f 173/1/5 168/1/5 167/1/5
f 174/2/5 169/2/5 168/2/5
f 174/1/5 168/1/5 173/1/5
f 175/2/5 169/2/5 174/2/5
f 176/2/5 169/2/5 175/2/5
f 177/4/5 171/4/5 170/4/5
f 178/4/5 171/4/5 177/4/5
f 179/1/5 173/1/5 172/1/5
f 180/2/5 174/2/5 173/2/5
f 180/1/5 173/1/5 179/1/5
f 181/2/5 174/2/5 180/2/5
f 186/1/5 181/1/5 180/1/5
f 187/2/5 183/2/5 182/2/5
f 187/1/5 181/1/5 186/1/5
f 187/2/5 182/2/5 181/2/5
f 188/2/5 183/2/5 187/2/5
f 189/4/5 185/4/5 184/4/5
f 190/4/5 185/4/5 189/4/5
f 191/1/6 192/1/6 197/1/6
f 192/2/6 193/2/6 198/2/6
f 197/1/6 192/1/6 198/1/6
f 198/2/6 193/2/6 199/2/6
f 199/2/6 193/2/6 200/2/6
f 194/4/6 195/4/6 201/4/6
f 201/4/6 195/4/6 202/4/6
f 196/1/6 197/1/6 203/1/6
f 197/2/6 198/2/6 204/2/6
f 203/1/6 197/1/6 204/1/6
f 204/2/6 198/2/6 205/2/6
f 204/1/6 205/1/6 210/1/6
f 206/2/6 207/2/6 211/2/6
f 210/1/6 205/1/6 211/1/6
f 205/2/6 206/2/6 211/2/6
f 211/2/6 207/2/6 212/2/6
f 208/4/6 209/4/6 213/4/6
f 213/4/6 209/4/6 214/4/6
f 215/2/6 216/2/6 220/2/6
f 216/3/6 217/3/6 221/3/6
f 220/2/6 216/2/6 221/2/6
f 221/3/6 217/3/6 222/3/6
f 218/1/6 219/1/6 224/1/6
f 219/2/6 220/2/6 225/2/6
f 224/1/6 219/1/6 225/1/6
f 220/3/6 221/3/6 226/3/6
f 225/2/6 220/2/6 226/2/6
f 221/3/6 222/3/6 226/3/6
f 226/3/6 222/3/6 227/3/6
f 222/4/6 223/4/6 228/4/6
f 227/3/6 222/3/6 228/3/6
f 228/4/6 223/4/6 229/4/6
f 226/2/6 227/2/6 230/2/6
f 227/3/6 228/3/6 231/3/6
f 230/2/6 227/2/6 231/2/6
f 231/3/6 228/3/6 232/3/6
