# MagicaVoxel @ Ephtracy

# group
o 

# material
mtllib VardChest.mtl
usemtl palette

# normals
vn -1 0 0
vn 1 0 0
vn 0 0 1
vn 0 0 -1
vn 0 -1 0
vn 0 1 0

# texcoords
vt 0.912109 0.5
vt 0.974609 0.5
vt 0.978516 0.5
vt 0.982422 0.5

# verts
v -0.5 1.1 0.3
v -0.5 1.1 -0.3
v -0.5 1.2 0.1
v -0.5 1.2 2.98023e-08
v -0.5 1.2 -0.2
v -0.5 1.2 -0.3
v -0.5 1.3 0.3
v -0.5 1.3 0.2
v -0.5 1.3 0.1
v -0.5 1.3 2.98023e-08
v -0.5 1.3 -0.1
v -0.5 1.3 -0.2
v -0.5 1.4 0.2
v -0.5 1.4 -0.1
v -0.4 0.9 0.2
v -0.4 0.9 -0.1
v -0.4 1 0.2
v -0.4 1 0.1
v -0.4 1 -0.1
v -0.4 1 -0.2
v -0.4 1.1 0.1
v -0.4 1.1 -0.2
v -0.3 0.9 -0.1
v -0.3 0.9 -0.2
v -0.3 1 -0.1
v -0.3 1 -0.2
v -0.3 1 -0.3
v -0.3 1.1 -0.2
v -0.3 1.1 -0.3
v -0.2 0.7 0.2
v -0.2 0.7 -0.1
v -0.2 0.8 0.2
v -0.2 0.8 2.98023e-08
v -0.2 0.8 -0.1
v -0.2 0.8 -0.2
v -0.2 0.9 0.3
v -0.2 0.9 0.2
v -0.2 0.9 0.1
v -0.2 0.9 2.98023e-08
v -0.2 0.9 -0.1
v -0.2 0.9 -0.2
v -0.2 0.9 -0.3
v -0.2 1 0.3
v -0.2 1 0.2
v -0.2 1 0.1
v -0.2 1 2.98023e-08
v -0.2 1 -0.2
v -0.2 1 -0.3
v -0.2 1.3 0.3
v -0.2 1.3 0.2
v -0.2 1.3 -0.1
v -0.2 1.3 -0.2
v -0.2 1.4 0.3
v -0.2 1.4 0.2
v -0.2 1.4 -0.1
v -0.2 1.4 -0.2
v -0.2 1.5 0.2
v -0.2 1.5 -0.1
v -0.1 0.8 0.1
v -0.1 0.8 2.98023e-08
v -0.1 0.9 0.1
v -0.1 0.9 2.98023e-08
v -0.1 1.5 0.1
v -0.1 1.5 2.98023e-08
v -0.1 1.6 0.1
v -0.1 1.6 2.98023e-08
v 0 0.7 -0.1
v 0 0.7 -0.2
v 0 0.8 -0.1
v 0 0.8 -0.2
v 0.1 0.9 0.2
v 0.1 0.9 0.1
v 0.1 0.9 2.98023e-08
v 0.1 0.9 -0.1
v 0.1 1 0.2
v 0.1 1 0.1
v 0.1 1 2.98023e-08
v 0.1 1 -0.1
v 0.2 0.9 0.1
v 0.2 0.9 2.98023e-08
v 0.2 1 0.1
v 0.2 1 2.98023e-08
v 0.3 1 0.1
v 0.3 1 2.98023e-08
v 0.3 1.1 0.1
v 0.3 1.1 2.98023e-08
v 0.5 0.6 0.1
v 0.5 0.6 2.98023e-08
v 0.5 0.7 0.2
v 0.5 0.7 0.1
v 0.5 0.7 2.98023e-08
v 0.5 0.7 -0.1
v 0.5 1 0.1
v 0.5 1 2.98023e-08
v 0.5 1.1 0.2
v 0.5 1.1 0.1
v 0.5 1.1 2.98023e-08
v 0.5 1.1 -0.1
v -0.3 0.9 0.1
v -0.3 0.9 2.98023e-08
v -0.3 1 0.1
v -0.3 1 2.98023e-08
v -0.2 0.9 0.2
v -0.2 0.9 0.1
v -0.2 1 0.2
v -0.2 1 0.1
v -0.2 1 -0.2
v -0.2 1 -0.3
v -0.2 1.1 -0.2
v -0.2 1.2 -0.2
v -0.2 1.2 -0.3
v -0.1 0.9 2.98023e-08
v -0.1 0.9 -0.1
v -0.1 0.9 -0.2
v -0.1 0.9 -0.3
v -0.1 1 -0.1
v -0.1 1 -0.2
v -0.1 1 -0.3
v -0.1 1.1 2.98023e-08
v -0.1 1.1 -0.1
v -0.1 1.1 -0.2
v 0 0.8 -0.1
v 0 0.8 -0.2
v 0 0.9 0.1
v 0 0.9 2.98023e-08
v 0 0.9 -0.1
v 0 0.9 -0.2
v 0 1.1 0.1
v 0 1.1 2.98023e-08
v 0 1.5 0.1
v 0 1.5 2.98023e-08
v 0 1.6 0.1
v 0 1.6 2.98023e-08
v 0.1 0.7 0.2
v 0.1 0.7 0.1
v 0.1 0.7 -0.1
v 0.1 0.7 -0.2
v 0.1 0.8 0.2
v 0.1 0.8 0.1
v 0.1 0.8 -0.1
v 0.1 0.8 -0.2
v 0.1 0.9 0.3
v 0.1 0.9 0.2
v 0.1 0.9 0.1
v 0.1 0.9 2.98023e-08
v 0.1 0.9 -0.1
v 0.1 0.9 -0.2
v 0.1 1 0.3
v 0.1 1 0.2
v 0.1 1 -0.1
v 0.1 1 -0.2
v 0.1 1.3 0.3
v 0.1 1.3 0.2
v 0.1 1.3 -0.1
v 0.1 1.3 -0.2
v 0.1 1.4 0.3
v 0.1 1.4 0.2
v 0.1 1.4 -0.1
v 0.1 1.4 -0.2
v 0.1 1.5 0.2
v 0.1 1.5 -0.1
v 0.2 0.7 0.1
v 0.2 0.7 -0.1
v 0.2 0.8 0.1
v 0.2 0.8 -0.1
v 0.2 1.3 0.2
v 0.2 1.3 -0.1
v 0.2 1.4 0.2
v 0.2 1.4 -0.1
v 0.3 0.9 0.2
v 0.3 0.9 -0.1
v 0.3 1 0.2
v 0.3 1 0.1
v 0.3 1 2.98023e-08
v 0.3 1 -0.1
v 0.3 1.1 0.3
v 0.3 1.1 0.2
v 0.3 1.1 -0.1
v 0.3 1.1 -0.2
v 0.3 1.2 0.3
v 0.3 1.2 0.2
v 0.3 1.2 0.1
v 0.3 1.2 2.98023e-08
v 0.3 1.2 -0.1
v 0.3 1.2 -0.2
v 0.3 1.3 0.3
v 0.3 1.3 0.1
v 0.3 1.3 2.98023e-08
v 0.3 1.3 -0.2
v 0.4 1.2 0.1
v 0.4 1.2 2.98023e-08
v 0.4 1.3 0.1
v 0.4 1.3 2.98023e-08
v 0.5 1.1 0.2
v 0.5 1.1 0.1
v 0.5 1.1 2.98023e-08
v 0.5 1.1 -0.1
v 0.5 1.2 0.2
v 0.5 1.2 0.1
v 0.5 1.2 2.98023e-08
v 0.5 1.2 -0.1
v 0.6 0.7 0.2
v 0.6 0.7 0.1
v 0.6 0.7 2.98023e-08
v 0.6 0.7 -0.1
v 0.6 1.1 0.2
v 0.6 1.1 0.1
v 0.6 1.1 2.98023e-08
v 0.6 1.1 -0.1
v 0.6 1.2 0.1
v 0.6 1.2 2.98023e-08
v 0.7 0.6 0.1
v 0.7 0.6 2.98023e-08
v 0.7 1.1 0.1
v 0.7 1.1 2.98023e-08
v -0.5 1.1 0.3
v -0.5 1.3 0.3
v -0.4 1.2 0.3
v -0.4 1.3 0.3
v -0.3 1.1 0.3
v -0.3 1.2 0.3
v -0.2 0.9 0.3
v -0.2 1 0.3
v -0.2 1.3 0.3
v -0.2 1.4 0.3
v 0.1 0.9 0.3
v 0.1 1 0.3
v 0.1 1.3 0.3
v 0.1 1.4 0.3
v 0.3 1.1 0.3
v 0.3 1.2 0.3
v 0.3 1.3 0.3
v -0.5 1.3 0.2
v -0.5 1.4 0.2
v -0.4 0.9 0.2
v -0.4 1 0.2
v -0.4 1.3 0.2
v -0.3 1.3 0.2
v -0.3 1.4 0.2
v -0.2 0.7 0.2
v -0.2 0.8 0.2
v -0.2 0.9 0.2
v -0.2 1 0.2
v -0.2 1.3 0.2
v -0.2 1.4 0.2
v -0.2 1.5 0.2
v 0.1 0.7 0.2
v 0.1 0.8 0.2
v 0.1 0.9 0.2
v 0.1 1 0.2
v 0.1 1.3 0.2
v 0.1 1.4 0.2
v 0.1 1.5 0.2
v 0.2 1.3 0.2
v 0.2 1.4 0.2
v 0.3 0.9 0.2
v 0.3 1 0.2
v 0.3 1.1 0.2
v 0.3 1.2 0.2
v 0.5 0.7 0.2
v 0.5 1.1 0.2
v 0.5 1.2 0.2
v 0.6 0.7 0.2
v 0.6 1.1 0.2
v -0.4 1 0.1
v -0.4 1.1 0.1
v -0.2 0.9 0.1
v -0.2 1 0.1
v -0.1 0.8 0.1
v -0.1 0.9 0.1
v -0.1 1.1 0.1
v -0.1 1.5 0.1
v -0.1 1.6 0.1
v 0 0.8 0.1
v 0 0.9 0.1
v 0 1.1 0.1
v 0 1.5 0.1
v 0 1.6 0.1
v 0.1 0.7 0.1
v 0.1 0.8 0.1
v 0.1 0.9 0.1
v 0.2 0.7 0.1
v 0.2 0.8 0.1
v 0.3 1 0.1
v 0.3 1.1 0.1
v 0.3 1.2 0.1
v 0.3 1.3 0.1
v 0.4 1.2 0.1
v 0.4 1.3 0.1
v 0.5 0.6 0.1
v 0.5 0.7 0.1
v 0.5 1 0.1
v 0.5 1.1 0.1
v 0.5 1.2 0.1
v 0.6 0.7 0.1
v 0.6 1.1 0.1
v 0.6 1.2 0.1
v 0.7 0.6 0.1
v 0.7 1.1 0.1
v -0.3 0.9 2.98023e-08
v -0.3 1 2.98023e-08
v -0.2 0.8 2.98023e-08
v -0.2 0.9 2.98023e-08
v -0.2 1 2.98023e-08
v -0.1 0.8 2.98023e-08
v -0.1 0.9 2.98023e-08
v 0.1 0.9 2.98023e-08
v 0.1 1 2.98023e-08
v 0.2 0.9 2.98023e-08
v 0.2 1 2.98023e-08
v -0.1 0.9 -0.1
v -0.1 1 -0.1
v 0.1 0.9 -0.1
v 0.1 1 -0.1
v -0.2 0.9 0.2
v -0.2 1 0.2
v 0.1 0.9 0.2
v 0.1 1 0.2
v -0.3 0.9 0.1
v -0.3 1 0.1
v -0.2 0.9 0.1
v -0.2 1 0.1
v 0.1 0.9 0.1
v 0.1 1 0.1
v 0.2 0.9 0.1
v 0.2 1 0.1
v -0.1 0.9 2.98023e-08
v -0.1 1.1 2.98023e-08
v -0.1 1.5 2.98023e-08
v -0.1 1.6 2.98023e-08
v 0 0.9 2.98023e-08
v 0 1.1 2.98023e-08
v 0 1.5 2.98023e-08
v 0 1.6 2.98023e-08
v 0.3 1 2.98023e-08
v 0.3 1.1 2.98023e-08
v 0.3 1.2 2.98023e-08
v 0.3 1.3 2.98023e-08
v 0.4 1.2 2.98023e-08
v 0.4 1.3 2.98023e-08
v 0.5 0.6 2.98023e-08
v 0.5 0.7 2.98023e-08
v 0.5 1 2.98023e-08
v 0.5 1.1 2.98023e-08
v 0.5 1.2 2.98023e-08
v 0.6 0.7 2.98023e-08
v 0.6 1.1 2.98023e-08
v 0.6 1.2 2.98023e-08
v 0.7 0.6 2.98023e-08
v 0.7 1.1 2.98023e-08
v -0.5 1.3 -0.1
v -0.5 1.4 -0.1
v -0.4 0.9 -0.1
v -0.4 1 -0.1
v -0.4 1.3 -0.1
v -0.3 0.9 -0.1
v -0.3 1 -0.1
v -0.3 1.3 -0.1
v -0.3 1.4 -0.1
v -0.2 0.7 -0.1
v -0.2 0.8 -0.1
v -0.2 1.3 -0.1
v -0.2 1.4 -0.1
v -0.2 1.5 -0.1
v 0 0.7 -0.1
v 0 0.8 -0.1
v 0 0.9 -0.1
v 0.1 0.7 -0.1
v 0.1 0.8 -0.1
v 0.1 0.9 -0.1
v 0.1 1 -0.1
v 0.1 1.3 -0.1
v 0.1 1.4 -0.1
v 0.1 1.5 -0.1
v 0.2 0.7 -0.1
v 0.2 0.8 -0.1
v 0.2 1.3 -0.1
v 0.2 1.4 -0.1
v 0.3 0.9 -0.1
v 0.3 1 -0.1
v 0.3 1.1 -0.1
v 0.3 1.2 -0.1
v 0.5 0.7 -0.1
v 0.5 1.1 -0.1
v 0.5 1.2 -0.1
v 0.6 0.7 -0.1
v 0.6 1.1 -0.1
v -0.5 1.2 -0.2
v -0.5 1.3 -0.2
v -0.4 1 -0.2
v -0.4 1.1 -0.2
v -0.4 1.2 -0.2
v -0.4 1.3 -0.2
v -0.3 0.9 -0.2
v -0.3 1 -0.2
v -0.3 1.1 -0.2
v -0.2 0.8 -0.2
v -0.2 0.9 -0.2
v -0.2 1 -0.2
v -0.2 1.1 -0.2
v -0.2 1.2 -0.2
v -0.2 1.3 -0.2
v -0.2 1.4 -0.2
v -0.1 0.9 -0.2
v -0.1 1 -0.2
v -0.1 1.1 -0.2
v 0 0.7 -0.2
v 0 0.8 -0.2
v 0 0.9 -0.2
v 0.1 0.7 -0.2
v 0.1 0.8 -0.2
v 0.1 0.9 -0.2
v 0.1 1 -0.2
v 0.1 1.3 -0.2
v 0.1 1.4 -0.2
v 0.3 1.1 -0.2
v 0.3 1.2 -0.2
v 0.3 1.3 -0.2
v -0.5 1.1 -0.3
v -0.5 1.2 -0.3
v -0.3 1 -0.3
v -0.3 1.1 -0.3
v -0.2 0.9 -0.3
v -0.2 1 -0.3
v -0.2 1.2 -0.3
v -0.1 0.9 -0.3
v -0.1 1 -0.3
v 0.5 0.6 0.1
v 0.7 0.6 0.1
v 0.5 0.6 2.98023e-08
v 0.7 0.6 2.98023e-08
v -0.2 0.7 0.2
v 0.1 0.7 0.2
v 0.5 0.7 0.2
v 0.6 0.7 0.2
v -0.1 0.7 0.1
v 0 0.7 0.1
v 0.1 0.7 0.1
v 0.2 0.7 0.1
v 0.5 0.7 0.1
v 0.6 0.7 0.1
v -0.1 0.7 2.98023e-08
v 0 0.7 2.98023e-08
v 0.5 0.7 2.98023e-08
v 0.6 0.7 2.98023e-08
v -0.2 0.7 -0.1
v 0 0.7 -0.1
v 0.1 0.7 -0.1
v 0.2 0.7 -0.1
v 0.5 0.7 -0.1
v 0.6 0.7 -0.1
v 0 0.7 -0.2
v 0.1 0.7 -0.2
v -0.2 0.8 -0.1
v 0 0.8 -0.1
v -0.2 0.8 -0.2
v 0 0.8 -0.2
v -0.2 0.9 0.3
v 0.1 0.9 0.3
v -0.4 0.9 0.2
v -0.2 0.9 0.2
v 0.1 0.9 0.2
v 0.3 0.9 0.2
v -0.3 0.9 0.1
v -0.2 0.9 0.1
v -0.1 0.9 0.1
v 0.1 0.9 0.1
v 0.2 0.9 0.1
v -0.3 0.9 2.98023e-08
v -0.2 0.9 2.98023e-08
v -0.1 0.9 2.98023e-08
v 0.1 0.9 2.98023e-08
v 0.2 0.9 2.98023e-08
v -0.4 0.9 -0.1
v -0.3 0.9 -0.1
v -0.2 0.9 -0.1
v 0 0.9 -0.1
v 0.1 0.9 -0.1
v 0.3 0.9 -0.1
v -0.3 0.9 -0.2
v -0.2 0.9 -0.2
v -0.1 0.9 -0.2
v 0 0.9 -0.2
v 0.1 0.9 -0.2
v -0.2 0.9 -0.3
v -0.1 0.9 -0.3
v -0.3 1 0.1
v -0.2 1 0.1
v 0.3 1 0.1
v 0.5 1 0.1
v -0.3 1 2.98023e-08
v -0.2 1 2.98023e-08
v 0.3 1 2.98023e-08
v 0.5 1 2.98023e-08
v -0.4 1 -0.1
v -0.3 1 -0.1
v -0.4 1 -0.2
v -0.3 1 -0.2
v -0.2 1 -0.2
v -0.3 1 -0.3
v -0.2 1 -0.3
v -0.5 1.1 0.3
v -0.3 1.1 0.3
v 0.3 1.1 0.3
v -0.4 1.1 0.2
v -0.3 1.1 0.2
v 0.3 1.1 0.2
v 0.5 1.1 0.2
v -0.4 1.1 0.1
v -0.1 1.1 0.1
v 0 1.1 0.1
v 0.3 1.1 0.1
v 0.5 1.1 0.1
v -0.1 1.1 2.98023e-08
v 0 1.1 2.98023e-08
v 0.3 1.1 2.98023e-08
v 0.5 1.1 2.98023e-08
v -0.1 1.1 -0.1
v 0.3 1.1 -0.1
v 0.5 1.1 -0.1
v -0.4 1.1 -0.2
v -0.3 1.1 -0.2
v -0.1 1.1 -0.2
v 0.3 1.1 -0.2
v -0.5 1.1 -0.3
v -0.3 1.1 -0.3
v -0.2 0.8 0.2
v 0.1 0.8 0.2
v -0.1 0.8 0.1
v 0 0.8 0.1
v 0.1 0.8 0.1
v 0.2 0.8 0.1
v -0.2 0.8 2.98023e-08
v -0.1 0.8 2.98023e-08
v 0 0.8 -0.1
v 0.1 0.8 -0.1
v 0.2 0.8 -0.1
v 0 0.8 -0.2
v 0.1 0.8 -0.2
v 0 0.9 0.1
v 0.1 0.9 0.1
v -0.1 0.9 2.98023e-08
v 0 0.9 2.98023e-08
v 0.1 0.9 2.98023e-08
v -0.1 0.9 -0.1
v 0.1 0.9 -0.1
v -0.2 1 0.3
v 0.1 1 0.3
v -0.4 1 0.2
v -0.2 1 0.2
v 0.1 1 0.2
v 0.3 1 0.2
v -0.4 1 0.1
v -0.2 1 0.1
v 0.1 1 0.1
v 0.2 1 0.1
v 0.3 1 0.1
v 0.1 1 2.98023e-08
v 0.2 1 2.98023e-08
v 0.3 1 2.98023e-08
v -0.1 1 -0.1
v 0.1 1 -0.1
v 0.3 1 -0.1
v -0.2 1 -0.2
v -0.1 1 -0.2
v 0.1 1 -0.2
v -0.2 1 -0.3
v -0.1 1 -0.3
v 0.5 1.1 0.2
v 0.6 1.1 0.2
v 0.5 1.1 0.1
v 0.6 1.1 0.1
v 0.7 1.1 0.1
v 0.5 1.1 2.98023e-08
v 0.6 1.1 2.98023e-08
v 0.7 1.1 2.98023e-08
v 0.5 1.1 -0.1
v 0.6 1.1 -0.1
v 0.3 1.2 0.2
v 0.5 1.2 0.2
v 0.3 1.2 0.1
v 0.4 1.2 0.1
v 0.5 1.2 0.1
v 0.6 1.2 0.1
v 0.3 1.2 2.98023e-08
v 0.4 1.2 2.98023e-08
v 0.5 1.2 2.98023e-08
v 0.6 1.2 2.98023e-08
v 0.3 1.2 -0.1
v 0.5 1.2 -0.1
v -0.5 1.2 -0.2
v -0.4 1.2 -0.2
v -0.2 1.2 -0.2
v -0.5 1.2 -0.3
v -0.2 1.2 -0.3
v -0.5 1.3 0.3
v -0.4 1.3 0.3
v -0.2 1.3 0.3
v 0.1 1.3 0.3
v 0.3 1.3 0.3
v -0.5 1.3 0.2
v -0.4 1.3 0.2
v -0.3 1.3 0.2
v -0.2 1.3 0.2
v 0.1 1.3 0.2
v 0.2 1.3 0.2
v 0.3 1.3 0.1
v 0.4 1.3 0.1
v 0.3 1.3 2.98023e-08
v 0.4 1.3 2.98023e-08
v -0.5 1.3 -0.1
v -0.4 1.3 -0.1
v -0.3 1.3 -0.1
v -0.2 1.3 -0.1
v 0.1 1.3 -0.1
v 0.2 1.3 -0.1
v -0.5 1.3 -0.2
v -0.4 1.3 -0.2
v -0.2 1.3 -0.2
v 0.1 1.3 -0.2
v 0.3 1.3 -0.2
v -0.2 1.4 0.3
v 0.1 1.4 0.3
v -0.5 1.4 0.2
v -0.3 1.4 0.2
v -0.2 1.4 0.2
v 0.1 1.4 0.2
v 0.2 1.4 0.2
v -0.5 1.4 -0.1
v -0.3 1.4 -0.1
v -0.2 1.4 -0.1
v 0.1 1.4 -0.1
v 0.2 1.4 -0.1
v -0.2 1.4 -0.2
v 0.1 1.4 -0.2
v -0.2 1.5 0.2
v 0.1 1.5 0.2
v -0.1 1.5 0.1
v 0 1.5 0.1
v -0.1 1.5 2.98023e-08
v 0 1.5 2.98023e-08
v -0.2 1.5 -0.1
v 0.1 1.5 -0.1
v -0.1 1.6 0.1
v 0 1.6 0.1
v -0.1 1.6 2.98023e-08
v 0 1.6 2.98023e-08

# faces
f 3/2/1 2/2/1 1/2/1
f 4/2/1 2/2/1 3/2/1
f 5/2/1 2/2/1 4/2/1
f 6/2/1 2/2/1 5/2/1
f 7/2/1 3/2/1 1/2/1
f 8/2/1 3/2/1 7/2/1
f 9/3/1 4/3/1 3/3/1
f 9/2/1 3/2/1 8/2/1
f 10/2/1 5/2/1 4/2/1
f 10/3/1 4/3/1 9/3/1
f 11/2/1 5/2/1 10/2/1
f 12/2/1 5/2/1 11/2/1
f 13/2/1 9/2/1 8/2/1
f 13/2/1 11/2/1 10/2/1
f 13/2/1 10/2/1 9/2/1
f 14/2/1 11/2/1 13/2/1
f 17/4/1 16/4/1 15/4/1
f 18/4/1 16/4/1 17/4/1
f 19/4/1 16/4/1 18/4/1
f 21/2/1 20/2/1 19/2/1
f 21/2/1 19/2/1 18/2/1
f 22/2/1 20/2/1 21/2/1
f 25/2/1 24/2/1 23/2/1
f 26/2/1 24/2/1 25/2/1
f 28/2/1 27/2/1 26/2/1
f 29/2/1 27/2/1 28/2/1
f 32/4/1 31/4/1 30/4/1
f 33/4/1 31/4/1 32/4/1
f 34/4/1 31/4/1 33/4/1
f 39/2/1 35/2/1 34/2/1
f 39/2/1 34/2/1 33/2/1
f 40/2/1 35/2/1 39/2/1
f 41/2/1 35/2/1 40/2/1
f 43/4/1 37/4/1 36/4/1
f 44/4/1 37/4/1 43/4/1
f 45/2/1 39/2/1 38/2/1
f 46/2/1 39/2/1 45/2/1
f 47/2/1 42/2/1 41/2/1
f 48/2/1 42/2/1 47/2/1
f 53/3/1 50/3/1 49/3/1
f 54/3/1 50/3/1 53/3/1
f 55/3/1 52/3/1 51/3/1
f 56/3/1 52/3/1 55/3/1
f 57/3/1 55/3/1 54/3/1
f 58/3/1 55/3/1 57/3/1
f 61/4/1 60/4/1 59/4/1
f 62/4/1 60/4/1 61/4/1
f 65/4/1 64/4/1 63/4/1
f 66/4/1 64/4/1 65/4/1
f 69/2/1 68/2/1 67/2/1
f 70/2/1 68/2/1 69/2/1
f 75/4/1 72/4/1 71/4/1
f 76/4/1 72/4/1 75/4/1
f 77/4/1 74/4/1 73/4/1
f 78/4/1 74/4/1 77/4/1
f 81/4/1 80/4/1 79/4/1
f 82/4/1 80/4/1 81/4/1
f 85/3/1 84/3/1 83/3/1
f 86/3/1 84/3/1 85/3/1
f 90/3/1 88/3/1 87/3/1
f 91/3/1 88/3/1 90/3/1
f 93/3/1 90/3/1 89/3/1
f 93/3/1 92/3/1 91/3/1
f 93/3/1 91/3/1 90/3/1
f 94/3/1 92/3/1 93/3/1
f 95/3/1 93/3/1 89/3/1
f 96/3/1 93/3/1 95/3/1
f 97/3/1 92/3/1 94/3/1
f 98/3/1 92/3/1 97/3/1
f 99/4/2 100/4/2 101/4/2
f 101/4/2 100/4/2 102/4/2
f 103/4/2 104/4/2 105/4/2
f 105/4/2 104/4/2 106/4/2
f 107/2/2 108/2/2 109/2/2
f 109/2/2 108/2/2 110/2/2
f 110/2/2 108/2/2 111/2/2
f 112/2/2 113/2/2 116/2/2
f 114/2/2 115/2/2 117/2/2
f 117/2/2 115/2/2 118/2/2
f 112/2/2 116/2/2 119/2/2
f 116/2/2 117/2/2 119/2/2
f 119/2/2 117/2/2 120/2/2
f 120/2/2 117/2/2 121/2/2
f 122/2/2 123/2/2 126/2/2
f 126/2/2 123/2/2 127/2/2
f 124/4/2 125/4/2 128/4/2
f 128/4/2 125/4/2 129/4/2
f 130/4/2 131/4/2 132/4/2
f 132/4/2 131/4/2 133/4/2
f 134/4/2 135/4/2 138/4/2
f 138/4/2 135/4/2 139/4/2
f 136/2/2 137/2/2 140/2/2
f 140/2/2 137/2/2 141/2/2
f 139/2/2 140/2/2 144/2/2
f 144/2/2 140/2/2 145/2/2
f 145/2/2 140/2/2 146/2/2
f 142/4/2 143/4/2 148/4/2
f 148/4/2 143/4/2 149/4/2
f 146/4/2 147/4/2 150/4/2
f 150/4/2 147/4/2 151/4/2
f 152/3/2 153/3/2 156/3/2
f 156/3/2 153/3/2 157/3/2
f 154/3/2 155/3/2 158/3/2
f 158/3/2 155/3/2 159/3/2
f 157/3/2 158/3/2 160/3/2
f 160/3/2 158/3/2 161/3/2
f 162/1/2 163/1/2 164/1/2
f 164/1/2 163/1/2 165/1/2
f 166/3/2 167/3/2 168/3/2
f 168/3/2 167/3/2 169/3/2
f 170/4/2 171/4/2 172/4/2
f 172/4/2 171/4/2 173/4/2
f 173/4/2 171/4/2 174/4/2
f 174/4/2 171/4/2 175/4/2
f 176/4/2 177/4/2 180/4/2
f 180/4/2 177/4/2 181/4/2
f 178/4/2 179/4/2 184/4/2
f 184/4/2 179/4/2 185/4/2
f 181/3/2 182/3/2 186/3/2
f 180/3/2 181/3/2 186/3/2
f 186/3/2 182/3/2 187/3/2
f 184/3/2 185/3/2 188/3/2
f 183/3/2 184/3/2 188/3/2
f 188/3/2 185/3/2 189/3/2
f 190/3/2 191/3/2 192/3/2
f 192/3/2 191/3/2 193/3/2
f 194/3/2 195/3/2 198/3/2
f 198/3/2 195/3/2 199/3/2
f 196/3/2 197/3/2 200/3/2
f 200/3/2 197/3/2 201/3/2
f 202/3/2 203/3/2 206/3/2
f 206/3/2 203/3/2 207/3/2
f 204/3/2 205/3/2 208/3/2
f 208/3/2 205/3/2 209/3/2
f 207/3/2 208/3/2 210/3/2
f 210/3/2 208/3/2 211/3/2
f 212/3/2 213/3/2 214/3/2
f 214/3/2 213/3/2 215/3/2
f 218/2/3 217/2/3 216/2/3
f 219/2/3 217/2/3 218/2/3
f 220/2/3 218/2/3 216/2/3
f 221/3/3 219/3/3 218/3/3
f 221/2/3 218/2/3 220/2/3
f 224/3/3 219/3/3 221/3/3
f 226/4/3 223/4/3 222/4/3
f 227/4/3 223/4/3 226/4/3
f 228/3/3 224/3/3 221/3/3
f 228/3/3 225/3/3 224/3/3
f 229/3/3 225/3/3 228/3/3
f 230/4/3 221/4/3 220/4/3
f 231/3/3 228/3/3 221/3/3
f 231/4/3 221/4/3 230/4/3
f 232/3/3 228/3/3 231/3/3
f 237/2/3 234/2/3 233/2/3
f 238/2/3 234/2/3 237/2/3
f 239/2/3 234/2/3 238/2/3
f 242/4/3 236/4/3 235/4/3
f 243/4/3 236/4/3 242/4/3
f 244/3/3 239/3/3 238/3/3
f 245/3/3 239/3/3 244/3/3
f 247/4/3 241/4/3 240/4/3
f 248/4/3 241/4/3 247/4/3
f 252/3/3 246/3/3 245/3/3
f 253/3/3 246/3/3 252/3/3
f 254/3/3 252/3/3 251/3/3
f 255/3/3 252/3/3 254/3/3
f 256/4/3 250/4/3 249/4/3
f 257/4/3 250/4/3 256/4/3
f 261/3/3 259/3/3 258/3/3
f 262/3/3 259/3/3 261/3/3
f 263/3/3 261/3/3 260/3/3
f 264/3/3 261/3/3 263/3/3
f 268/2/3 266/2/3 265/2/3
f 270/2/3 268/2/3 267/2/3
f 271/2/3 266/2/3 268/2/3
f 271/2/3 268/2/3 270/2/3
f 274/4/3 270/4/3 269/4/3
f 274/4/3 271/4/3 270/4/3
f 275/4/3 271/4/3 274/4/3
f 276/4/3 271/4/3 275/4/3
f 277/4/3 273/4/3 272/4/3
f 278/4/3 273/4/3 277/4/3
f 280/2/3 275/2/3 274/2/3
f 281/2/3 275/2/3 280/2/3
f 282/1/3 280/1/3 279/1/3
f 283/1/3 280/1/3 282/1/3
f 288/3/3 287/3/3 286/3/3
f 289/3/3 287/3/3 288/3/3
f 292/3/3 285/3/3 284/3/3
f 293/3/3 285/3/3 292/3/3
f 295/3/3 291/3/3 290/3/3
f 296/3/3 294/3/3 293/3/3
f 297/3/3 294/3/3 296/3/3
f 298/3/3 295/3/3 290/3/3
f 298/3/3 296/3/3 295/3/3
f 299/3/3 296/3/3 298/3/3
f 303/4/3 301/4/3 300/4/3
f 304/4/3 301/4/3 303/4/3
f 305/2/3 303/2/3 302/2/3
f 306/2/3 303/2/3 305/2/3
f 309/4/3 308/4/3 307/4/3
f 310/4/3 308/4/3 309/4/3
f 313/4/3 312/4/3 311/4/3
f 314/4/3 312/4/3 313/4/3
f 315/4/4 316/4/4 317/4/4
f 317/4/4 316/4/4 318/4/4
f 319/4/4 320/4/4 321/4/4
f 321/4/4 320/4/4 322/4/4
f 323/4/4 324/4/4 325/4/4
f 325/4/4 324/4/4 326/4/4
f 327/4/4 328/4/4 331/4/4
f 331/4/4 328/4/4 332/4/4
f 329/4/4 330/4/4 333/4/4
f 333/4/4 330/4/4 334/4/4
f 337/3/4 338/3/4 339/3/4
f 339/3/4 338/3/4 340/3/4
f 335/3/4 336/3/4 343/3/4
f 343/3/4 336/3/4 344/3/4
f 341/3/4 342/3/4 346/3/4
f 344/3/4 345/3/4 347/3/4
f 347/3/4 345/3/4 348/3/4
f 341/3/4 346/3/4 349/3/4
f 346/3/4 347/3/4 349/3/4
f 349/3/4 347/3/4 350/3/4
f 351/2/4 352/2/4 355/2/4
f 353/4/4 354/4/4 356/4/4
f 356/4/4 354/4/4 357/4/4
f 355/2/4 352/2/4 358/2/4
f 358/2/4 352/2/4 359/2/4
f 358/3/4 359/3/4 362/3/4
f 362/3/4 359/3/4 363/3/4
f 360/4/4 361/4/4 365/4/4
f 365/4/4 361/4/4 366/4/4
f 366/2/4 367/2/4 369/2/4
f 369/2/4 367/2/4 370/2/4
f 363/3/4 364/3/4 373/3/4
f 373/3/4 364/3/4 374/3/4
f 368/1/4 369/1/4 375/1/4
f 375/1/4 369/1/4 376/1/4
f 372/3/4 373/3/4 377/3/4
f 377/3/4 373/3/4 378/3/4
f 370/4/4 371/4/4 379/4/4
f 379/4/4 371/4/4 380/4/4
f 381/3/4 382/3/4 384/3/4
f 384/3/4 382/3/4 385/3/4
f 383/3/4 384/3/4 386/3/4
f 386/3/4 384/3/4 387/3/4
f 388/2/4 389/2/4 392/2/4
f 392/2/4 389/2/4 393/2/4
f 390/2/4 391/2/4 395/2/4
f 395/2/4 391/2/4 396/2/4
f 394/2/4 395/2/4 398/2/4
f 398/2/4 395/2/4 399/2/4
f 392/3/4 393/3/4 401/3/4
f 401/3/4 393/3/4 402/3/4
f 397/2/4 398/2/4 404/2/4
f 399/2/4 400/2/4 405/2/4
f 400/4/4 401/4/4 406/4/4
f 405/2/4 400/2/4 406/2/4
f 397/2/4 404/2/4 408/2/4
f 404/4/4 405/4/4 409/4/4
f 408/2/4 404/2/4 409/2/4
f 407/2/4 408/2/4 410/2/4
f 410/2/4 408/2/4 411/2/4
f 409/4/4 405/4/4 412/4/4
f 412/4/4 405/4/4 413/4/4
f 401/3/4 402/3/4 414/3/4
f 402/3/4 403/3/4 414/3/4
f 414/3/4 403/3/4 415/3/4
f 406/4/4 401/4/4 416/4/4
f 401/3/4 414/3/4 417/3/4
f 416/4/4 401/4/4 417/4/4
f 417/3/4 414/3/4 418/3/4
f 419/2/4 420/2/4 422/2/4
f 421/2/4 422/2/4 424/2/4
f 422/2/4 420/2/4 425/2/4
f 424/2/4 422/2/4 425/2/4
f 423/2/4 424/2/4 426/2/4
f 426/2/4 424/2/4 427/2/4
f 430/3/5 429/3/5 428/3/5
f 431/3/5 429/3/5 430/3/5
f 436/4/5 433/4/5 432/4/5
f 437/4/5 433/4/5 436/4/5
f 438/4/5 433/4/5 437/4/5
f 440/3/5 435/3/5 434/3/5
f 441/3/5 435/3/5 440/3/5
f 442/4/5 436/4/5 432/4/5
f 442/3/5 437/3/5 436/3/5
f 443/4/5 438/4/5 437/4/5
f 443/3/5 437/3/5 442/3/5
f 446/4/5 442/4/5 432/4/5
f 446/4/5 443/4/5 442/4/5
f 447/4/5 438/4/5 443/4/5
f 447/4/5 443/4/5 446/4/5
f 448/1/5 439/1/5 438/1/5
f 448/4/5 438/4/5 447/4/5
f 449/1/5 439/1/5 448/1/5
f 450/3/5 445/3/5 444/3/5
f 451/3/5 445/3/5 450/3/5
f 452/2/5 448/2/5 447/2/5
f 453/2/5 448/2/5 452/2/5
f 456/2/5 455/2/5 454/2/5
f 457/2/5 455/2/5 456/2/5
f 461/4/5 459/4/5 458/4/5
f 462/4/5 459/4/5 461/4/5
f 464/4/5 461/4/5 460/4/5
f 465/4/5 461/4/5 464/4/5
f 467/4/5 463/4/5 462/4/5
f 468/4/5 463/4/5 467/4/5
f 469/4/5 464/4/5 460/4/5
f 470/2/5 466/2/5 465/2/5
f 471/2/5 466/2/5 470/2/5
f 473/4/5 463/4/5 468/4/5
f 474/4/5 469/4/5 460/4/5
f 474/4/5 470/4/5 469/4/5
f 475/4/5 470/4/5 474/4/5
f 476/4/5 470/4/5 475/4/5
f 478/4/5 473/4/5 472/4/5
f 479/4/5 463/4/5 473/4/5
f 479/4/5 473/4/5 478/4/5
f 480/2/5 476/2/5 475/2/5
f 481/2/5 476/2/5 480/2/5
f 483/4/5 478/4/5 477/4/5
f 484/4/5 478/4/5 483/4/5
f 485/2/5 482/2/5 481/2/5
f 486/2/5 482/2/5 485/2/5
f 491/2/5 488/2/5 487/2/5
f 492/2/5 488/2/5 491/2/5
f 493/3/5 490/3/5 489/3/5
f 494/3/5 490/3/5 493/3/5
f 497/2/5 496/2/5 495/2/5
f 498/2/5 496/2/5 497/2/5
f 500/2/5 499/2/5 498/2/5
f 501/2/5 499/2/5 500/2/5
f 505/2/5 503/2/5 502/2/5
f 506/4/5 504/4/5 503/4/5
f 506/2/5 503/2/5 505/2/5
f 507/4/5 504/4/5 506/4/5
f 509/2/5 505/2/5 502/2/5
f 509/3/5 508/3/5 507/3/5
f 509/3/5 507/3/5 506/3/5
f 509/3/5 506/3/5 505/3/5
f 510/3/5 508/3/5 509/3/5
f 511/3/5 508/3/5 510/3/5
f 512/3/5 508/3/5 511/3/5
f 513/3/5 508/3/5 512/3/5
f 515/3/5 512/3/5 511/3/5
f 516/3/5 512/3/5 515/3/5
f 518/3/5 515/3/5 514/3/5
f 518/3/5 517/3/5 516/3/5
f 518/3/5 516/3/5 515/3/5
f 519/3/5 517/3/5 518/3/5
f 520/3/5 517/3/5 519/3/5
f 521/2/5 509/2/5 502/2/5
f 523/4/5 519/4/5 518/4/5
f 524/4/5 519/4/5 523/4/5
f 525/2/5 522/2/5 521/2/5
f 525/2/5 521/2/5 502/2/5
f 526/2/5 522/2/5 525/2/5
f 527/4/6 528/4/6 529/4/6
f 529/4/6 528/4/6 530/4/6
f 530/4/6 528/4/6 531/4/6
f 527/4/6 529/4/6 533/4/6
f 533/4/6 529/4/6 534/4/6
f 531/1/6 532/1/6 536/1/6
f 536/1/6 532/1/6 537/1/6
f 535/2/6 536/2/6 538/2/6
f 538/2/6 536/2/6 539/2/6
f 540/2/6 541/2/6 543/2/6
f 543/2/6 541/2/6 544/2/6
f 542/2/6 543/2/6 545/2/6
f 543/2/6 544/2/6 545/2/6
f 545/2/6 544/2/6 546/2/6
f 547/4/6 548/4/6 550/4/6
f 550/4/6 548/4/6 551/4/6
f 549/4/6 550/4/6 553/4/6
f 553/4/6 550/4/6 554/4/6
f 551/4/6 552/4/6 555/4/6
f 555/4/6 552/4/6 556/4/6
f 556/4/6 552/4/6 557/4/6
f 556/4/6 557/4/6 559/4/6
f 559/4/6 557/4/6 560/4/6
f 558/4/6 559/4/6 562/4/6
f 559/4/6 560/4/6 562/4/6
f 562/4/6 560/4/6 563/4/6
f 561/4/6 562/4/6 565/4/6
f 565/4/6 562/4/6 566/4/6
f 564/2/6 565/2/6 567/2/6
f 567/2/6 565/2/6 568/2/6
f 569/3/6 570/3/6 571/3/6
f 571/3/6 570/3/6 572/3/6
f 572/3/6 573/3/6 575/3/6
f 575/3/6 573/3/6 576/3/6
f 574/3/6 575/3/6 577/3/6
f 577/3/6 575/3/6 578/3/6
f 579/3/6 580/3/6 581/3/6
f 581/3/6 580/3/6 582/3/6
f 582/3/6 580/3/6 583/3/6
f 583/3/6 584/3/6 586/3/6
f 582/3/6 583/3/6 586/3/6
f 586/3/6 584/3/6 587/3/6
f 587/3/6 584/3/6 588/3/6
f 585/3/6 586/3/6 589/3/6
f 586/3/6 587/3/6 589/3/6
f 589/3/6 587/3/6 590/3/6
f 591/2/6 592/2/6 594/2/6
f 592/2/6 593/2/6 594/2/6
f 594/2/6 593/2/6 595/2/6
f 596/2/6 597/2/6 601/2/6
f 597/3/6 598/3/6 602/3/6
f 601/2/6 597/2/6 602/2/6
f 602/3/6 598/3/6 603/3/6
f 603/3/6 598/3/6 604/3/6
f 599/3/6 600/3/6 605/3/6
f 605/3/6 600/3/6 606/3/6
f 606/3/6 600/3/6 607/3/6
f 606/3/6 607/3/6 609/3/6
f 607/3/6 608/3/6 609/3/6
f 609/3/6 608/3/6 610/3/6
f 606/3/6 609/3/6 616/3/6
f 611/2/6 612/2/6 617/2/6
f 613/3/6 614/3/6 618/3/6
f 617/2/6 612/2/6 618/2/6
f 612/3/6 613/3/6 618/3/6
f 618/3/6 614/3/6 619/3/6
f 615/3/6 616/3/6 620/3/6
f 616/3/6 609/3/6 621/3/6
f 620/3/6 616/3/6 621/3/6
f 622/3/6 623/3/6 626/3/6
f 626/3/6 623/3/6 627/3/6
f 624/2/6 625/2/6 629/2/6
f 625/3/6 626/3/6 630/3/6
f 629/2/6 625/2/6 630/2/6
f 630/3/6 626/3/6 631/3/6
f 627/3/6 628/3/6 632/3/6
f 632/3/6 628/3/6 633/3/6
f 631/3/6 632/3/6 634/3/6
f 634/3/6 632/3/6 635/3/6
f 636/3/6 637/3/6 638/3/6
f 638/3/6 637/3/6 639/3/6
f 636/3/6 638/3/6 640/3/6
f 639/3/6 637/3/6 641/3/6
f 636/3/6 640/3/6 642/3/6
f 640/3/6 641/3/6 642/3/6
f 641/3/6 637/3/6 643/3/6
f 642/3/6 641/3/6 643/3/6
f 644/4/6 645/4/6 646/4/6
f 646/4/6 645/4/6 647/4/6
