# MagicaVoxel @ Ephtracy

# group
o 

# material
mtllib VardArm.mtl
usemtl palette

# normals
vn -1 0 0
vn 1 0 0
vn 0 0 1
vn 0 0 -1
vn 0 -1 0
vn 0 1 0

# texcoords
vt 0.912109 0.5
vt 0.943359 0.5
vt 0.974609 0.5
vt 0.978516 0.5

# verts
v -1 0.3 0.1
v -1 0.3 2.98023e-08
v -1 0.4 0.1
v -1 0.4 2.98023e-08
v -1 0.6 0.1
v -1 0.6 2.98023e-08
v -1 0.7 0.1
v -1 0.7 2.98023e-08
v -1 1 0.1
v -1 1 2.98023e-08
v -1 1.1 0.1
v -1 1.1 2.98023e-08
v -0.9 0 0.1
v -0.9 0 2.98023e-08
v -0.9 0.1 0.1
v -0.9 0.1 2.98023e-08
v -0.9 0.1 -0.2
v -0.9 0.1 -0.3
v -0.9 0.2 0.1
v -0.9 0.2 2.98023e-08
v -0.9 0.2 -0.2
v -0.9 0.2 -0.3
v -0.9 0.3 0.1
v -0.9 0.3 2.98023e-08
v -0.9 0.4 0.1
v -0.9 0.4 2.98023e-08
v -0.9 0.6 0.1
v -0.9 0.6 2.98023e-08
v -0.9 0.7 0.1
v -0.9 0.7 2.98023e-08
v -0.9 1 0.2
v -0.9 1 0.1
v -0.9 1 2.98023e-08
v -0.9 1 -0.1
v -0.9 1.1 0.2
v -0.9 1.1 0.1
v -0.9 1.1 2.98023e-08
v -0.9 1.1 -0.1
v -0.9 1.2 0.1
v -0.9 1.2 2.98023e-08
v -0.8 0 2.98023e-08
v -0.8 0 -0.2
v -0.8 0.1 0.2
v -0.8 0.1 0.1
v -0.8 0.1 2.98023e-08
v -0.8 0.1 -0.1
v -0.8 0.1 -0.2
v -0.8 0.2 0.1
v -0.8 0.2 2.98023e-08
v -0.8 0.2 -0.1
v -0.8 0.2 -0.2
v -0.8 0.2 -0.3
v -0.8 0.3 0.2
v -0.8 0.3 0.1
v -0.8 0.3 -0.2
v -0.8 0.3 -0.3
v -0.8 0.4 0.3
v -0.8 0.4 0.2
v -0.8 0.4 2.98023e-08
v -0.8 0.4 -0.2
v -0.8 0.5 0.3
v -0.8 0.5 0.2
v -0.8 0.5 -0.1
v -0.8 0.5 -0.2
v -0.8 0.7 0.1
v -0.8 0.7 2.98023e-08
v -0.8 0.8 0.2
v -0.8 0.8 0.1
v -0.8 0.8 2.98023e-08
v -0.8 0.8 -0.1
v -0.8 1 0.2
v -0.8 1 0.1
v -0.8 1 2.98023e-08
v -0.8 1 -0.1
v -0.8 1.1 0.2
v -0.8 1.1 0.1
v -0.8 1.1 2.98023e-08
v -0.8 1.1 -0.1
v -0.8 1.2 0.1
v -0.8 1.2 2.98023e-08
v -0.8 1.3 0.2
v -0.8 1.3 -0.1
v -0.7 0.6 -0.1
v -0.7 0.6 -0.2
v -0.7 0.7 -0.1
v -0.7 0.7 -0.2
v -0.7 0.8 -0.1
v -0.7 1 0.3
v -0.7 1 0.2
v -0.7 1 -0.2
v -0.7 1 -0.3
v -0.7 1.1 -0.2
v -0.7 1.1 -0.3
v -0.7 1.2 0.3
v -0.7 1.2 0.2
v -0.7 1.2 -0.1
v -0.7 1.2 -0.2
v -0.6 1.2 0.3
v -0.6 1.2 0.2
v -0.6 1.3 0.3
v -0.6 1.3 0.2
v -0.6 1.3 -0.1
v -0.6 1.4 0.2
v -0.6 1.4 -0.1
v -0.7 0 0.1
v -0.7 0 -0.1
v -0.7 0.1 0.2
v -0.7 0.1 0.1
v -0.7 0.1 2.98023e-08
v -0.7 0.1 -0.1
v -0.7 0.1 -0.2
v -0.7 0.1 -0.3
v -0.7 0.2 0.1
v -0.7 0.2 2.98023e-08
v -0.7 0.2 -0.1
v -0.7 0.2 -0.2
v -0.7 0.3 0.2
v -0.7 0.3 0.1
v -0.7 0.3 -0.2
v -0.7 0.3 -0.3
v -0.7 0.4 0.3
v -0.7 0.4 0.2
v -0.7 0.4 2.98023e-08
v -0.7 0.4 -0.2
v -0.7 0.5 0.3
v -0.7 0.5 0.2
v -0.7 0.5 2.98023e-08
v -0.7 0.5 -0.1
v -0.7 0.5 -0.2
v -0.6 0 -0.1
v -0.6 0 -0.2
v -0.6 0.1 -0.1
v -0.6 0.1 -0.2
v -0.6 0.2 0.1
v -0.6 0.2 2.98023e-08
v -0.6 0.3 0.2
v -0.6 0.3 0.1
v -0.6 0.3 2.98023e-08
v -0.6 0.4 0.2
v -0.6 0.4 0.1
v -0.6 0.4 2.98023e-08
v -0.6 0.5 0.1
v -0.6 0.5 2.98023e-08
v -0.6 0.5 -0.1
v -0.6 0.6 0.1
v -0.6 0.6 2.98023e-08
v -0.6 0.6 -0.1
v -0.6 0.6 -0.2
v -0.6 0.7 0.2
v -0.6 0.7 0.1
v -0.6 0.7 2.98023e-08
v -0.6 0.7 -0.2
v -0.6 0.8 0.2
v -0.6 0.8 0.1
v -0.6 0.8 2.98023e-08
v -0.6 0.9 2.98023e-08
v -0.6 0.9 -0.1
v -0.6 1 -0.2
v -0.6 1 -0.3
v -0.6 1.1 -0.1
v -0.6 1.1 -0.2
v -0.6 1.1 -0.3
v -0.5 0.3 0.1
v -0.5 0.3 2.98023e-08
v -0.5 0.4 0.1
v -0.5 0.4 2.98023e-08
v -0.5 0.5 0.1
v -0.5 0.5 2.98023e-08
v -0.5 0.6 0.1
v -0.5 0.6 2.98023e-08
v -0.5 0.7 0.1
v -0.5 0.7 2.98023e-08
v -0.5 0.8 0.2
v -0.5 0.8 0.1
v -0.5 0.8 2.98023e-08
v -0.5 0.9 0.1
v -0.5 0.9 2.98023e-08
v -0.5 0.9 -0.1
v -0.5 1 0.3
v -0.5 1 0.2
v -0.5 1.1 0.2
v -0.5 1.1 -0.1
v -0.5 1.1 -0.2
v -0.5 1.2 -0.1
v -0.5 1.2 -0.2
v -0.5 1.3 0.3
v -0.5 1.3 0.2
v -0.5 1.3 -0.1
v -0.5 1.4 0.2
v -0.5 1.4 -0.1
v -0.4 0.8 0.1
v -0.4 0.8 2.98023e-08
v -0.4 0.9 0.1
v -0.4 0.9 2.98023e-08
v -0.4 1.1 0.2
v -0.4 1.1 -0.1
v -0.4 1.3 0.2
v -0.4 1.3 -0.1
v -0.8 0.4 0.3
v -0.8 0.5 0.3
v -0.7 0.4 0.3
v -0.7 0.5 0.3
v -0.7 1 0.3
v -0.7 1.2 0.3
v -0.6 1.2 0.3
v -0.6 1.3 0.3
v -0.5 1 0.3
v -0.5 1.3 0.3
v -0.9 1 0.2
v -0.9 1.1 0.2
v -0.8 0.1 0.2
v -0.8 0.3 0.2
v -0.8 0.4 0.2
v -0.8 0.5 0.2
v -0.8 0.8 0.2
v -0.8 1 0.2
v -0.8 1.1 0.2
v -0.8 1.3 0.2
v -0.7 0.1 0.2
v -0.7 0.3 0.2
v -0.7 0.4 0.2
v -0.7 0.5 0.2
v -0.7 0.7 0.2
v -0.7 0.8 0.2
v -0.7 1 0.2
v -0.7 1.2 0.2
v -0.6 0.3 0.2
v -0.6 0.4 0.2
v -0.6 0.7 0.2
v -0.6 0.8 0.2
v -0.6 1.2 0.2
v -0.6 1.3 0.2
v -0.6 1.4 0.2
v -0.5 0.8 0.2
v -0.5 1 0.2
v -0.5 1.1 0.2
v -0.5 1.3 0.2
v -0.5 1.4 0.2
v -0.4 1.1 0.2
v -0.4 1.3 0.2
v -1 0.3 0.1
v -1 0.4 0.1
v -1 0.6 0.1
v -1 0.7 0.1
v -1 1 0.1
v -1 1.1 0.1
v -0.9 0 0.1
v -0.9 0.1 0.1
v -0.9 0.2 0.1
v -0.9 0.3 0.1
v -0.9 0.4 0.1
v -0.9 0.6 0.1
v -0.9 0.7 0.1
v -0.9 1 0.1
v -0.9 1.1 0.1
v -0.9 1.2 0.1
v -0.8 0.1 0.1
v -0.8 0.2 0.1
v -0.8 0.3 0.1
v -0.8 0.7 0.1
v -0.8 0.8 0.1
v -0.8 1 0.1
v -0.8 1.1 0.1
v -0.8 1.2 0.1
v -0.7 0 0.1
v -0.7 0.1 0.1
v -0.7 0.2 0.1
v -0.7 0.3 0.1
v -0.6 0.2 0.1
v -0.6 0.3 0.1
v -0.6 0.4 0.1
v -0.6 0.5 0.1
v -0.6 0.6 0.1
v -0.6 0.7 0.1
v -0.6 0.8 0.1
v -0.5 0.3 0.1
v -0.5 0.4 0.1
v -0.5 0.5 0.1
v -0.5 0.6 0.1
v -0.5 0.7 0.1
v -0.5 0.8 0.1
v -0.5 0.9 0.1
v -0.4 0.8 0.1
v -0.4 0.9 0.1
v -0.8 0.1 -0.1
v -0.8 0.2 -0.1
v -0.7 0 -0.1
v -0.7 0.1 -0.1
v -0.7 0.2 -0.1
v -0.6 0 -0.1
v -0.6 0.1 -0.1
v -0.9 0.1 -0.2
v -0.9 0.2 -0.2
v -0.8 0.1 -0.2
v -0.8 0.2 -0.2
v -0.8 0.3 -0.2
v -0.7 0.2 -0.2
v -0.7 0.3 -0.2
v -1 0.3 2.98023e-08
v -1 0.4 2.98023e-08
v -1 0.6 2.98023e-08
v -1 0.7 2.98023e-08
v -1 1 2.98023e-08
v -1 1.1 2.98023e-08
v -0.9 0 2.98023e-08
v -0.9 0.1 2.98023e-08
v -0.9 0.2 2.98023e-08
v -0.9 0.3 2.98023e-08
v -0.9 0.4 2.98023e-08
v -0.9 0.6 2.98023e-08
v -0.9 0.7 2.98023e-08
v -0.9 1 2.98023e-08
v -0.9 1.1 2.98023e-08
v -0.9 1.2 2.98023e-08
v -0.8 0 2.98023e-08
v -0.8 0.1 2.98023e-08
v -0.8 0.2 2.98023e-08
v -0.8 0.3 2.98023e-08
v -0.8 0.4 2.98023e-08
v -0.8 0.7 2.98023e-08
v -0.8 0.8 2.98023e-08
v -0.8 1 2.98023e-08
v -0.8 1.1 2.98023e-08
v -0.8 1.2 2.98023e-08
v -0.7 0.1 2.98023e-08
v -0.7 0.2 2.98023e-08
v -0.7 0.3 2.98023e-08
v -0.7 0.4 2.98023e-08
v -0.7 0.5 2.98023e-08
v -0.6 0.2 2.98023e-08
v -0.6 0.3 2.98023e-08
v -0.6 0.4 2.98023e-08
v -0.6 0.5 2.98023e-08
v -0.6 0.6 2.98023e-08
v -0.6 0.7 2.98023e-08
v -0.6 0.8 2.98023e-08
v -0.6 0.9 2.98023e-08
v -0.5 0.3 2.98023e-08
v -0.5 0.4 2.98023e-08
v -0.5 0.5 2.98023e-08
v -0.5 0.6 2.98023e-08
v -0.5 0.7 2.98023e-08
v -0.5 0.8 2.98023e-08
v -0.5 0.9 2.98023e-08
v -0.4 0.8 2.98023e-08
v -0.4 0.9 2.98023e-08
v -0.9 1 -0.1
v -0.9 1.1 -0.1
v -0.8 0.5 -0.1
v -0.8 0.8 -0.1
v -0.8 1 -0.1
v -0.8 1.1 -0.1
v -0.8 1.3 -0.1
v -0.7 0.5 -0.1
v -0.7 0.6 -0.1
v -0.7 0.7 -0.1
v -0.7 0.8 -0.1
v -0.7 1.2 -0.1
v -0.6 0.5 -0.1
v -0.6 0.6 -0.1
v -0.6 0.9 -0.1
v -0.6 1.1 -0.1
v -0.6 1.3 -0.1
v -0.6 1.4 -0.1
v -0.5 0.9 -0.1
v -0.5 1.1 -0.1
v -0.5 1.2 -0.1
v -0.5 1.3 -0.1
v -0.5 1.4 -0.1
v -0.4 1.1 -0.1
v -0.4 1.3 -0.1
v -0.8 0 -0.2
v -0.8 0.1 -0.2
v -0.8 0.4 -0.2
v -0.8 0.5 -0.2
v -0.7 0.1 -0.2
v -0.7 0.4 -0.2
v -0.7 0.5 -0.2
v -0.7 0.6 -0.2
v -0.7 0.7 -0.2
v -0.7 1 -0.2
v -0.7 1.1 -0.2
v -0.7 1.2 -0.2
v -0.6 0 -0.2
v -0.6 0.1 -0.2
v -0.6 0.6 -0.2
v -0.6 0.7 -0.2
v -0.6 1 -0.2
v -0.6 1.1 -0.2
v -0.5 1.1 -0.2
v -0.5 1.2 -0.2
v -0.9 0.1 -0.3
v -0.9 0.2 -0.3
v -0.8 0.2 -0.3
v -0.8 0.3 -0.3
v -0.7 0.1 -0.3
v -0.7 0.3 -0.3
v -0.7 1 -0.3
v -0.7 1.1 -0.3
v -0.6 1 -0.3
v -0.6 1.1 -0.3
v -0.9 0 0.1
v -0.7 0 0.1
v -0.9 0 2.98023e-08
v -0.8 0 2.98023e-08
v -0.7 0 -0.1
v -0.6 0 -0.1
v -0.8 0 -0.2
v -0.6 0 -0.2
v -0.8 0.1 0.2
v -0.7 0.1 0.2
v -0.8 0.1 0.1
v -0.7 0.1 0.1
v -0.9 0.1 -0.2
v -0.8 0.1 -0.2
v -0.7 0.1 -0.2
v -0.9 0.1 -0.3
v -0.7 0.1 -0.3
v -0.9 0.2 0.1
v -0.8 0.2 0.1
v -0.7 0.2 0.1
v -0.6 0.2 0.1
v -0.9 0.2 2.98023e-08
v -0.8 0.2 2.98023e-08
v -0.7 0.2 2.98023e-08
v -0.6 0.2 2.98023e-08
v -0.7 0.3 0.2
v -0.6 0.3 0.2
v -1 0.3 0.1
v -0.9 0.3 0.1
v -0.7 0.3 0.1
v -0.6 0.3 0.1
v -0.5 0.3 0.1
v -1 0.3 2.98023e-08
v -0.9 0.3 2.98023e-08
v -0.6 0.3 2.98023e-08
v -0.5 0.3 2.98023e-08
v -0.8 0.4 0.3
v -0.7 0.4 0.3
v -0.8 0.4 0.2
v -0.7 0.4 0.2
v -0.8 0.4 2.98023e-08
v -0.7 0.4 2.98023e-08
v -0.8 0.4 -0.2
v -0.7 0.4 -0.2
v -0.6 0.5 0.1
v -0.5 0.5 0.1
v -0.7 0.5 2.98023e-08
v -0.6 0.5 2.98023e-08
v -0.5 0.5 2.98023e-08
v -0.7 0.5 -0.1
v -0.6 0.5 -0.1
v -1 0.6 0.1
v -0.9 0.6 0.1
v -1 0.6 2.98023e-08
v -0.9 0.6 2.98023e-08
v -0.7 0.6 -0.1
v -0.6 0.6 -0.1
v -0.7 0.6 -0.2
v -0.6 0.6 -0.2
v -0.6 0.7 0.1
v -0.5 0.7 0.1
v -0.6 0.7 2.98023e-08
v -0.5 0.7 2.98023e-08
v -0.6 0.8 0.2
v -0.5 0.8 0.2
v -0.6 0.8 0.1
v -0.5 0.8 0.1
v -0.4 0.8 0.1
v -0.5 0.8 2.98023e-08
v -0.4 0.8 2.98023e-08
v -0.6 0.9 2.98023e-08
v -0.5 0.9 2.98023e-08
v -0.6 0.9 -0.1
v -0.5 0.9 -0.1
v -0.7 1 0.3
v -0.5 1 0.3
v -0.9 1 0.2
v -0.8 1 0.2
v -0.7 1 0.2
v -0.5 1 0.2
v -1 1 0.1
v -0.9 1 0.1
v -0.8 1 0.1
v -1 1 2.98023e-08
v -0.9 1 2.98023e-08
v -0.8 1 2.98023e-08
v -0.9 1 -0.1
v -0.8 1 -0.1
v -0.7 1 -0.2
v -0.6 1 -0.2
v -0.7 1 -0.3
v -0.6 1 -0.3
v -0.5 1.1 0.2
v -0.4 1.1 0.2
v -0.6 1.1 -0.1
v -0.5 1.1 -0.1
v -0.4 1.1 -0.1
v -0.6 1.1 -0.2
v -0.5 1.1 -0.2
v -0.9 0.1 0.1
v -0.8 0.1 0.1
v -0.9 0.1 2.98023e-08
v -0.8 0.1 2.98023e-08
v -0.7 0.1 2.98023e-08
v -0.8 0.1 -0.1
v -0.7 0.1 -0.1
v -0.6 0.1 -0.1
v -0.7 0.1 -0.2
v -0.6 0.1 -0.2
v -0.8 0.2 -0.1
v -0.7 0.2 -0.1
v -0.9 0.2 -0.2
v -0.8 0.2 -0.2
v -0.7 0.2 -0.2
v -0.9 0.2 -0.3
v -0.8 0.2 -0.3
v -0.8 0.3 -0.2
v -0.7 0.3 -0.2
v -0.8 0.3 -0.3
v -0.7 0.3 -0.3
v -1 0.4 0.1
v -0.9 0.4 0.1
v -0.6 0.4 0.1
v -0.5 0.4 0.1
v -1 0.4 2.98023e-08
v -0.9 0.4 2.98023e-08
v -0.6 0.4 2.98023e-08
v -0.5 0.4 2.98023e-08
v -0.8 0.5 0.3
v -0.7 0.5 0.3
v -0.8 0.5 0.2
v -0.7 0.5 0.2
v -0.8 0.5 -0.1
v -0.7 0.5 -0.1
v -0.8 0.5 -0.2
v -0.7 0.5 -0.2
v -0.6 0.6 0.1
v -0.5 0.6 0.1
v -0.6 0.6 2.98023e-08
v -0.5 0.6 2.98023e-08
v -1 0.7 0.1
v -0.9 0.7 0.1
v -1 0.7 2.98023e-08
v -0.9 0.7 2.98023e-08
v -0.5 0.9 0.1
v -0.4 0.9 0.1
v -0.5 0.9 2.98023e-08
v -0.4 0.9 2.98023e-08
v -0.9 1.1 0.2
v -0.8 1.1 0.2
v -1 1.1 0.1
v -0.9 1.1 0.1
v -0.8 1.1 0.1
v -1 1.1 2.98023e-08
v -0.9 1.1 2.98023e-08
v -0.8 1.1 2.98023e-08
v -0.9 1.1 -0.1
v -0.8 1.1 -0.1
v -0.7 1.1 -0.2
v -0.6 1.1 -0.2
v -0.7 1.1 -0.3
v -0.6 1.1 -0.3
v -0.7 1.2 0.3
v -0.6 1.2 0.3
v -0.7 1.2 0.2
v -0.6 1.2 0.2
v -0.9 1.2 0.1
v -0.8 1.2 0.1
v -0.9 1.2 2.98023e-08
v -0.8 1.2 2.98023e-08
v -0.7 1.2 -0.1
v -0.5 1.2 -0.1
v -0.7 1.2 -0.2
v -0.5 1.2 -0.2
v -0.6 1.3 0.3
v -0.5 1.3 0.3
v -0.8 1.3 0.2
v -0.6 1.3 0.2
v -0.5 1.3 0.2
v -0.4 1.3 0.2
v -0.8 1.3 -0.1
v -0.6 1.3 -0.1
v -0.5 1.3 -0.1
v -0.4 1.3 -0.1
v -0.6 1.4 0.2
v -0.5 1.4 0.2
v -0.6 1.4 -0.1
v -0.5 1.4 -0.1

# faces
f 3/1/1 2/1/1 1/1/1
f 4/1/1 2/1/1 3/1/1
f 7/1/1 6/1/1 5/1/1
f 8/1/1 6/1/1 7/1/1
f 11/3/1 10/3/1 9/3/1
f 12/3/1 10/3/1 11/3/1
f 15/2/1 14/2/1 13/2/1
f 16/2/1 14/2/1 15/2/1
f 21/2/1 18/2/1 17/2/1
f 22/2/1 18/2/1 21/2/1
f 23/2/1 20/2/1 19/2/1
f 24/2/1 20/2/1 23/2/1
f 27/1/1 26/1/1 25/1/1
f 28/1/1 26/1/1 27/1/1
f 32/3/1 30/3/1 29/3/1
f 33/3/1 30/3/1 32/3/1
f 35/3/1 32/3/1 31/3/1
f 36/3/1 32/3/1 35/3/1
f 37/3/1 34/3/1 33/3/1
f 38/3/1 34/3/1 37/3/1
f 39/3/1 37/3/1 36/3/1
f 40/3/1 37/3/1 39/3/1
f 45/2/1 42/2/1 41/2/1
f 46/2/1 42/2/1 45/2/1
f 47/2/1 42/2/1 46/2/1
f 48/2/1 44/2/1 43/2/1
f 48/2/1 45/2/1 44/2/1
f 49/2/1 45/2/1 48/2/1
f 50/2/1 47/2/1 46/2/1
f 51/2/1 47/2/1 50/2/1
f 53/2/1 48/2/1 43/2/1
f 54/2/1 48/2/1 53/2/1
f 55/2/1 52/2/1 51/2/1
f 56/2/1 52/2/1 55/2/1
f 58/1/1 54/1/1 53/1/1
f 61/1/1 58/1/1 57/1/1
f 62/1/1 54/1/1 58/1/1
f 62/1/1 58/1/1 61/1/1
f 63/1/1 60/1/1 59/1/1
f 64/1/1 60/1/1 63/1/1
f 65/1/1 54/1/1 62/1/1
f 66/1/1 63/1/1 59/1/1
f 67/1/1 65/1/1 62/1/1
f 68/1/1 65/1/1 67/1/1
f 69/1/1 63/1/1 66/1/1
f 70/1/1 63/1/1 69/1/1
f 71/3/1 68/3/1 67/3/1
f 72/3/1 68/3/1 71/3/1
f 73/3/1 70/3/1 69/3/1
f 74/3/1 70/3/1 73/3/1
f 79/3/1 76/3/1 75/3/1
f 80/3/1 78/3/1 77/3/1
f 81/3/1 79/3/1 75/3/1
f 81/3/1 80/3/1 79/3/1
f 82/3/1 78/3/1 80/3/1
f 82/3/1 80/3/1 81/3/1
f 85/1/1 84/1/1 83/1/1
f 86/1/1 84/1/1 85/1/1
f 87/3/1 86/3/1 85/3/1
f 90/3/1 86/3/1 87/3/1
f 92/3/1 90/3/1 87/3/1
f 92/3/1 91/3/1 90/3/1
f 93/3/1 91/3/1 92/3/1
f 94/3/1 89/3/1 88/3/1
f 95/3/1 89/3/1 94/3/1
f 96/3/1 92/3/1 87/3/1
f 97/3/1 92/3/1 96/3/1
f 100/3/1 99/3/1 98/3/1
f 101/3/1 99/3/1 100/3/1
f 103/3/1 102/3/1 101/3/1
f 104/3/1 102/3/1 103/3/1
f 105/2/2 106/2/2 108/2/2
f 108/2/2 106/2/2 109/2/2
f 109/2/2 106/2/2 110/2/2
f 107/2/2 108/2/2 113/2/2
f 108/2/2 109/2/2 113/2/2
f 113/2/2 109/2/2 114/2/2
f 111/2/2 112/2/2 115/2/2
f 110/2/2 111/2/2 115/2/2
f 115/2/2 112/2/2 116/2/2
f 107/2/2 113/2/2 117/2/2
f 117/2/2 113/2/2 118/2/2
f 116/2/2 112/2/2 119/2/2
f 119/2/2 112/2/2 120/2/2
f 121/1/2 122/1/2 125/1/2
f 125/1/2 122/1/2 126/1/2
f 123/1/2 124/1/2 127/1/2
f 127/1/2 124/1/2 128/1/2
f 128/1/2 124/1/2 129/1/2
f 130/2/2 131/2/2 132/2/2
f 132/2/2 131/2/2 133/2/2
f 134/2/2 135/2/2 137/2/2
f 137/2/2 135/2/2 138/2/2
f 136/2/2 137/2/2 139/2/2
f 139/2/2 137/2/2 140/2/2
f 139/1/2 140/1/2 142/1/2
f 140/1/2 141/1/2 142/1/2
f 142/1/2 141/1/2 143/1/2
f 139/1/2 142/1/2 145/1/2
f 143/1/2 144/1/2 146/1/2
f 146/1/2 144/1/2 147/1/2
f 139/1/2 145/1/2 149/1/2
f 147/1/2 148/1/2 149/1/2
f 146/1/2 147/1/2 149/1/2
f 145/1/2 146/1/2 149/1/2
f 149/1/2 148/1/2 150/1/2
f 150/1/2 148/1/2 151/1/2
f 151/1/2 148/1/2 152/1/2
f 149/3/2 150/3/2 153/3/2
f 153/3/2 150/3/2 154/3/2
f 151/3/2 152/3/2 155/3/2
f 155/3/2 152/3/2 156/3/2
f 156/3/2 152/3/2 157/3/2
f 157/3/2 152/3/2 158/3/2
f 157/3/2 158/3/2 160/3/2
f 158/3/2 159/3/2 160/3/2
f 160/3/2 159/3/2 161/3/2
f 161/3/2 159/3/2 162/3/2
f 163/1/2 164/1/2 165/1/2
f 165/1/2 164/1/2 166/1/2
f 167/1/2 168/1/2 169/1/2
f 169/1/2 168/1/2 170/1/2
f 171/1/2 172/1/2 174/1/2
f 174/1/2 172/1/2 175/1/2
f 173/3/2 174/3/2 176/3/2
f 176/3/2 177/3/2 180/3/2
f 177/3/2 178/3/2 180/3/2
f 173/3/2 176/3/2 180/3/2
f 180/3/2 178/3/2 181/3/2
f 179/3/2 180/3/2 181/3/2
f 181/3/2 178/3/2 182/3/2
f 182/3/2 183/3/2 184/3/2
f 184/3/2 183/3/2 185/3/2
f 179/3/2 181/3/2 186/3/2
f 186/3/2 181/3/2 187/3/2
f 187/3/2 188/3/2 189/3/2
f 189/3/2 188/3/2 190/3/2
f 191/3/2 192/3/2 193/3/2
f 193/3/2 192/3/2 194/3/2
f 195/3/2 196/3/2 197/3/2
f 197/3/2 196/3/2 198/3/2
f 201/1/3 200/1/3 199/1/3
f 202/1/3 200/1/3 201/1/3
f 205/3/3 204/3/3 203/3/3
f 207/3/3 205/3/3 203/3/3
f 207/3/3 206/3/3 205/3/3
f 208/3/3 206/3/3 207/3/3
f 216/3/3 210/3/3 209/3/3
f 217/3/3 210/3/3 216/3/3
f 219/2/3 212/2/3 211/2/3
f 220/1/3 213/1/3 212/1/3
f 220/2/3 212/2/3 219/2/3
f 221/1/3 213/1/3 220/1/3
f 222/1/3 215/1/3 214/1/3
f 223/1/3 215/1/3 222/1/3
f 224/3/3 218/3/3 217/3/3
f 224/1/3 215/1/3 223/1/3
f 224/3/3 216/3/3 215/3/3
f 224/3/3 217/3/3 216/3/3
f 225/3/3 218/3/3 224/3/3
f 226/3/3 218/3/3 225/3/3
f 227/2/3 221/2/3 220/2/3
f 228/1/3 223/1/3 222/1/3
f 228/2/3 221/2/3 227/2/3
f 228/1/3 222/1/3 221/1/3
f 229/3/3 224/3/3 223/3/3
f 229/1/3 223/1/3 228/1/3
f 229/3/3 225/3/3 224/3/3
f 230/3/3 225/3/3 229/3/3
f 231/3/3 218/3/3 226/3/3
f 232/3/3 218/3/3 231/3/3
f 234/3/3 225/3/3 230/3/3
f 235/3/3 225/3/3 234/3/3
f 237/3/3 233/3/3 232/3/3
f 238/3/3 233/3/3 237/3/3
f 239/3/3 237/3/3 236/3/3
f 240/3/3 237/3/3 239/3/3
f 250/1/3 242/1/3 241/1/3
f 251/1/3 242/1/3 250/1/3
f 252/1/3 244/1/3 243/1/3
f 253/1/3 244/1/3 252/1/3
f 254/3/3 246/3/3 245/3/3
f 255/3/3 246/3/3 254/3/3
f 257/2/3 248/2/3 247/2/3
f 258/2/3 250/2/3 249/2/3
f 259/1/3 251/1/3 250/1/3
f 259/2/3 250/2/3 258/2/3
f 259/1/3 253/1/3 252/1/3
f 259/1/3 252/1/3 251/1/3
f 260/3/3 254/3/3 253/3/3
f 260/1/3 253/1/3 259/1/3
f 261/3/3 254/3/3 260/3/3
f 262/3/3 254/3/3 261/3/3
f 263/3/3 256/3/3 255/3/3
f 264/3/3 256/3/3 263/3/3
f 265/2/3 257/2/3 247/2/3
f 266/2/3 257/2/3 265/2/3
f 269/2/3 268/2/3 267/2/3
f 270/2/3 268/2/3 269/2/3
f 276/1/3 271/1/3 270/1/3
f 277/1/3 271/1/3 276/1/3
f 278/1/3 273/1/3 272/1/3
f 279/1/3 273/1/3 278/1/3
f 280/1/3 275/1/3 274/1/3
f 281/1/3 275/1/3 280/1/3
f 283/3/3 282/3/3 281/3/3
f 284/3/3 282/3/3 283/3/3
f 288/2/3 286/2/3 285/2/3
f 289/2/3 286/2/3 288/2/3
f 290/2/3 288/2/3 287/2/3
f 291/2/3 288/2/3 290/2/3
f 294/2/3 293/2/3 292/2/3
f 295/2/3 293/2/3 294/2/3
f 297/2/3 296/2/3 295/2/3
f 298/2/3 296/2/3 297/2/3
f 299/1/4 300/1/4 308/1/4
f 308/1/4 300/1/4 309/1/4
f 301/1/4 302/1/4 310/1/4
f 310/1/4 302/1/4 311/1/4
f 303/3/4 304/3/4 312/3/4
f 312/3/4 304/3/4 313/3/4
f 305/2/4 306/2/4 315/2/4
f 315/2/4 306/2/4 316/2/4
f 307/2/4 308/2/4 317/2/4
f 308/1/4 309/1/4 318/1/4
f 310/1/4 311/1/4 318/1/4
f 317/2/4 308/2/4 318/2/4
f 309/1/4 310/1/4 318/1/4
f 318/1/4 311/1/4 319/1/4
f 311/3/4 312/3/4 320/3/4
f 319/1/4 311/1/4 320/1/4
f 320/3/4 312/3/4 321/3/4
f 321/3/4 312/3/4 322/3/4
f 313/3/4 314/3/4 323/3/4
f 323/3/4 314/3/4 324/3/4
f 316/2/4 317/2/4 325/2/4
f 317/1/4 318/1/4 326/1/4
f 325/2/4 317/2/4 326/2/4
f 318/1/4 319/1/4 326/1/4
f 326/1/4 319/1/4 327/1/4
f 327/1/4 319/1/4 328/1/4
f 326/2/4 327/2/4 330/2/4
f 328/1/4 329/1/4 331/1/4
f 330/2/4 327/2/4 331/2/4
f 327/1/4 328/1/4 331/1/4
f 331/1/4 329/1/4 332/1/4
f 332/1/4 329/1/4 333/1/4
f 331/1/4 332/1/4 338/1/4
f 338/1/4 332/1/4 339/1/4
f 333/1/4 334/1/4 340/1/4
f 340/1/4 334/1/4 341/1/4
f 335/1/4 336/1/4 342/1/4
f 336/3/4 337/3/4 343/3/4
f 342/1/4 336/1/4 343/1/4
f 343/3/4 337/3/4 344/3/4
f 343/3/4 344/3/4 345/3/4
f 345/3/4 344/3/4 346/3/4
f 347/3/4 348/3/4 351/3/4
f 351/3/4 348/3/4 352/3/4
f 349/1/4 350/1/4 354/1/4
f 354/1/4 350/1/4 355/1/4
f 355/1/4 350/1/4 356/1/4
f 352/3/4 353/3/4 357/3/4
f 356/1/4 350/1/4 357/1/4
f 350/3/4 351/3/4 357/3/4
f 351/3/4 352/3/4 357/3/4
f 357/3/4 353/3/4 358/3/4
f 354/1/4 355/1/4 359/1/4
f 359/1/4 355/1/4 360/1/4
f 358/3/4 353/3/4 363/3/4
f 361/3/4 362/3/4 365/3/4
f 365/3/4 362/3/4 366/3/4
f 363/3/4 364/3/4 367/3/4
f 358/3/4 363/3/4 367/3/4
f 367/3/4 364/3/4 368/3/4
f 368/3/4 364/3/4 369/3/4
f 366/3/4 367/3/4 370/3/4
f 367/3/4 368/3/4 370/3/4
f 370/3/4 368/3/4 371/3/4
f 372/2/4 373/2/4 376/2/4
f 374/1/4 375/1/4 377/1/4
f 377/1/4 375/1/4 378/1/4
f 372/2/4 376/2/4 384/2/4
f 384/2/4 376/2/4 385/2/4
f 379/1/4 380/1/4 386/1/4
f 380/3/4 381/3/4 387/3/4
f 386/1/4 380/1/4 387/1/4
f 387/3/4 381/3/4 388/3/4
f 382/3/4 383/3/4 389/3/4
f 389/3/4 383/3/4 390/3/4
f 390/3/4 383/3/4 391/3/4
f 392/2/4 393/2/4 394/2/4
f 392/2/4 394/2/4 396/2/4
f 394/2/4 395/2/4 396/2/4
f 396/2/4 395/2/4 397/2/4
f 398/3/4 399/3/4 400/3/4
f 400/3/4 399/3/4 401/3/4
f 404/2/5 403/2/5 402/2/5
f 405/2/5 403/2/5 404/2/5
f 406/2/5 403/2/5 405/2/5
f 408/2/5 406/2/5 405/2/5
f 408/2/5 407/2/5 406/2/5
f 409/2/5 407/2/5 408/2/5
f 412/2/5 411/2/5 410/2/5
f 413/2/5 411/2/5 412/2/5
f 417/2/5 415/2/5 414/2/5
f 417/2/5 416/2/5 415/2/5
f 418/2/5 416/2/5 417/2/5
f 423/2/5 420/2/5 419/2/5
f 424/2/5 420/2/5 423/2/5
f 425/2/5 422/2/5 421/2/5
f 426/2/5 422/2/5 425/2/5
f 431/2/5 428/2/5 427/2/5
f 432/2/5 428/2/5 431/2/5
f 434/1/5 430/1/5 429/1/5
f 435/1/5 430/1/5 434/1/5
f 436/1/5 433/1/5 432/1/5
f 437/1/5 433/1/5 436/1/5
f 440/1/5 439/1/5 438/1/5
f 441/1/5 439/1/5 440/1/5
f 444/1/5 443/1/5 442/1/5
f 445/1/5 443/1/5 444/1/5
f 449/1/5 447/1/5 446/1/5
f 450/1/5 447/1/5 449/1/5
f 451/1/5 449/1/5 448/1/5
f 452/1/5 449/1/5 451/1/5
f 455/1/5 454/1/5 453/1/5
f 456/1/5 454/1/5 455/1/5
f 459/1/5 458/1/5 457/1/5
f 460/1/5 458/1/5 459/1/5
f 463/1/5 462/1/5 461/1/5
f 464/1/5 462/1/5 463/1/5
f 467/3/5 466/3/5 465/3/5
f 468/3/5 466/3/5 467/3/5
f 470/3/5 469/3/5 468/3/5
f 471/3/5 469/3/5 470/3/5
f 474/3/5 473/3/5 472/3/5
f 475/3/5 473/3/5 474/3/5
f 480/3/5 477/3/5 476/3/5
f 481/3/5 477/3/5 480/3/5
f 483/3/5 479/3/5 478/3/5
f 484/3/5 479/3/5 483/3/5
f 485/3/5 483/3/5 482/3/5
f 486/3/5 483/3/5 485/3/5
f 488/3/5 487/3/5 486/3/5
f 489/3/5 487/3/5 488/3/5
f 492/3/5 491/3/5 490/3/5
f 493/3/5 491/3/5 492/3/5
f 497/3/5 495/3/5 494/3/5
f 498/3/5 495/3/5 497/3/5
f 499/3/5 497/3/5 496/3/5
f 500/3/5 497/3/5 499/3/5
f 501/2/6 502/2/6 503/2/6
f 503/2/6 502/2/6 504/2/6
f 504/2/6 505/2/6 506/2/6
f 506/2/6 505/2/6 507/2/6
f 507/2/6 508/2/6 509/2/6
f 509/2/6 508/2/6 510/2/6
f 511/2/6 512/2/6 514/2/6
f 514/2/6 512/2/6 515/2/6
f 513/2/6 514/2/6 516/2/6
f 516/2/6 514/2/6 517/2/6
f 518/2/6 519/2/6 520/2/6
f 520/2/6 519/2/6 521/2/6
f 522/1/6 523/1/6 526/1/6
f 526/1/6 523/1/6 527/1/6
f 524/1/6 525/1/6 528/1/6
f 528/1/6 525/1/6 529/1/6
f 530/1/6 531/1/6 532/1/6
f 532/1/6 531/1/6 533/1/6
f 534/1/6 535/1/6 536/1/6
f 536/1/6 535/1/6 537/1/6
f 538/1/6 539/1/6 540/1/6
f 540/1/6 539/1/6 541/1/6
f 542/1/6 543/1/6 544/1/6
f 544/1/6 543/1/6 545/1/6
f 546/3/6 547/3/6 548/3/6
f 548/3/6 547/3/6 549/3/6
f 550/3/6 551/3/6 553/3/6
f 553/3/6 551/3/6 554/3/6
f 552/3/6 553/3/6 555/3/6
f 555/3/6 553/3/6 556/3/6
f 556/3/6 557/3/6 558/3/6
f 558/3/6 557/3/6 559/3/6
f 560/3/6 561/3/6 562/3/6
f 562/3/6 561/3/6 563/3/6
f 564/3/6 565/3/6 566/3/6
f 566/3/6 565/3/6 567/3/6
f 568/3/6 569/3/6 570/3/6
f 570/3/6 569/3/6 571/3/6
f 572/3/6 573/3/6 574/3/6
f 574/3/6 573/3/6 575/3/6
f 576/3/6 577/3/6 579/3/6
f 579/3/6 577/3/6 580/3/6
f 578/3/6 579/3/6 582/3/6
f 582/3/6 579/3/6 583/3/6
f 580/3/6 581/3/6 584/3/6
f 584/3/6 581/3/6 585/3/6
f 586/3/6 587/3/6 588/3/6
f 588/3/6 587/3/6 589/3/6
