# MagicaVoxel @ Ephtracy

# group
o 

# material
mtllib giantfoot.mtl
usemtl palette

# normals
vn -1 0 0
vn 1 0 0
vn 0 0 1
vn 0 0 -1
vn 0 -1 0
vn 0 1 0

# texcoords
vt 0.943359 0.5
vt 0.970703 0.5

# verts
v -0.5 -0.1 0.6
v -0.5 -0.1 -0.1
v -0.5 0 0.6
v -0.5 0 0
v -0.5 0.1 0.6
v -0.5 0.1 0.4
v -0.5 0.1 0.3
v -0.5 0.1 0.1
v -0.5 0.1 0
v -0.5 0.1 -0.1
v -0.5 0.2 0.4
v -0.5 0.2 0.3
v -0.5 0.2 0.1
v -0.5 0.2 0
v -0.5 0.3 0.3
v -0.5 0.3 0.2
v -0.5 0.3 0.1
v -0.5 0.7 0.2
v -0.5 0.7 -0.1
v -0.4 -0.1 0.7
v -0.4 -0.1 0.6
v -0.4 -0.1 -0.1
v -0.4 -0.1 -0.2
v -0.4 0 0.7
v -0.4 0 0.6
v -0.4 0 -0.1
v -0.4 0 -0.2
v -0.4 0.1 0.7
v -0.4 0.1 0.6
v -0.4 0.1 0.5
v -0.4 0.1 0.4
v -0.4 0.1 -0.1
v -0.4 0.2 0.5
v -0.4 0.2 0.4
v -0.4 0.2 0.3
v -0.4 0.3 0.4
v -0.4 0.3 0.3
v -0.4 0.3 0.2
v -0.4 0.7 0.3
v -0.4 0.7 0.2
v -0.4 0.7 -0.1
v -0.4 0.7 -0.2
v -0.3 0.1 0.6
v -0.3 0.1 0.5
v -0.3 0.2 0.6
v -0.3 0.2 0.5
v -0.2 0.1 0.6
v -0.2 0.1 0.5
v -0.2 0.2 0.6
v -0.2 0.2 0.5
v -0.1 -0.1 0.7
v -0.1 -0.1 0.6
v -0.1 -0.1 -0.1
v -0.1 -0.1 -0.2
v -0.1 0 0.7
v -0.1 0 0.6
v -0.1 0 -0.1
v -0.1 0 -0.2
v -0.1 0.1 0.7
v -0.1 0.1 0.6
v -0.1 0.1 0.5
v -0.1 0.1 0.4
v -0.1 0.1 -0.1
v -0.1 0.2 0.5
v -0.1 0.2 0.4
v -0.1 0.2 0.3
v -0.1 0.3 0.4
v -0.1 0.3 0.3
v -0.1 0.3 0.2
v -0.1 0.7 0.3
v -0.1 0.7 0.2
v -0.1 0.7 -0.1
v -0.1 0.7 -0.2
v 0 -0.1 0.6
v 0 -0.1 -0.1
v 0 0 0.6
v 0 0 0
v 0 0.1 0.6
v 0 0.1 0.4
v 0 0.1 0.3
v 0 0.1 0.1
v 0 0.1 0
v 0 0.1 -0.1
v 0 0.2 0.4
v 0 0.2 0.3
v 0 0.2 0.1
v 0 0.2 0
v 0 0.3 0.3
v 0 0.3 0.2
v 0 0.3 0.1
v 0 0.7 0.2
v 0 0.7 -0.1
v -0.4 -0.1 0.7
v -0.4 0 0.7
v -0.4 0.1 0.7
v -0.3 0 0.7
v -0.3 0.1 0.7
v -0.2 0 0.7
v -0.2 0.1 0.7
v -0.1 -0.1 0.7
v -0.1 0 0.7
v -0.1 0.1 0.7
v -0.5 -0.1 0.6
v -0.5 0 0.6
v -0.5 0.1 0.6
v -0.4 -0.1 0.6
v -0.4 0 0.6
v -0.4 0.1 0.6
v -0.3 0.1 0.6
v -0.3 0.2 0.6
v -0.2 0.1 0.6
v -0.2 0.2 0.6
v -0.1 -0.1 0.6
v -0.1 0 0.6
v -0.1 0.1 0.6
v 0 -0.1 0.6
v 0 0 0.6
v 0 0.1 0.6
v -0.4 0.1 0.5
v -0.4 0.2 0.5
v -0.3 0.1 0.5
v -0.3 0.2 0.5
v -0.2 0.1 0.5
v -0.2 0.2 0.5
v -0.1 0.1 0.5
v -0.1 0.2 0.5
v -0.5 0.1 0.4
v -0.5 0.2 0.4
v -0.4 0.1 0.4
v -0.4 0.2 0.4
v -0.4 0.3 0.4
v -0.3 0.2 0.4
v -0.2 0.2 0.4
v -0.1 0.1 0.4
v -0.1 0.2 0.4
v -0.1 0.3 0.4
v 0 0.1 0.4
v 0 0.2 0.4
v -0.5 0.2 0.3
v -0.5 0.3 0.3
v -0.4 0.2 0.3
v -0.4 0.3 0.3
v -0.4 0.7 0.3
v -0.1 0.2 0.3
v -0.1 0.3 0.3
v -0.1 0.7 0.3
v 0 0.2 0.3
v 0 0.3 0.3
v -0.5 0.3 0.2
v -0.5 0.7 0.2
v -0.4 0.3 0.2
v -0.4 0.7 0.2
v -0.1 0.3 0.2
v -0.1 0.7 0.2
v 0 0.3 0.2
v 0 0.7 0.2
v -0.5 -0.1 -0.1
v -0.5 0.1 -0.1
v -0.5 0.7 -0.1
v -0.4 -0.1 -0.1
v -0.4 0 -0.1
v -0.4 0.1 -0.1
v -0.4 0.7 -0.1
v -0.1 -0.1 -0.1
v -0.1 0 -0.1
v -0.1 0.1 -0.1
v -0.1 0.7 -0.1
v 0 -0.1 -0.1
v 0 0.1 -0.1
v 0 0.7 -0.1
v -0.4 -0.1 -0.2
v -0.4 0 -0.2
v -0.4 0.7 -0.2
v -0.1 -0.1 -0.2
v -0.1 0 -0.2
v -0.1 0.7 -0.2
v -0.4 -0.1 0.7
v -0.1 -0.1 0.7
v -0.5 -0.1 0.6
v -0.4 -0.1 0.6
v -0.1 -0.1 0.6
v 0 -0.1 0.6
v -0.5 -0.1 -0.1
v -0.4 -0.1 -0.1
v -0.1 -0.1 -0.1
v 0 -0.1 -0.1
v -0.4 -0.1 -0.2
v -0.1 -0.1 -0.2
v -0.4 0.1 0.7
v -0.3 0.1 0.7
v -0.2 0.1 0.7
v -0.1 0.1 0.7
v -0.5 0.1 0.6
v -0.4 0.1 0.6
v -0.3 0.1 0.6
v -0.2 0.1 0.6
v -0.1 0.1 0.6
v 0 0.1 0.6
v -0.4 0.1 0.5
v -0.3 0.1 0.5
v -0.2 0.1 0.5
v -0.1 0.1 0.5
v -0.5 0.1 0.4
v -0.4 0.1 0.4
v -0.1 0.1 0.4
v 0 0.1 0.4
v -0.3 0.2 0.6
v -0.2 0.2 0.6
v -0.4 0.2 0.5
v -0.3 0.2 0.5
v -0.2 0.2 0.5
v -0.1 0.2 0.5
v -0.5 0.2 0.4
v -0.4 0.2 0.4
v -0.3 0.2 0.4
v -0.2 0.2 0.4
v -0.1 0.2 0.4
v 0 0.2 0.4
v -0.5 0.2 0.3
v -0.4 0.2 0.3
v -0.1 0.2 0.3
v 0 0.2 0.3
v -0.4 0.3 0.4
v -0.1 0.3 0.4
v -0.5 0.3 0.3
v -0.4 0.3 0.3
v -0.1 0.3 0.3
v 0 0.3 0.3
v -0.5 0.3 0.2
v -0.4 0.3 0.2
v -0.1 0.3 0.2
v 0 0.3 0.2
v -0.4 0.7 0.3
v -0.1 0.7 0.3
v -0.5 0.7 0.2
v -0.4 0.7 0.2
v -0.1 0.7 0.2
v 0 0.7 0.2
v -0.5 0.7 -0.1
v -0.4 0.7 -0.1
v -0.1 0.7 -0.1
v 0 0.7 -0.1
v -0.4 0.7 -0.2
v -0.1 0.7 -0.2

# faces
f 3/1/1 2/1/1 1/1/1
f 4/1/1 2/1/1 3/1/1
f 5/2/1 4/2/1 3/2/1
f 6/2/1 4/2/1 5/2/1
f 7/2/1 4/2/1 6/2/1
f 8/2/1 4/2/1 7/2/1
f 9/1/1 2/1/1 4/1/1
f 9/2/1 4/2/1 8/2/1
f 10/1/1 2/1/1 9/1/1
f 11/1/1 7/1/1 6/1/1
f 12/2/1 8/2/1 7/2/1
f 12/1/1 7/1/1 11/1/1
f 13/1/1 9/1/1 8/1/1
f 13/2/1 8/2/1 12/2/1
f 14/2/1 10/2/1 9/2/1
f 14/1/1 9/1/1 13/1/1
f 15/1/1 13/1/1 12/1/1
f 16/1/1 13/1/1 15/1/1
f 17/2/1 14/2/1 13/2/1
f 17/1/1 13/1/1 16/1/1
f 18/2/1 17/2/1 16/2/1
f 19/2/1 10/2/1 14/2/1
f 19/2/1 17/2/1 18/2/1
f 19/2/1 14/2/1 17/2/1
f 24/1/1 21/1/1 20/1/1
f 25/1/1 21/1/1 24/1/1
f 26/1/1 23/1/1 22/1/1
f 27/1/1 23/1/1 26/1/1
f 28/2/1 25/2/1 24/2/1
f 29/2/1 25/2/1 28/2/1
f 32/2/1 27/2/1 26/2/1
f 33/1/1 31/1/1 30/1/1
f 34/1/1 31/1/1 33/1/1
f 36/2/1 35/2/1 34/2/1
f 37/2/1 35/2/1 36/2/1
f 39/2/1 38/2/1 37/2/1
f 40/2/1 38/2/1 39/2/1
f 41/2/1 27/2/1 32/2/1
f 42/2/1 27/2/1 41/2/1
f 45/2/1 44/2/1 43/2/1
f 46/2/1 44/2/1 45/2/1
f 47/2/2 48/2/2 49/2/2
f 49/2/2 48/2/2 50/2/2
f 51/1/2 52/1/2 55/1/2
f 55/1/2 52/1/2 56/1/2
f 53/1/2 54/1/2 57/1/2
f 57/1/2 54/1/2 58/1/2
f 55/2/2 56/2/2 59/2/2
f 59/2/2 56/2/2 60/2/2
f 57/2/2 58/2/2 63/2/2
f 61/1/2 62/1/2 64/1/2
f 64/1/2 62/1/2 65/1/2
f 65/2/2 66/2/2 67/2/2
f 67/2/2 66/2/2 68/2/2
f 68/2/2 69/2/2 70/2/2
f 70/2/2 69/2/2 71/2/2
f 63/2/2 58/2/2 72/2/2
f 72/2/2 58/2/2 73/2/2
f 74/1/2 75/1/2 76/1/2
f 76/1/2 75/1/2 77/1/2
f 76/2/2 77/2/2 78/2/2
f 78/2/2 77/2/2 79/2/2
f 79/2/2 77/2/2 80/2/2
f 80/2/2 77/2/2 81/2/2
f 77/1/2 75/1/2 82/1/2
f 81/2/2 77/2/2 82/2/2
f 82/1/2 75/1/2 83/1/2
f 79/1/2 80/1/2 84/1/2
f 80/2/2 81/2/2 85/2/2
f 84/1/2 80/1/2 85/1/2
f 81/1/2 82/1/2 86/1/2
f 85/2/2 81/2/2 86/2/2
f 82/2/2 83/2/2 87/2/2
f 86/1/2 82/1/2 87/1/2
f 85/1/2 86/1/2 88/1/2
f 88/1/2 86/1/2 89/1/2
f 86/2/2 87/2/2 90/2/2
f 89/1/2 86/1/2 90/1/2
f 89/2/2 90/2/2 91/2/2
f 87/2/2 83/2/2 92/2/2
f 91/2/2 90/2/2 92/2/2
f 90/2/2 87/2/2 92/2/2
f 96/1/3 94/1/3 93/1/3
f 96/2/3 95/2/3 94/2/3
f 97/2/3 95/2/3 96/2/3
f 98/1/3 96/1/3 93/1/3
f 98/1/3 97/1/3 96/1/3
f 99/1/3 97/1/3 98/1/3
f 100/1/3 98/1/3 93/1/3
f 101/2/3 99/2/3 98/2/3
f 101/1/3 98/1/3 100/1/3
f 102/2/3 99/2/3 101/2/3
f 106/1/3 104/1/3 103/1/3
f 107/2/3 105/2/3 104/2/3
f 107/1/3 104/1/3 106/1/3
f 108/2/3 105/2/3 107/2/3
f 111/2/3 110/2/3 109/2/3
f 112/2/3 110/2/3 111/2/3
f 116/1/3 114/1/3 113/1/3
f 117/2/3 115/2/3 114/2/3
f 117/1/3 114/1/3 116/1/3
f 118/2/3 115/2/3 117/2/3
f 121/1/3 120/1/3 119/1/3
f 122/1/3 120/1/3 121/1/3
f 125/1/3 124/1/3 123/1/3
f 126/1/3 124/1/3 125/1/3
f 129/1/3 128/1/3 127/1/3
f 130/1/3 128/1/3 129/1/3
f 132/2/3 131/2/3 130/2/3
f 133/2/3 131/2/3 132/2/3
f 135/2/3 131/2/3 133/2/3
f 136/2/3 131/2/3 135/2/3
f 137/1/3 135/1/3 134/1/3
f 138/1/3 135/1/3 137/1/3
f 141/1/3 140/1/3 139/1/3
f 142/1/3 140/1/3 141/1/3
f 145/2/3 143/2/3 142/2/3
f 146/2/3 143/2/3 145/2/3
f 147/1/3 145/1/3 144/1/3
f 148/1/3 145/1/3 147/1/3
f 151/2/3 150/2/3 149/2/3
f 152/2/3 150/2/3 151/2/3
f 155/2/3 154/2/3 153/2/3
f 156/2/3 154/2/3 155/2/3
f 157/1/4 158/1/4 160/1/4
f 160/1/4 158/1/4 161/1/4
f 158/2/4 159/2/4 162/2/4
f 161/1/4 158/1/4 162/1/4
f 162/2/4 159/2/4 163/2/4
f 164/1/4 165/1/4 168/1/4
f 165/1/4 166/1/4 168/1/4
f 166/2/4 167/2/4 169/2/4
f 168/1/4 166/1/4 169/1/4
f 169/2/4 167/2/4 170/2/4
f 171/1/4 172/1/4 174/1/4
f 172/2/4 173/2/4 175/2/4
f 174/1/4 172/1/4 175/1/4
f 175/2/4 173/2/4 176/2/4
f 180/1/5 178/1/5 177/1/5
f 181/1/5 178/1/5 180/1/5
f 183/1/5 180/1/5 179/1/5
f 183/1/5 182/1/5 181/1/5
f 183/1/5 181/1/5 180/1/5
f 184/1/5 182/1/5 183/1/5
f 185/1/5 182/1/5 184/1/5
f 186/1/5 182/1/5 185/1/5
f 187/1/5 185/1/5 184/1/5
f 188/1/5 185/1/5 187/1/5
f 189/2/6 190/2/6 194/2/6
f 190/1/6 191/1/6 195/1/6
f 194/2/6 190/2/6 195/2/6
f 191/2/6 192/2/6 196/2/6
f 195/1/6 191/1/6 196/1/6
f 196/2/6 192/2/6 197/2/6
f 194/1/6 195/1/6 199/1/6
f 193/2/6 194/2/6 199/2/6
f 199/1/6 195/1/6 200/1/6
f 196/1/6 197/1/6 201/1/6
f 197/2/6 198/2/6 202/2/6
f 201/1/6 197/1/6 202/1/6
f 193/2/6 199/2/6 203/2/6
f 203/2/6 199/2/6 204/2/6
f 202/2/6 198/2/6 205/2/6
f 205/2/6 198/2/6 206/2/6
f 207/2/6 208/2/6 210/2/6
f 210/2/6 208/2/6 211/2/6
f 209/1/6 210/1/6 214/1/6
f 210/2/6 211/2/6 215/2/6
f 214/1/6 210/1/6 215/1/6
f 211/1/6 212/1/6 216/1/6
f 215/2/6 211/2/6 216/2/6
f 216/1/6 212/1/6 217/1/6
f 213/1/6 214/1/6 219/1/6
f 219/1/6 214/1/6 220/1/6
f 217/1/6 218/1/6 221/1/6
f 221/1/6 218/1/6 222/1/6
f 223/2/6 224/2/6 226/2/6
f 226/2/6 224/2/6 227/2/6
f 225/1/6 226/1/6 229/1/6
f 229/1/6 226/1/6 230/1/6
f 227/1/6 228/1/6 231/1/6
f 231/1/6 228/1/6 232/1/6
f 233/2/6 234/2/6 236/2/6
f 236/2/6 234/2/6 237/2/6
f 235/2/6 236/2/6 239/2/6
f 237/2/6 238/2/6 239/2/6
f 236/2/6 237/2/6 239/2/6
f 239/2/6 238/2/6 240/2/6
f 240/2/6 238/2/6 241/2/6
f 241/2/6 238/2/6 242/2/6
f 240/2/6 241/2/6 243/2/6
f 243/2/6 241/2/6 244/2/6
