# MagicaVoxel @ Ephtracy

# group
o 

# material
mtllib Apprentice.mtl
usemtl palette

# normals
vn -1 0 0
vn 1 0 0
vn 0 0 1
vn 0 0 -1
vn 0 -1 0
vn 0 1 0

# texcoords
vt 0.916016 0.5
vt 0.939453 0.5
vt 0.943359 0.5
vt 0.947266 0.5
vt 0.951172 0.5
vt 0.970703 0.5
vt 0.974609 0.5
vt 0.978516 0.5
vt 0.982422 0.5
vt 0.986328 0.5
vt 0.990234 0.5
vt 0.994141 0.5

# verts
v -0.5 0 0.1
v -0.5 0 -0.2
v -0.5 0.4 0.1
v -0.5 0.4 -0.2
v -0.5 1.2 0.3
v -0.5 1.2 -0.4
v -0.5 1.3 0.3
v -0.5 1.3 -0.4
v -0.4 0 0.2
v -0.4 0 0.1
v -0.4 0 -0.2
v -0.4 0 -0.3
v -0.4 0.4 0.2
v -0.4 0.4 0.1
v -0.4 0.4 0
v -0.4 0.4 -0.2
v -0.4 0.4 -0.3
v -0.4 0.5 0.1
v -0.4 0.5 0
v -0.4 0.5 -0.2
v -0.4 0.8 0.1
v -0.4 0.8 -0.2
v -0.4 1.2 0.4
v -0.4 1.2 0.3
v -0.4 1.2 -0.4
v -0.4 1.2 -0.5
v -0.4 1.3 0.4
v -0.4 1.3 0.3
v -0.4 1.3 0.2
v -0.4 1.3 -0.3
v -0.4 1.3 -0.4
v -0.4 1.3 -0.5
v -0.4 1.4 0.2
v -0.4 1.4 -0.3
v -0.3 0.8 0.1
v -0.3 0.8 -0.2
v -0.3 0.9 0.2
v -0.3 0.9 0.1
v -0.3 0.9 -0.2
v -0.3 0.9 -0.3
v -0.3 1 0.2
v -0.3 1 0.1
v -0.3 1.1 0.2
v -0.3 1.1 0.1
v -0.3 1.2 0.2
v -0.3 1.2 0.1
v -0.3 1.2 -0.3
v -0.3 1.3 0.3
v -0.3 1.3 0.2
v -0.3 1.3 0.1
v -0.3 1.3 -0.3
v -0.3 1.3 -0.4
v -0.3 1.4 0.3
v -0.3 1.4 0.2
v -0.3 1.4 0.1
v -0.3 1.4 -0.2
v -0.3 1.4 -0.3
v -0.3 1.4 -0.4
v -0.3 1.5 0.1
v -0.3 1.5 -0.2
v -0.3 1.6 0.1
v -0.3 1.6 -0.2
v -0.2 0.8 0.2
v -0.2 0.8 0.1
v -0.2 0.8 -0.2
v -0.2 0.8 -0.3
v -0.2 0.9 0.2
v -0.2 0.9 0.1
v -0.2 0.9 -0.2
v -0.2 0.9 -0.3
v -0.2 1.4 0.2
v -0.2 1.4 0.1
v -0.2 1.4 -0.2
v -0.2 1.4 -0.3
v -0.2 1.5 0.2
v -0.2 1.5 0.1
v -0.2 1.5 -0.2
v -0.2 1.5 -0.3
v -0.2 1.6 0.2
v -0.2 1.6 0.1
v -0.2 1.6 0
v -0.2 1.6 -0.2
v -0.2 1.6 -0.3
v -0.2 1.8 0
v -0.2 1.8 -0.2
v -0.1 1.6 0.1
v -0.1 1.6 0
v -0.1 1.8 0.1
v -0.1 1.8 0
v -0.1 1.8 -0.1
v -0.1 2.1 0
v -0.1 2.1 -0.1
v 0.3 1.2 0.3
v 0.3 1.2 0.2
v 0.3 1.2 -0.3
v 0.3 1.2 -0.4
v 0.3 1.3 0.3
v 0.3 1.3 0.2
v 0.3 1.3 -0.3
v 0.3 1.3 -0.4
v 0.4 1.2 0.1
v 0.4 1.2 -0.3
v 0.4 1.3 0.1
v 0.4 1.3 -0.3
v -0.4 1.2 0.1
v -0.4 1.2 -0.3
v -0.4 1.3 0.1
v -0.4 1.3 -0.3
v -0.3 1.2 0.3
v -0.3 1.2 0.2
v -0.3 1.2 -0.3
v -0.3 1.2 -0.4
v -0.3 1.3 0.3
v -0.3 1.3 0.2
v -0.3 1.3 -0.3
v -0.3 1.3 -0.4
v 0 2 0
v 0 2 -0.1
v 0 2.1 0
v 0 2.1 -0.1
v 0.1 1.6 0.1
v 0.1 1.6 0
v 0.1 1.8 0.1
v 0.1 1.8 0
v 0.1 1.8 -0.1
v 0.1 2 0
v 0.1 2 -0.1
v 0.2 0.8 0.2
v 0.2 0.8 0.1
v 0.2 0.8 -0.2
v 0.2 0.8 -0.3
v 0.2 0.9 0.2
v 0.2 0.9 0.1
v 0.2 0.9 -0.2
v 0.2 0.9 -0.3
v 0.2 1.4 0.2
v 0.2 1.4 0.1
v 0.2 1.4 -0.2
v 0.2 1.4 -0.3
v 0.2 1.5 0.2
v 0.2 1.5 0.1
v 0.2 1.5 -0.2
v 0.2 1.5 -0.3
v 0.2 1.6 0.2
v 0.2 1.6 0.1
v 0.2 1.6 0
v 0.2 1.6 -0.2
v 0.2 1.6 -0.3
v 0.2 1.8 0
v 0.2 1.8 -0.2
v 0.3 0.8 0.1
v 0.3 0.8 -0.2
v 0.3 0.9 0.2
v 0.3 0.9 0.1
v 0.3 0.9 -0.2
v 0.3 0.9 -0.3
v 0.3 1 0.2
v 0.3 1 0.1
v 0.3 1.1 0.2
v 0.3 1.1 0.1
v 0.3 1.2 0.2
v 0.3 1.2 0.1
v 0.3 1.2 -0.3
v 0.3 1.3 0.3
v 0.3 1.3 0.2
v 0.3 1.3 0.1
v 0.3 1.3 -0.3
v 0.3 1.3 -0.4
v 0.3 1.4 0.3
v 0.3 1.4 0.2
v 0.3 1.4 0.1
v 0.3 1.4 -0.2
v 0.3 1.4 -0.3
v 0.3 1.4 -0.4
v 0.3 1.5 0.1
v 0.3 1.5 -0.2
v 0.3 1.6 0.1
v 0.3 1.6 -0.2
v 0.4 0 0.2
v 0.4 0 0.1
v 0.4 0 -0.2
v 0.4 0 -0.3
v 0.4 0.4 0.2
v 0.4 0.4 0.1
v 0.4 0.4 -0.2
v 0.4 0.4 -0.3
v 0.4 0.5 0.1
v 0.4 0.5 -0.2
v 0.4 0.8 0.1
v 0.4 0.8 -0.2
v 0.4 1.2 0.4
v 0.4 1.2 0.3
v 0.4 1.2 -0.4
v 0.4 1.2 -0.5
v 0.4 1.3 0.4
v 0.4 1.3 0.3
v 0.4 1.3 0.2
v 0.4 1.3 -0.3
v 0.4 1.3 -0.4
v 0.4 1.3 -0.5
v 0.4 1.4 0.2
v 0.4 1.4 -0.3
v 0.5 0 0.1
v 0.5 0 -0.2
v 0.5 0.4 0.1
v 0.5 0.4 -0.2
v 0.5 1.2 0.3
v 0.5 1.2 -0.4
v 0.5 1.3 0.3
v 0.5 1.3 -0.4
v -0.4 1.2 0.4
v -0.4 1.3 0.4
v 0.4 1.2 0.4
v 0.4 1.3 0.4
v -0.5 1.2 0.3
v -0.5 1.3 0.3
v -0.4 1.2 0.3
v -0.4 1.3 0.3
v -0.3 1.3 0.3
v -0.3 1.4 0.3
v 0.3 1.3 0.3
v 0.3 1.4 0.3
v 0.4 1.2 0.3
v 0.4 1.3 0.3
v 0.5 1.2 0.3
v 0.5 1.3 0.3
v -0.4 0 0.2
v -0.4 0.4 0.2
v -0.4 1.3 0.2
v -0.4 1.4 0.2
v -0.3 0.9 0.2
v -0.3 1 0.2
v -0.3 1.1 0.2
v -0.3 1.2 0.2
v -0.3 1.3 0.2
v -0.3 1.4 0.2
v -0.2 0.8 0.2
v -0.2 0.9 0.2
v -0.2 1 0.2
v -0.2 1.1 0.2
v -0.2 1.2 0.2
v -0.2 1.3 0.2
v -0.2 1.4 0.2
v -0.2 1.5 0.2
v -0.2 1.6 0.2
v -0.1 1 0.2
v -0.1 1.1 0.2
v -0.1 1.2 0.2
v -0.1 1.3 0.2
v -0.1 1.4 0.2
v -0.1 1.5 0.2
v -0.1 1.6 0.2
v 0 1.4 0.2
v 0 1.5 0.2
v 0 1.6 0.2
v 0.1 1 0.2
v 0.1 1.1 0.2
v 0.1 1.2 0.2
v 0.1 1.3 0.2
v 0.1 1.4 0.2
v 0.1 1.5 0.2
v 0.2 0.8 0.2
v 0.2 0.9 0.2
v 0.2 1 0.2
v 0.2 1.1 0.2
v 0.2 1.2 0.2
v 0.2 1.3 0.2
v 0.2 1.4 0.2
v 0.2 1.5 0.2
v 0.2 1.6 0.2
v 0.3 0.9 0.2
v 0.3 1 0.2
v 0.3 1.1 0.2
v 0.3 1.2 0.2
v 0.3 1.3 0.2
v 0.3 1.4 0.2
v 0.4 0 0.2
v 0.4 0.4 0.2
v 0.4 1.3 0.2
v 0.4 1.4 0.2
v -0.5 0 0.1
v -0.5 0.4 0.1
v -0.4 0 0.1
v -0.4 0.4 0.1
v -0.4 0.5 0.1
v -0.4 0.8 0.1
v -0.3 0.4 0.1
v -0.3 0.5 0.1
v -0.3 0.6 0.1
v -0.3 0.8 0.1
v -0.3 0.9 0.1
v -0.3 1.4 0.1
v -0.3 1.5 0.1
v -0.3 1.6 0.1
v -0.2 0.4 0.1
v -0.2 0.5 0.1
v -0.2 0.6 0.1
v -0.2 0.8 0.1
v -0.2 0.9 0.1
v -0.2 1.4 0.1
v -0.2 1.5 0.1
v -0.2 1.6 0.1
v -0.1 0.4 0.1
v -0.1 0.5 0.1
v -0.1 0.6 0.1
v -0.1 1.6 0.1
v -0.1 1.8 0.1
v 0 0.6 0.1
v 0 0.7 0.1
v 0 1.6 0.1
v 0.1 0.7 0.1
v 0.1 0.8 0.1
v 0.1 1.6 0.1
v 0.1 1.8 0.1
v 0.2 0.8 0.1
v 0.2 0.9 0.1
v 0.2 1.4 0.1
v 0.2 1.5 0.1
v 0.2 1.6 0.1
v 0.3 0.5 0.1
v 0.3 0.8 0.1
v 0.3 0.9 0.1
v 0.3 1.4 0.1
v 0.3 1.5 0.1
v 0.3 1.6 0.1
v 0.4 0 0.1
v 0.4 0.4 0.1
v 0.4 0.5 0.1
v 0.4 0.8 0.1
v 0.5 0 0.1
v 0.5 0.4 0.1
v -0.2 1.6 0
v -0.2 1.8 0
v -0.1 1.6 0
v -0.1 1.8 0
v -0.1 2.1 0
v 0 2 0
v 0 2.1 0
v 0.1 1.6 0
v 0.1 1.8 0
v 0.1 2 0
v 0.2 1.6 0
v 0.2 1.8 0
v -0.4 1.2 -0.3
v -0.4 1.3 -0.3
v -0.3 1.2 -0.3
v -0.3 1.3 -0.3
v 0.3 1.2 -0.3
v 0.3 1.3 -0.3
v 0.4 1.2 -0.3
v 0.4 1.3 -0.3
v -0.3 1.2 -0.4
v -0.3 1.3 -0.4
v 0.3 1.2 -0.4
v 0.3 1.3 -0.4
v -0.3 1.2 0.3
v -0.3 1.3 0.3
v 0.3 1.2 0.3
v 0.3 1.3 0.3
v -0.4 1.2 0.1
v -0.4 1.3 0.1
v -0.3 1.2 0.1
v -0.3 1.3 0.1
v 0.3 1.2 0.1
v 0.3 1.3 0.1
v 0.4 1.2 0.1
v 0.4 1.3 0.1
v -0.1 1.8 -0.1
v -0.1 2.1 -0.1
v 0 2 -0.1
v 0 2.1 -0.1
v 0.1 1.8 -0.1
v 0.1 2 -0.1
v -0.5 0 -0.2
v -0.5 0.4 -0.2
v -0.4 0 -0.2
v -0.4 0.4 -0.2
v -0.4 0.5 -0.2
v -0.4 0.8 -0.2
v -0.3 0.5 -0.2
v -0.3 0.6 -0.2
v -0.3 0.8 -0.2
v -0.3 0.9 -0.2
v -0.3 1.4 -0.2
v -0.3 1.5 -0.2
v -0.3 1.6 -0.2
v -0.2 0.6 -0.2
v -0.2 0.7 -0.2
v -0.2 0.8 -0.2
v -0.2 0.9 -0.2
v -0.2 1.4 -0.2
v -0.2 1.5 -0.2
v -0.2 1.6 -0.2
v -0.2 1.8 -0.2
v -0.1 0.7 -0.2
v -0.1 0.8 -0.2
v 0.1 0.7 -0.2
v 0.1 0.8 -0.2
v 0.2 0.6 -0.2
v 0.2 0.7 -0.2
v 0.2 0.8 -0.2
v 0.2 0.9 -0.2
v 0.2 1.4 -0.2
v 0.2 1.5 -0.2
v 0.2 1.6 -0.2
v 0.2 1.8 -0.2
v 0.3 0.5 -0.2
v 0.3 0.6 -0.2
v 0.3 0.8 -0.2
v 0.3 0.9 -0.2
v 0.3 1.4 -0.2
v 0.3 1.5 -0.2
v 0.3 1.6 -0.2
v 0.4 0 -0.2
v 0.4 0.4 -0.2
v 0.4 0.5 -0.2
v 0.4 0.8 -0.2
v 0.5 0 -0.2
v 0.5 0.4 -0.2
v -0.4 0 -0.3
v -0.4 0.4 -0.3
v -0.4 1.3 -0.3
v -0.4 1.4 -0.3
v -0.3 0.9 -0.3
v -0.3 1.2 -0.3
v -0.3 1.3 -0.3
v -0.3 1.4 -0.3
v -0.2 0.8 -0.3
v -0.2 0.9 -0.3
v -0.2 1.4 -0.3
v -0.2 1.5 -0.3
v -0.2 1.6 -0.3
v 0.2 0.8 -0.3
v 0.2 0.9 -0.3
v 0.2 1.4 -0.3
v 0.2 1.5 -0.3
v 0.2 1.6 -0.3
v 0.3 0.9 -0.3
v 0.3 1.2 -0.3
v 0.3 1.3 -0.3
v 0.3 1.4 -0.3
v 0.4 0 -0.3
v 0.4 0.4 -0.3
v 0.4 1.3 -0.3
v 0.4 1.4 -0.3
v -0.5 1.2 -0.4
v -0.5 1.3 -0.4
v -0.4 1.2 -0.4
v -0.4 1.3 -0.4
v -0.3 1.3 -0.4
v -0.3 1.4 -0.4
v 0.3 1.3 -0.4
v 0.3 1.4 -0.4
v 0.4 1.2 -0.4
v 0.4 1.3 -0.4
v 0.5 1.2 -0.4
v 0.5 1.3 -0.4
v -0.4 1.2 -0.5
v -0.4 1.3 -0.5
v 0.4 1.2 -0.5
v 0.4 1.3 -0.5
v -0.4 0 0.2
v 0.4 0 0.2
v -0.5 0 0.1
v -0.4 0 0.1
v 0.4 0 0.1
v 0.5 0 0.1
v -0.5 0 -0.2
v -0.4 0 -0.2
v 0.4 0 -0.2
v 0.5 0 -0.2
v -0.4 0 -0.3
v 0.4 0 -0.3
v -0.2 0.8 0.2
v 0.2 0.8 0.2
v -0.2 0.8 0.1
v 0.1 0.8 0.1
v 0.2 0.8 0.1
v -0.2 0.8 -0.2
v -0.1 0.8 -0.2
v 0.1 0.8 -0.2
v 0.2 0.8 -0.2
v -0.2 0.8 -0.3
v 0.2 0.8 -0.3
v -0.3 0.9 0.2
v -0.2 0.9 0.2
v 0.2 0.9 0.2
v 0.3 0.9 0.2
v -0.3 0.9 0.1
v -0.2 0.9 0.1
v 0.2 0.9 0.1
v 0.3 0.9 0.1
v -0.3 0.9 -0.2
v -0.2 0.9 -0.2
v 0.2 0.9 -0.2
v 0.3 0.9 -0.2
v -0.3 0.9 -0.3
v -0.2 0.9 -0.3
v 0.2 0.9 -0.3
v 0.3 0.9 -0.3
v -0.4 1.2 0.4
v 0.4 1.2 0.4
v -0.5 1.2 0.3
v -0.4 1.2 0.3
v -0.3 1.2 0.3
v 0.3 1.2 0.3
v 0.4 1.2 0.3
v 0.5 1.2 0.3
v -0.4 1.2 0.2
v -0.3 1.2 0.2
v 0.3 1.2 0.2
v 0.4 1.2 0.2
v -0.4 1.2 0.1
v -0.3 1.2 0.1
v 0.3 1.2 0.1
v 0.4 1.2 0.1
v -0.4 1.2 -0.3
v -0.3 1.2 -0.3
v 0.3 1.2 -0.3
v 0.4 1.2 -0.3
v -0.5 1.2 -0.4
v -0.4 1.2 -0.4
v -0.3 1.2 -0.4
v 0.3 1.2 -0.4
v 0.4 1.2 -0.4
v 0.5 1.2 -0.4
v -0.4 1.2 -0.5
v 0.4 1.2 -0.5
v -0.3 1.3 0.3
v 0.3 1.3 0.3
v -0.3 1.3 0.2
v -0.2 1.3 0.2
v -0.1 1.3 0.2
v 0.1 1.3 0.2
v 0.2 1.3 0.2
v 0.3 1.3 0.2
v -0.4 1.3 0.1
v -0.3 1.3 0.1
v 0.3 1.3 0.1
v 0.4 1.3 0.1
v -0.4 1.3 -0.3
v -0.3 1.3 -0.3
v 0.3 1.3 -0.3
v 0.4 1.3 -0.3
v -0.3 1.3 -0.4
v 0.3 1.3 -0.4
v -0.4 0.4 0.2
v 0.4 0.4 0.2
v -0.5 0.4 0.1
v -0.4 0.4 0.1
v -0.3 0.4 0.1
v -0.2 0.4 0.1
v -0.1 0.4 0.1
v 0.4 0.4 0.1
v 0.5 0.4 0.1
v -0.4 0.4 0
v -0.5 0.4 -0.2
v -0.4 0.4 -0.2
v 0.4 0.4 -0.2
v 0.5 0.4 -0.2
v -0.4 0.4 -0.3
v 0.4 0.4 -0.3
v -0.4 0.8 0.1
v -0.3 0.8 0.1
v 0.3 0.8 0.1
v 0.4 0.8 0.1
v -0.4 0.8 -0.2
v -0.3 0.8 -0.2
v 0.3 0.8 -0.2
v 0.4 0.8 -0.2
v -0.4 1.3 0.4
v 0.4 1.3 0.4
v -0.5 1.3 0.3
v -0.4 1.3 0.3
v -0.3 1.3 0.3
v 0.3 1.3 0.3
v 0.4 1.3 0.3
v 0.5 1.3 0.3
v -0.4 1.3 0.2
v -0.3 1.3 0.2
v 0.3 1.3 0.2
v 0.4 1.3 0.2
v -0.4 1.3 -0.3
v -0.3 1.3 -0.3
v 0.3 1.3 -0.3
v 0.4 1.3 -0.3
v -0.5 1.3 -0.4
v -0.4 1.3 -0.4
v -0.3 1.3 -0.4
v 0.3 1.3 -0.4
v 0.4 1.3 -0.4
v 0.5 1.3 -0.4
v -0.4 1.3 -0.5
v 0.4 1.3 -0.5
v -0.3 1.4 0.3
v 0.3 1.4 0.3
v -0.4 1.4 0.2
v -0.3 1.4 0.2
v -0.2 1.4 0.2
v -0.1 1.4 0.2
v 0 1.4 0.2
v 0.1 1.4 0.2
v 0.2 1.4 0.2
v 0.3 1.4 0.2
v 0.4 1.4 0.2
v -0.3 1.4 0.1
v -0.2 1.4 0.1
v 0.2 1.4 0.1
v 0.3 1.4 0.1
v -0.3 1.4 -0.2
v -0.2 1.4 -0.2
v 0.2 1.4 -0.2
v 0.3 1.4 -0.2
v -0.4 1.4 -0.3
v -0.3 1.4 -0.3
v -0.2 1.4 -0.3
v 0.2 1.4 -0.3
v 0.3 1.4 -0.3
v 0.4 1.4 -0.3
v -0.3 1.4 -0.4
v 0.3 1.4 -0.4
v -0.2 1.6 0.2
v -0.1 1.6 0.2
v 0 1.6 0.2
v 0.2 1.6 0.2
v -0.3 1.6 0.1
v -0.2 1.6 0.1
v -0.1 1.6 0.1
v 0 1.6 0.1
v 0.1 1.6 0.1
v 0.2 1.6 0.1
v 0.3 1.6 0.1
v -0.2 1.6 0
v -0.1 1.6 0
v 0.1 1.6 0
v 0.2 1.6 0
v -0.3 1.6 -0.2
v -0.2 1.6 -0.2
v 0.2 1.6 -0.2
v 0.3 1.6 -0.2
v -0.2 1.6 -0.3
v 0.2 1.6 -0.3
v -0.1 1.8 0.1
v 0.1 1.8 0.1
v -0.2 1.8 0
v -0.1 1.8 0
v 0.1 1.8 0
v 0.2 1.8 0
v -0.1 1.8 -0.1
v 0.1 1.8 -0.1
v -0.2 1.8 -0.2
v 0.2 1.8 -0.2
v 0 2 0
v 0.1 2 0
v 0 2 -0.1
v 0.1 2 -0.1
v -0.1 2.1 0
v 0 2.1 0
v -0.1 2.1 -0.1
v 0 2.1 -0.1

# faces
f 3/6/1 2/6/1 1/6/1
f 4/6/1 2/6/1 3/6/1
f 7/6/1 6/6/1 5/6/1
f 8/6/1 6/6/1 7/6/1
f 13/6/1 10/6/1 9/6/1
f 14/6/1 10/6/1 13/6/1
f 16/6/1 12/6/1 11/6/1
f 17/6/1 12/6/1 16/6/1
f 18/3/1 15/3/1 14/3/1
f 19/2/1 16/2/1 15/2/1
f 19/3/1 15/3/1 18/3/1
f 20/2/1 16/2/1 19/2/1
f 21/4/1 19/4/1 18/4/1
f 21/4/1 20/4/1 19/4/1
f 22/4/1 20/4/1 21/4/1
f 27/6/1 24/6/1 23/6/1
f 28/6/1 24/6/1 27/6/1
f 31/6/1 26/6/1 25/6/1
f 32/6/1 26/6/1 31/6/1
f 33/1/1 30/1/1 29/1/1
f 34/1/1 30/1/1 33/1/1
f 38/7/1 36/7/1 35/7/1
f 39/7/1 36/7/1 38/7/1
f 41/7/1 38/7/1 37/7/1
f 41/7/1 40/7/1 39/7/1
f 41/7/1 39/7/1 38/7/1
f 42/7/1 40/7/1 41/7/1
f 43/9/1 42/9/1 41/9/1
f 44/7/1 40/7/1 42/7/1
f 44/9/1 42/9/1 43/9/1
f 45/11/1 44/11/1 43/11/1
f 46/7/1 40/7/1 44/7/1
f 46/11/1 44/11/1 45/11/1
f 47/7/1 40/7/1 46/7/1
f 50/7/1 47/7/1 46/7/1
f 51/7/1 47/7/1 50/7/1
f 53/1/1 49/1/1 48/1/1
f 54/1/1 49/1/1 53/1/1
f 57/1/1 52/1/1 51/1/1
f 58/1/1 52/1/1 57/1/1
f 59/2/1 56/2/1 55/2/1
f 60/2/1 56/2/1 59/2/1
f 61/4/1 60/4/1 59/4/1
f 62/4/1 60/4/1 61/4/1
f 67/7/1 64/7/1 63/7/1
f 68/7/1 64/7/1 67/7/1
f 69/7/1 66/7/1 65/7/1
f 70/7/1 66/7/1 69/7/1
f 75/3/1 72/3/1 71/3/1
f 76/3/1 72/3/1 75/3/1
f 77/2/1 74/2/1 73/2/1
f 78/2/1 74/2/1 77/2/1
f 79/4/1 76/4/1 75/4/1
f 80/4/1 76/4/1 79/4/1
f 82/4/1 78/4/1 77/4/1
f 83/4/1 78/4/1 82/4/1
f 84/4/1 82/4/1 81/4/1
f 85/4/1 82/4/1 84/4/1
f 88/4/1 87/4/1 86/4/1
f 89/4/1 87/4/1 88/4/1
f 91/5/1 90/5/1 89/5/1
f 92/5/1 90/5/1 91/5/1
f 97/6/1 94/6/1 93/6/1
f 98/6/1 94/6/1 97/6/1
f 99/6/1 96/6/1 95/6/1
f 100/6/1 96/6/1 99/6/1
f 103/6/1 102/6/1 101/6/1
f 104/6/1 102/6/1 103/6/1
f 105/6/2 106/6/2 107/6/2
f 107/6/2 106/6/2 108/6/2
f 109/6/2 110/6/2 113/6/2
f 113/6/2 110/6/2 114/6/2
f 111/6/2 112/6/2 115/6/2
f 115/6/2 112/6/2 116/6/2
f 117/5/2 118/5/2 119/5/2
f 119/5/2 118/5/2 120/5/2
f 121/4/2 122/4/2 123/4/2
f 123/4/2 122/4/2 124/4/2
f 124/5/2 125/5/2 126/5/2
f 126/5/2 125/5/2 127/5/2
f 128/7/2 129/7/2 132/7/2
f 132/7/2 129/7/2 133/7/2
f 130/7/2 131/7/2 134/7/2
f 134/7/2 131/7/2 135/7/2
f 136/2/2 137/2/2 140/2/2
f 140/2/2 137/2/2 141/2/2
f 138/2/2 139/2/2 142/2/2
f 142/2/2 139/2/2 143/2/2
f 140/4/2 141/4/2 144/4/2
f 144/4/2 141/4/2 145/4/2
f 142/4/2 143/4/2 147/4/2
f 147/4/2 143/4/2 148/4/2
f 146/4/2 147/4/2 149/4/2
f 149/4/2 147/4/2 150/4/2
f 151/7/2 152/7/2 154/7/2
f 154/7/2 152/7/2 155/7/2
f 153/7/2 154/7/2 157/7/2
f 155/7/2 156/7/2 157/7/2
f 154/7/2 155/7/2 157/7/2
f 157/7/2 156/7/2 158/7/2
f 157/9/2 158/9/2 159/9/2
f 158/7/2 156/7/2 160/7/2
f 159/9/2 158/9/2 160/9/2
f 159/11/2 160/11/2 161/11/2
f 160/7/2 156/7/2 162/7/2
f 161/11/2 160/11/2 162/11/2
f 162/7/2 156/7/2 163/7/2
f 162/7/2 163/7/2 166/7/2
f 166/7/2 163/7/2 167/7/2
f 164/1/2 165/1/2 169/1/2
f 169/1/2 165/1/2 170/1/2
f 167/1/2 168/1/2 173/1/2
f 173/1/2 168/1/2 174/1/2
f 171/2/2 172/2/2 175/2/2
f 175/2/2 172/2/2 176/2/2
f 175/4/2 176/4/2 177/4/2
f 177/4/2 176/4/2 178/4/2
f 179/6/2 180/6/2 183/6/2
f 183/6/2 180/6/2 184/6/2
f 181/6/2 182/6/2 185/6/2
f 185/6/2 182/6/2 186/6/2
f 184/2/2 185/2/2 187/2/2
f 187/2/2 185/2/2 188/2/2
f 187/4/2 188/4/2 189/4/2
f 189/4/2 188/4/2 190/4/2
f 191/6/2 192/6/2 195/6/2
f 195/6/2 192/6/2 196/6/2
f 193/6/2 194/6/2 199/6/2
f 199/6/2 194/6/2 200/6/2
f 197/1/2 198/1/2 201/1/2
f 201/1/2 198/1/2 202/1/2
f 203/6/2 204/6/2 205/6/2
f 205/6/2 204/6/2 206/6/2
f 207/6/2 208/6/2 209/6/2
f 209/6/2 208/6/2 210/6/2
f 213/6/3 212/6/3 211/6/3
f 214/6/3 212/6/3 213/6/3
f 217/6/3 216/6/3 215/6/3
f 218/6/3 216/6/3 217/6/3
f 221/1/3 220/1/3 219/1/3
f 222/1/3 220/1/3 221/1/3
f 225/6/3 224/6/3 223/6/3
f 226/6/3 224/6/3 225/6/3
f 235/1/3 230/1/3 229/1/3
f 236/1/3 230/1/3 235/1/3
f 238/7/3 232/7/3 231/7/3
f 239/9/3 233/9/3 232/9/3
f 239/7/3 232/7/3 238/7/3
f 240/11/3 234/11/3 233/11/3
f 240/9/3 233/9/3 239/9/3
f 241/7/3 235/7/3 234/7/3
f 241/11/3 234/11/3 240/11/3
f 242/7/3 235/7/3 241/7/3
f 246/7/3 239/7/3 238/7/3
f 246/7/3 238/7/3 237/7/3
f 246/8/3 240/8/3 239/8/3
f 247/10/3 241/10/3 240/10/3
f 247/8/3 240/8/3 246/8/3
f 248/12/3 242/12/3 241/12/3
f 248/10/3 241/10/3 247/10/3
f 249/12/3 242/12/3 248/12/3
f 250/3/3 244/3/3 243/3/3
f 251/4/3 245/4/3 244/4/3
f 251/3/3 244/3/3 250/3/3
f 252/4/3 245/4/3 251/4/3
f 253/2/3 251/2/3 250/2/3
f 254/3/3 252/3/3 251/3/3
f 254/2/3 251/2/3 253/2/3
f 255/3/3 252/3/3 254/3/3
f 256/7/3 247/7/3 246/7/3
f 256/7/3 249/7/3 248/7/3
f 256/7/3 246/7/3 237/7/3
f 256/7/3 248/7/3 247/7/3
f 257/7/3 249/7/3 256/7/3
f 258/7/3 249/7/3 257/7/3
f 259/7/3 249/7/3 258/7/3
f 260/3/3 254/3/3 253/3/3
f 261/4/3 255/4/3 254/4/3
f 261/3/3 254/3/3 260/3/3
f 262/7/3 256/7/3 237/7/3
f 263/7/3 256/7/3 262/7/3
f 264/8/3 257/8/3 256/8/3
f 264/7/3 256/7/3 263/7/3
f 265/10/3 258/10/3 257/10/3
f 265/8/3 257/8/3 264/8/3
f 266/12/3 259/12/3 258/12/3
f 266/10/3 258/10/3 265/10/3
f 267/12/3 259/12/3 266/12/3
f 268/2/3 261/2/3 260/2/3
f 269/4/3 255/4/3 261/4/3
f 269/2/3 261/2/3 268/2/3
f 270/4/3 255/4/3 269/4/3
f 271/7/3 264/7/3 263/7/3
f 272/9/3 265/9/3 264/9/3
f 272/7/3 264/7/3 271/7/3
f 273/11/3 266/11/3 265/11/3
f 273/9/3 265/9/3 272/9/3
f 274/7/3 267/7/3 266/7/3
f 274/11/3 266/11/3 273/11/3
f 275/7/3 267/7/3 274/7/3
f 277/6/3 228/6/3 227/6/3
f 278/6/3 228/6/3 277/6/3
f 279/1/3 276/1/3 275/1/3
f 280/1/3 276/1/3 279/1/3
f 283/6/3 282/6/3 281/6/3
f 284/6/3 282/6/3 283/6/3
f 287/3/3 285/3/3 284/3/3
f 288/4/3 286/4/3 285/4/3
f 288/3/3 285/3/3 287/3/3
f 289/4/3 286/4/3 288/4/3
f 290/4/3 286/4/3 289/4/3
f 295/2/3 288/2/3 287/2/3
f 296/3/3 289/3/3 288/3/3
f 296/2/3 288/2/3 295/2/3
f 297/4/3 290/4/3 289/4/3
f 297/3/3 289/3/3 296/3/3
f 298/7/3 291/7/3 290/7/3
f 298/4/3 290/4/3 297/4/3
f 299/7/3 291/7/3 298/7/3
f 300/2/3 293/2/3 292/2/3
f 301/4/3 294/4/3 293/4/3
f 301/2/3 293/2/3 300/2/3
f 302/4/3 294/4/3 301/4/3
f 303/3/3 296/3/3 295/3/3
f 304/4/3 297/4/3 296/4/3
f 304/3/3 296/3/3 303/3/3
f 304/4/3 298/4/3 297/4/3
f 305/4/3 298/4/3 304/4/3
f 308/4/3 298/4/3 305/4/3
f 308/6/3 305/6/3 304/6/3
f 309/4/3 298/4/3 308/4/3
f 310/4/3 307/4/3 306/4/3
f 311/4/3 298/4/3 309/4/3
f 311/6/3 309/6/3 308/6/3
f 312/4/3 298/4/3 311/4/3
f 313/4/3 307/4/3 310/4/3
f 314/4/3 307/4/3 313/4/3
f 315/6/3 312/6/3 311/6/3
f 320/2/3 304/2/3 303/2/3
f 320/6/3 308/6/3 304/6/3
f 320/6/3 311/6/3 308/6/3
f 320/6/3 315/6/3 311/6/3
f 321/7/3 316/7/3 315/7/3
f 321/6/3 315/6/3 320/6/3
f 322/7/3 316/7/3 321/7/3
f 323/2/3 318/2/3 317/2/3
f 324/4/3 319/4/3 318/4/3
f 324/2/3 318/2/3 323/2/3
f 325/4/3 319/4/3 324/4/3
f 327/2/3 320/2/3 303/2/3
f 328/4/3 321/4/3 320/4/3
f 328/2/3 320/2/3 327/2/3
f 329/4/3 321/4/3 328/4/3
f 330/6/3 327/6/3 326/6/3
f 331/6/3 327/6/3 330/6/3
f 334/4/3 333/4/3 332/4/3
f 335/4/3 333/4/3 334/4/3
f 337/5/3 336/5/3 335/5/3
f 338/5/3 336/5/3 337/5/3
f 340/5/3 337/5/3 335/5/3
f 341/5/3 337/5/3 340/5/3
f 342/4/3 340/4/3 339/4/3
f 343/4/3 340/4/3 342/4/3
f 346/6/3 345/6/3 344/6/3
f 347/6/3 345/6/3 346/6/3
f 350/6/3 349/6/3 348/6/3
f 351/6/3 349/6/3 350/6/3
f 354/6/3 353/6/3 352/6/3
f 355/6/3 353/6/3 354/6/3
f 356/6/4 357/6/4 358/6/4
f 358/6/4 357/6/4 359/6/4
f 360/4/4 361/4/4 362/4/4
f 362/4/4 361/4/4 363/4/4
f 364/4/4 365/4/4 366/4/4
f 366/4/4 365/4/4 367/4/4
f 368/5/4 369/5/4 370/5/4
f 370/5/4 369/5/4 371/5/4
f 368/5/4 370/5/4 372/5/4
f 372/5/4 370/5/4 373/5/4
f 374/6/4 375/6/4 376/6/4
f 376/6/4 375/6/4 377/6/4
f 378/4/4 379/4/4 380/4/4
f 377/2/4 378/2/4 380/2/4
f 380/4/4 379/4/4 381/4/4
f 381/4/4 379/4/4 382/4/4
f 380/6/4 381/6/4 387/6/4
f 381/4/4 382/4/4 387/4/4
f 387/4/4 382/4/4 388/4/4
f 382/7/4 383/7/4 389/7/4
f 388/4/4 382/4/4 389/4/4
f 389/7/4 383/7/4 390/7/4
f 384/2/4 385/2/4 391/2/4
f 385/4/4 386/4/4 392/4/4
f 391/2/4 385/2/4 392/2/4
f 392/4/4 386/4/4 393/4/4
f 387/6/4 388/6/4 395/6/4
f 388/4/4 389/4/4 395/4/4
f 395/4/4 389/4/4 396/4/4
f 387/6/4 395/6/4 397/6/4
f 395/6/4 396/6/4 397/6/4
f 397/6/4 396/6/4 398/6/4
f 380/6/4 387/6/4 399/6/4
f 387/6/4 397/6/4 399/6/4
f 397/4/4 398/4/4 400/4/4
f 399/6/4 397/6/4 400/6/4
f 400/4/4 398/4/4 401/4/4
f 393/4/4 394/4/4 405/4/4
f 405/4/4 394/4/4 406/4/4
f 377/2/4 380/2/4 407/2/4
f 380/6/4 399/6/4 407/6/4
f 400/4/4 401/4/4 408/4/4
f 407/6/4 399/6/4 408/6/4
f 399/4/4 400/4/4 408/4/4
f 401/7/4 402/7/4 409/7/4
f 408/4/4 401/4/4 409/4/4
f 409/7/4 402/7/4 410/7/4
f 403/2/4 404/2/4 411/2/4
f 404/4/4 405/4/4 412/4/4
f 411/2/4 404/2/4 412/2/4
f 412/4/4 405/4/4 413/4/4
f 377/2/4 407/2/4 415/2/4
f 408/4/4 409/4/4 416/4/4
f 407/4/4 408/4/4 416/4/4
f 415/2/4 407/2/4 416/2/4
f 416/4/4 409/4/4 417/4/4
f 414/6/4 415/6/4 418/6/4
f 418/6/4 415/6/4 419/6/4
f 422/1/4 423/1/4 426/1/4
f 426/1/4 423/1/4 427/1/4
f 424/7/4 425/7/4 429/7/4
f 425/7/4 426/7/4 429/7/4
f 428/7/4 429/7/4 433/7/4
f 429/7/4 426/7/4 434/7/4
f 433/7/4 429/7/4 434/7/4
f 430/2/4 431/2/4 435/2/4
f 431/4/4 432/4/4 436/4/4
f 435/2/4 431/2/4 436/2/4
f 436/4/4 432/4/4 437/4/4
f 434/7/4 426/7/4 438/7/4
f 438/7/4 426/7/4 439/7/4
f 439/7/4 426/7/4 440/7/4
f 420/6/4 421/6/4 442/6/4
f 442/6/4 421/6/4 443/6/4
f 440/1/4 441/1/4 444/1/4
f 444/1/4 441/1/4 445/1/4
f 446/6/4 447/6/4 448/6/4
f 448/6/4 447/6/4 449/6/4
f 450/1/4 451/1/4 452/1/4
f 452/1/4 451/1/4 453/1/4
f 454/6/4 455/6/4 456/6/4
f 456/6/4 455/6/4 457/6/4
f 458/6/4 459/6/4 460/6/4
f 460/6/4 459/6/4 461/6/4
f 465/6/5 463/6/5 462/6/5
f 466/6/5 463/6/5 465/6/5
f 468/6/5 465/6/5 464/6/5
f 468/6/5 467/6/5 466/6/5
f 468/6/5 466/6/5 465/6/5
f 469/6/5 467/6/5 468/6/5
f 470/6/5 467/6/5 469/6/5
f 471/6/5 467/6/5 470/6/5
f 472/6/5 470/6/5 469/6/5
f 473/6/5 470/6/5 472/6/5
f 476/7/5 475/7/5 474/7/5
f 477/7/5 475/7/5 476/7/5
f 478/7/5 475/7/5 477/7/5
f 483/7/5 480/7/5 479/7/5
f 483/7/5 482/7/5 481/7/5
f 483/7/5 481/7/5 480/7/5
f 484/7/5 482/7/5 483/7/5
f 489/7/5 486/7/5 485/7/5
f 490/7/5 486/7/5 489/7/5
f 491/7/5 488/7/5 487/7/5
f 492/7/5 488/7/5 491/7/5
f 497/7/5 494/7/5 493/7/5
f 498/7/5 494/7/5 497/7/5
f 499/7/5 496/7/5 495/7/5
f 500/7/5 496/7/5 499/7/5
f 504/6/5 502/6/5 501/6/5
f 505/6/5 502/6/5 504/6/5
f 506/6/5 502/6/5 505/6/5
f 507/6/5 502/6/5 506/6/5
f 509/6/5 504/6/5 503/6/5
f 509/6/5 505/6/5 504/6/5
f 510/6/5 505/6/5 509/6/5
f 511/6/5 508/6/5 507/6/5
f 511/6/5 507/6/5 506/6/5
f 512/6/5 508/6/5 511/6/5
f 513/4/5 510/4/5 509/4/5
f 513/6/5 509/6/5 503/6/5
f 514/4/5 510/4/5 513/4/5
f 515/4/5 512/4/5 511/4/5
f 516/6/5 508/6/5 512/6/5
f 516/4/5 512/4/5 515/4/5
f 517/6/5 513/6/5 503/6/5
f 520/6/5 508/6/5 516/6/5
f 521/6/5 518/6/5 517/6/5
f 521/6/5 517/6/5 503/6/5
f 522/6/5 518/6/5 521/6/5
f 523/6/5 518/6/5 522/6/5
f 524/6/5 520/6/5 519/6/5
f 525/6/5 508/6/5 520/6/5
f 525/6/5 520/6/5 524/6/5
f 526/6/5 508/6/5 525/6/5
f 527/6/5 523/6/5 522/6/5
f 527/6/5 524/6/5 523/6/5
f 527/6/5 525/6/5 524/6/5
f 528/6/5 525/6/5 527/6/5
f 531/1/5 530/1/5 529/1/5
f 532/1/5 530/1/5 531/1/5
f 533/1/5 530/1/5 532/1/5
f 534/1/5 530/1/5 533/1/5
f 535/1/5 530/1/5 534/1/5
f 536/1/5 530/1/5 535/1/5
f 541/1/5 538/1/5 537/1/5
f 542/1/5 538/1/5 541/1/5
f 543/1/5 540/1/5 539/1/5
f 544/1/5 540/1/5 543/1/5
f 545/1/5 543/1/5 542/1/5
f 546/1/5 543/1/5 545/1/5
f 547/6/6 548/6/6 550/6/6
f 550/6/6 548/6/6 551/6/6
f 551/6/6 548/6/6 552/6/6
f 552/6/6 548/6/6 553/6/6
f 553/6/6 548/6/6 554/6/6
f 549/6/6 550/6/6 556/6/6
f 549/6/6 556/6/6 557/6/6
f 557/6/6 556/6/6 558/6/6
f 554/6/6 555/6/6 559/6/6
f 559/6/6 555/6/6 560/6/6
f 558/6/6 559/6/6 561/6/6
f 561/6/6 559/6/6 562/6/6
f 563/4/6 564/4/6 567/4/6
f 567/4/6 564/4/6 568/4/6
f 565/4/6 566/4/6 569/4/6
f 569/4/6 566/4/6 570/4/6
f 571/6/6 572/6/6 574/6/6
f 574/6/6 572/6/6 575/6/6
f 575/6/6 572/6/6 576/6/6
f 576/6/6 572/6/6 577/6/6
f 573/6/6 574/6/6 579/6/6
f 574/6/6 575/6/6 579/6/6
f 579/6/6 575/6/6 580/6/6
f 577/6/6 578/6/6 581/6/6
f 576/6/6 577/6/6 581/6/6
f 581/6/6 578/6/6 582/6/6
f 573/6/6 579/6/6 583/6/6
f 582/6/6 578/6/6 586/6/6
f 583/6/6 584/6/6 587/6/6
f 573/6/6 583/6/6 587/6/6
f 587/6/6 584/6/6 588/6/6
f 588/6/6 584/6/6 589/6/6
f 585/6/6 586/6/6 590/6/6
f 586/6/6 578/6/6 591/6/6
f 590/6/6 586/6/6 591/6/6
f 591/6/6 578/6/6 592/6/6
f 588/6/6 589/6/6 593/6/6
f 589/6/6 590/6/6 593/6/6
f 590/6/6 591/6/6 593/6/6
f 593/6/6 591/6/6 594/6/6
f 595/1/6 596/1/6 598/1/6
f 598/1/6 596/1/6 599/1/6
f 599/1/6 596/1/6 600/1/6
f 600/1/6 596/1/6 601/1/6
f 601/1/6 596/1/6 602/1/6
f 602/1/6 596/1/6 603/1/6
f 603/1/6 596/1/6 604/1/6
f 597/1/6 598/1/6 606/1/6
f 598/1/6 599/1/6 606/1/6
f 606/1/6 599/1/6 607/1/6
f 604/1/6 605/1/6 608/1/6
f 603/1/6 604/1/6 608/1/6
f 608/1/6 605/1/6 609/1/6
f 597/1/6 606/1/6 610/1/6
f 609/1/6 605/1/6 613/1/6
f 610/1/6 611/1/6 614/1/6
f 597/1/6 610/1/6 614/1/6
f 614/1/6 611/1/6 615/1/6
f 615/1/6 611/1/6 616/1/6
f 612/1/6 613/1/6 617/1/6
f 613/1/6 605/1/6 618/1/6
f 617/1/6 613/1/6 618/1/6
f 618/1/6 605/1/6 619/1/6
f 615/1/6 616/1/6 620/1/6
f 616/1/6 617/1/6 620/1/6
f 617/1/6 618/1/6 620/1/6
f 620/1/6 618/1/6 621/1/6
f 622/4/6 623/4/6 627/4/6
f 623/3/6 624/3/6 628/3/6
f 627/4/6 623/4/6 628/4/6
f 624/4/6 625/4/6 629/4/6
f 628/3/6 624/3/6 629/3/6
f 629/4/6 625/4/6 630/4/6
f 630/4/6 625/4/6 631/4/6
f 627/4/6 628/4/6 633/4/6
f 626/4/6 627/4/6 633/4/6
f 633/4/6 628/4/6 634/4/6
f 631/4/6 632/4/6 635/4/6
f 630/4/6 631/4/6 635/4/6
f 635/4/6 632/4/6 636/4/6
f 626/4/6 633/4/6 637/4/6
f 637/4/6 633/4/6 638/4/6
f 636/4/6 632/4/6 639/4/6
f 639/4/6 632/4/6 640/4/6
f 638/4/6 639/4/6 641/4/6
f 641/4/6 639/4/6 642/4/6
f 643/4/6 644/4/6 646/4/6
f 646/4/6 644/4/6 647/4/6
f 645/4/6 646/4/6 649/4/6
f 647/4/6 648/4/6 650/4/6
f 645/4/6 649/4/6 651/4/6
f 649/4/6 650/4/6 651/4/6
f 650/4/6 648/4/6 652/4/6
f 651/4/6 650/4/6 652/4/6
f 653/5/6 654/5/6 655/5/6
f 655/5/6 654/5/6 656/5/6
f 657/5/6 658/5/6 659/5/6
f 659/5/6 658/5/6 660/5/6
